<svg version="1.1" id="camera" xmlns="http://www.w3.org/2000/svg" xmlns:xlink="http://www.w3.org/1999/xlink" x="0px" y="0px" viewBox="0 0 71 69" style="enable-background:new 0 0 71 69" xml:space="preserve"><style type="text/css">.st0{fill:#FFFFFF;} .st1{fill:#AFE1EE;} .st2{fill:#0C77A5;} .st3{fill:#0196D6;}</style><path id="Shape_958_copy_2" class="st0" d="M62,19h-9l-4.3-8.2c-0.3-0.5-0.8-0.8-1.3-0.8H23.7c-0.6,0-1.1,0.3-1.3,0.8L18,19H9
	c-4.1,0-9,5.2-9,9.2v31.4C0,63.7,5.3,69,9.4,69h51.2c4.6,0,10.3-5.5,10.4-10.4V29.2C71,25.2,66.1,19,62,19z"/><path id="Shape_958_copy" class="st1" d="M68,22H53l-5-8.1c-0.3-0.6-0.8-0.9-1.4-0.9H24.4c-0.6,0-1.2,0.4-1.4,0.9L18,22H3l0,8h65V22
	z"/><path class="st2" d="M36.5,26C27.4,26,20,33.4,20,42.5C20,51.6,27.4,59,36.5,59C45.6,59,53,51.6,53,42.5C53,33.4,45.6,26,36.5,26z
	 M36.5,55C29.6,55,24,49.4,24,42.5C24,35.6,29.6,30,36.5,30c0,0,0,0,0,0C43.4,30,49,35.6,49,42.5C49,49.4,43.4,55,36.5,55z"/><path id="Shape_958_copy_3" class="st3" d="M36.5,33c-5.2,0-9.5,4.3-9.5,9.5s4.3,9.5,9.5,9.5c5.2,0,9.5-4.3,9.5-9.5
	C46,37.3,41.7,33,36.5,33C36.5,33,36.5,33,36.5,33z"/><path id="Rounded_Rectangle_965_copy" class="st3" d="M67.5,8.1h-3.4v3.4c0,0.8-0.7,1.5-1.5,1.5h-0.1c-0.8,0-1.5-0.7-1.5-1.5v0V8.1
	h-3.4c-0.8,0-1.5-0.7-1.5-1.5v0V6.5c0-0.8,0.7-1.5,1.5-1.5l0,0h3.4V1.5c0-0.8,0.7-1.5,1.5-1.5h0.1c0.8,0,1.5,0.7,1.5,1.5v3.4h3.4
	c0.8,0,1.5,0.7,1.5,1.5v0.1C69,7.4,68.3,8.1,67.5,8.1L67.5,8.1z"/><path class="st2" d="M63.6,18.9H52.7l-4-8c-0.3-0.5-0.8-0.8-1.3-0.8H23.7c-0.6,0-1.1,0.3-1.3,0.8L18,19H7c-0.1,0-0.2,0-0.3,0
	c-3.8,0.2-6.8,3.4-6.7,7.2v35.4C0,65.7,3.3,69,7.4,69h56.2c4.1,0,7.4-3.3,7.4-7.4V26.2C71,22.2,67.7,18.9,63.6,18.9z M68,30H52v3h16
	v29c0,0.2,0,0.4,0,0.6c-0.2,2.1-1.9,3.6-4,3.4H7c-0.2,0-0.4,0-0.6,0c-2.1-0.2-3.6-1.9-3.4-4V33h16v-3H3l-0.1-3.8c0-0.1,0-0.3,0-0.4
	C3,23.7,4.8,21.9,7,22h12c0.6-0.1,1.2-0.4,1.5-1l4.5-8h21l4.4,8c0.3,0.6,0.9,0.9,1.6,1h12c0.2,0,0.4,0,0.6,0c2.1,0.2,3.6,1.9,3.4,4
	V30z"/></svg>