<svg version="1.1" id="icon" xmlns="http://www.w3.org/2000/svg" xmlns:xlink="http://www.w3.org/1999/xlink" x="0px" y="0px" viewBox="0 0 26.5 22" style="enable-background:new 0 0 26.5 22" xml:space="preserve"><style type="text/css">.st0{fill:none;stroke:#97A0A6;} .st1{fill:#DFE7EB;} .st2{fill:#0682B7;}</style><path class="st0" d="M7.6,15.1L7.6,15.1z M19,5.5v-5H9.5C8.7,0.5,8,1.2,8,2v1.6c2.5,0.4,4.5,8.5,4.5,11.2c0,1.1-0.4,2.2-1,3.1
	l0.9,3.6h12.1c0.8,0,1.5-0.7,1.5-1.5l0,0V7.5h-6C19.2,7.5,19,6.3,19,5.5z"/><path id="Shape_1774_copy_5" class="st1" d="M20,0.5v6h6L20,0.5z"/><path id="Shape_1774_copy_2" class="st2" d="M5,6.5c-2.7-0.1-4.9,2-5,4.7c0,1.3,0.6,2.5,1.6,3.4L0,20.3c-0.1,0.4,0,0.7,0.3,1
	c0.3,0.2,0.7,0.3,1.1,0.1L5,19.7l3.5,1.7c0.1,0.1,0.3,0.1,0.4,0.1c0.2,0,0.4-0.1,0.6-0.2c0.3-0.2,0.4-0.6,0.3-1l-1.5-5.8
	c1-0.9,1.5-2.1,1.6-3.4C9.9,8.5,7.7,6.4,5,6.5z M5,14c-1.6-0.1-2.7-1.4-2.6-3c0.1-1.6,1.4-2.7,3-2.6C6.8,8.5,8,9.7,8,11.2
	C7.9,12.8,6.6,14,5,14L5,14z"/><path id="Shape_1774_copy" class="st2" d="M12,5.5c-0.1-0.5,0.3-0.9,0.8-1h3.5c0.6,0.2,0.9,0.7,0.7,1.3c-0.1,0.3-0.4,0.6-0.7,0.7
	h-3.5C12.3,6.4,11.9,6,12,5.5z M21.4,16.5h-4.8c-0.6-0.3-0.7-1-0.4-1.6c0.1-0.2,0.3-0.3,0.4-0.4h4.8c0.6,0.3,0.7,1,0.4,1.6
	C21.7,16.2,21.6,16.4,21.4,16.5z M22,11.5c0.1,0.4-0.2,0.9-0.6,1h-5.7c-0.6-0.3-0.8-0.9-0.5-1.5c0.1-0.2,0.3-0.4,0.5-0.5h5.7
	C21.8,10.6,22.1,11.1,22,11.5z"/></svg>