<svg version="1.1" id="Layer_1" xmlns="http://www.w3.org/2000/svg" xmlns:xlink="http://www.w3.org/1999/xlink" x="0px" y="0px" viewBox="0 0 28 23" style="enable-background:new 0 0 28 23" xml:space="preserve"><style type="text/css">.st0{fill:#DFE7EB;} .st1{fill:#97A0A6;} .st2{fill:#0682B7;}</style><path id="Shape_1774_copy_4" class="st0" d="M26.7,16H17v-1c-0.2-0.5-0.5-0.8-1-1h-4c-0.5,0.2-0.8,0.5-1,1v1H1.3
	c-0.6,0-1.2-0.4-1.3-1c0,0,0,0,0,0V5c0-0.6,0.4-1,1-1h26c0.6,0,1,0.4,1,1c0,0.1,0-0.1,0,0v10C27.9,15.6,27.4,16,26.7,16L26.7,16z"/><path class="st1" d="M20,3l0-0.7C20,1.1,19,0,17.8,0c0,0,0,0,0,0h-7.5C9,0,8,1,8,2.2c0,0,0,0,0,0c0,0,0,0,0,0.1L8,3H2
	C0.8,3.1-0.1,4.1,0,5.3c0,0,0,0,0,0c0,0,0,0.1,0,0.2v15.3C0,21.9,0.9,23,2.2,23c0,0,0,0,0,0h23.6c1.2,0,2.3-1,2.3-2.3c0,0,0,0,0-0.1
	V5.4C28,4.2,27.3,3,26.1,3c0,0,0,0,0,0C26.1,3,20,3,20,3z M9,1.8C9,1.4,9.4,1.1,9.8,1c0,0,8.2,0,8.2,0c0.6,0,0.9,0.2,0.9,0.8
	c0,0,0,1.2,0,1.2H9V1.8z M26,22H2c-0.5,0-1-0.4-1-0.9c0,0,0-0.1,0-0.1c0,0,0,0,0,0v-5c0.3,0.1,0.7,0.1,1,0h9v1c0,0.5,0.3,1,0.8,1
	c0.1,0,0.1,0,0.2,0h4c0.5,0,1-0.4,1-0.9c0,0,0-0.1,0-0.1v-1h9c0.3,0,0.7,0,1,0v5c0,0.5-0.4,1-0.9,1C26.1,22,26,22,26,22L26,22z
	 M25.7,15H17v-1c-0.2-0.5-0.5-0.8-1-1h-4c-0.5,0.2-0.8,0.5-1,1v1H2.3c-0.6,0-1.2-0.4-1.3-1c0,0,0,0,0,0V5c0-0.6,0.4-1,1-1h24
	c0.6,0,1,0.4,1,1c0,0.1,0-0.1,0,0v9C26.9,14.6,26.4,15,25.7,15L25.7,15z"/><path id="Shape_1774_copy_3" class="st2" d="M11,18l0-6l6,0v6H11z"/></svg>