<svg version="1.1" id="funfact" xmlns="http://www.w3.org/2000/svg" xmlns:xlink="http://www.w3.org/1999/xlink" x="0px" y="0px" viewBox="0 0 34.5 25.5" style="enable-background:new 0 0 34.5 25.5" xml:space="preserve"><style type="text/css">.st0{fill:#97A0A6;} .st1{fill:#D9EBF4;} .st2{fill:#FFFFFF;} .st3{fill:#0682B7;}</style><path class="st0" d="M12.2,0l4,7.4L24.5,9l-5.7,6.2l1,8.4l-7.6-3.6l-7.6,3.6l1-8.4L0,9l8.2-1.6L12.2,0"/><path class="st1" d="M12.2,2.4l3.3,6l6.7,1.3l-4.6,5l0.8,6.8l-6.2-2.9L6,21.5l0.8-6.8l-4.6-5l6.7-1.3L12.2,2.4"/><path id="Shape_1784_copy" class="st2" d="M23.7,5.5l3.6,6.3l7.3,1.3l-5,5.2l0.9,7.1l-6.7-3l-6.7,3l0.9-7.1l-5.1-5.2l7.3-1.3
	L23.7,5.5"/><path id="Shape_1784_copy_2" class="st3" d="M23.7,9l2.7,4.4l5.5,1L28,18l0.7,5l-5-2.1l-5,2.1l0.7-5l-3.8-3.7l5.5-1L23.7,9"/></svg>