<svg id="gigs" xmlns="http://www.w3.org/2000/svg" width="26" height="20" viewBox="0 0 26 20"><defs><style>.cls-1 { fill: #6cc0e5; } .cls-1, .cls-2 { fill-rule: evenodd; } .cls-2 { fill: #0682b7; }</style></defs><path class="cls-1" d="M85.994,3015.22c-0.094.53-.185,1.06-0.28,1.59-0.314,1.74-.625,3.48-0.949,5.21a0.823,0.823,0,0,1-.214.42c-1.272,1.18-2.556,2.36-3.864,3.56a3.5,3.5,0,0,1-.265-0.23c-1.079-1.08-2.15-2.18-3.237-3.26a0.474,0.474,0,0,1-.1-0.68c1.265-2.22,2.509-4.44,3.769-6.66a0.355,0.355,0,0,1,.286-0.17c1.583,0.05,3.165.12,4.747,0.18C85.9,3015.18,85.92,3015.2,85.994,3015.22ZM83.462,3013c0.5,0.64.99,1.29,1.539,2-1.37-.06-2.675-0.12-3.98-0.18L81,3014.73C81.81,3014.16,82.617,3013.59,83.462,3013Z" transform="translate(-69 -3011)"/><path id="Shape_1787_copy_2" data-name="Shape 1787 copy 2" class="cls-2" d="M79.995,3014H75l-0.163-.36L74,3011Z" transform="translate(-69 -3011)"/><path id="Shape_1787_copy" data-name="Shape 1787 copy" class="cls-2" d="M76.176,3022.01c-2.412-2.67-4.79-5.3-7.168-7.93l0.025-.09c3.62,0.19,7.24.38,10.953,0.58C78.73,3017.07,77.462,3019.51,76.176,3022.01Zm0.816,0.98c0.426,0.45.806,0.85,1.185,1.24,0.574,0.61,1.144,1.21,1.724,1.81,0.125,0.13.155,0.23,0.013,0.36q-2.389,2.28-4.773,4.56a0.169,0.169,0,0,1-.145.03C75.656,3028.35,76.315,3025.71,76.993,3022.99ZM84,3011H95s-6.44,2.42-9.037,2.98A23.927,23.927,0,0,1,84,3011Z" transform="translate(-69 -3011)"/></svg>