<svg id="hobbies" xmlns="http://www.w3.org/2000/svg" width="25.5" height="26" viewBox="0 0 25.5 26"><defs><style>.cls-1 { fill: #0682b7; } .cls-1, .cls-2 { fill-rule: evenodd; } .cls-2 { fill: #d9ebf4; stroke: #97a0a6; stroke-width: 1px; }</style></defs><path class="cls-1" d="M61.247,4385.25a4.244,4.244,0,0,0,0,6.01l5.743,5.74,5.743-5.74a4.252,4.252,0,0,0-5.744-6.26A4.271,4.271,0,0,0,61.247,4385.25Z" transform="translate(-60 -4376.5)"/><path id="Shape_1797_copy" data-name="Shape 1797 copy" class="cls-2" d="M82.609,4386.35a9.413,9.413,0,0,0-9.324-9.35,9.3,9.3,0,0,0-8.276,5.11,5.769,5.769,0,0,1,2.87.77A6.726,6.726,0,0,1,71,4382a5.54,5.54,0,0,1,4.022,1.89A5.892,5.892,0,0,1,77,4388a6.776,6.776,0,0,1-1.978,4.49l-6.125,6.23-1.018,1.04L67,4399v3H78v-4h5v-5h2Z" transform="translate(-60 -4376.5)"/></svg>