<svg id="kyc-icon" xmlns="http://www.w3.org/2000/svg" width="432" height="315.031" viewBox="0 0 432 315.031"><defs><style>.cls-1 { fill: #e6edf6; opacity: 0.56; } .cls-1, .cls-2, .cls-4, .cls-6, .cls-7, .cls-8 { fill-rule: evenodd; } .cls-2 { fill: #1faff1; opacity: 0.4; } .cls-3 { fill: #fff; } .cls-3, .cls-5 { stroke: #d1d3db; stroke-width: 2px; } .cls-4 { fill: #e0eaf5; } .cls-5 { fill: #f8fafa; } .cls-6 { opacity: 0.11; } .cls-7 { fill: #dddfdf; } .cls-8 { fill: #c0e2f2; }</style></defs><path id="Rounded_Rectangle_2_copy_5" data-name="Rounded Rectangle 2 copy 5" class="cls-1" d="M178.6,6.853L356.958,54.63a54.706,54.706,0,0,1-28.325,105.682L150.276,112.534A54.706,54.706,0,0,1,178.6,6.853Zm40.544,99.592L397.5,154.221a54.686,54.686,0,0,1-28.315,105.644L190.83,212.089A54.687,54.687,0,0,1,219.146,106.445ZM74.821,164.708l178.352,47.775a54.687,54.687,0,0,1-28.315,105.645L46.506,270.352A54.686,54.686,0,0,1,74.821,164.708Z" transform="translate(-6 -4.969)"/><path id="plus" class="cls-2" d="M124.438,56.625a2.062,2.062,0,0,1,2.062,2.063V71.875a2.063,2.063,0,1,1-4.125,0V58.688A2.062,2.062,0,0,1,124.438,56.625Zm-6.595,6.594h13.22a2.062,2.062,0,0,1,2.062,2.062h0a2.062,2.062,0,0,1-2.062,2.062h-13.22a2.062,2.062,0,0,1-2.062-2.062h0A2.062,2.062,0,0,1,117.843,63.219ZM388.031,193a1.282,1.282,0,0,1,1.282,1.281v8.188a1.282,1.282,0,0,1-2.563,0v-8.188A1.282,1.282,0,0,1,388.031,193Zm-4.093,4.094h8.187a1.281,1.281,0,0,1,0,2.562h-8.187A1.281,1.281,0,1,1,383.938,197.094Zm-19.047,52a1.078,1.078,0,0,1,1.078,1.078v6.906a1.078,1.078,0,0,1-2.156,0v-6.906A1.077,1.077,0,0,1,364.891,249.094Zm-3.469,3.469h6.937a1.078,1.078,0,1,1,0,2.156h-6.937A1.078,1.078,0,0,1,361.422,252.563Z" transform="translate(-6 -4.969)"/><path id="circle" class="cls-2" d="M373.75,81.375a4.938,4.938,0,1,1-4.969,4.938A4.954,4.954,0,0,1,373.75,81.375ZM117.422,268.281a4.125,4.125,0,1,1-4.141,4.125A4.133,4.133,0,0,1,117.422,268.281ZM348.141,76.406a2.484,2.484,0,1,1-2.485,2.484A2.484,2.484,0,0,1,348.141,76.406Zm19-19.781a3.3,3.3,0,1,1-3.3,3.3A3.3,3.3,0,0,1,367.141,56.625ZM76.688,246.844a2.469,2.469,0,1,1-2.469,2.469A2.469,2.469,0,0,1,76.688,246.844Zm29.171,41.219a2.469,2.469,0,1,1-2.484,2.468A2.477,2.477,0,0,1,105.859,288.063ZM85.953,36.719A2.484,2.484,0,1,1,83.469,39.2,2.484,2.484,0,0,1,85.953,36.719Zm4.953,45.375a2.469,2.469,0,1,1-2.469,2.469A2.469,2.469,0,0,1,90.906,82.094Z" transform="translate(-6 -4.969)"/><rect id="Rounded_Rectangle_1743_copy" data-name="Rounded Rectangle 1743 copy" class="cls-3" x="88" y="90.031" width="264" height="163" rx="4" ry="4"/><path id="Rounded_Rectangle_1743_copy_2" data-name="Rounded Rectangle 1743 copy 2" class="cls-4" d="M104.583,101.673H356V256H100.583V105.673A4,4,0,0,1,104.583,101.673Z" transform="translate(-6 -4.969)"/><rect id="Rounded_Rectangle_1743_copy_3" data-name="Rounded Rectangle 1743 copy 3" class="cls-5" x="107" y="109.031" width="224" height="130" rx="4" ry="4"/><path class="cls-6" d="M204.649,193.644H147.787c-0.6-10.73,6.448-19.293,16.65-20.261a7.567,7.567,0,0,1,3.331,1.041c5.769,2.514,11.475,2.843,17.128-.329a5.988,5.988,0,0,1,2.121-1.055C196.234,172.359,206.286,183.937,204.649,193.644Zm-14.267-44.152a23.9,23.9,0,0,0-.054-3.944c-0.848-6.248-4.606-10.178-10.161-10.828-0.562-.066-1.109-0.117-1.644-0.159-0.773-.07-1.59-0.1-2.44-0.094s-1.668.024-2.44,0.094c-0.536.042-1.082,0.093-1.644,0.159-5.556.65-9.313,4.58-10.161,10.828a23.885,23.885,0,0,0-.054,3.943,24.926,24.926,0,0,0,5.814,17.567c0.1,0.147.192,0.3,0.3,0.443a9.93,9.93,0,0,0,16.372,0c0.107-.147.195-0.3,0.3-0.443A24.924,24.924,0,0,0,190.382,149.492Z" transform="translate(-6 -4.969)"/><path id="Rounded_Rectangle_1744_copy_3" data-name="Rounded Rectangle 1744 copy 3" class="cls-7" d="M235.156,134.469h77.563a4,4,0,0,1,4,4v2.969a4,4,0,0,1-4,4H235.156a4,4,0,0,1-4-4v-2.969A4,4,0,0,1,235.156,134.469Zm0,24.094h77.563a4,4,0,0,1,4,4v2.968a4,4,0,0,1-4,4H235.156a4,4,0,0,1-4-4v-2.968A4,4,0,0,1,235.156,158.563Zm0,26.312h77.563a4,4,0,0,1,4,4v2.969a4,4,0,0,1-4,4H235.156a4,4,0,0,1-4-4v-2.969A4,4,0,0,1,235.156,184.875Zm-95.468,28.5H312.719a4,4,0,0,1,4,4v2.969a4,4,0,0,1-4,4H139.688a4,4,0,0,1-4-4v-2.969A4,4,0,0,1,139.688,213.375Z" transform="translate(-6 -4.969)"/><path class="cls-4" d="M113,211h2v13h-2V211Zm8-97h19v2H121v-2Zm214,48h2v13h-2V162Zm21,72h2v13h-2V234Z" transform="translate(-6 -4.969)"/><path class="cls-8" d="M271.577,288.978c-0.253.138-.425,0.285-0.642,0.423-0.95.617-1.945,1.188-2.931,1.731-0.887.469-1.764,0.929-2.687,1.362-0.877.4-1.727,0.828-2.65,1.187a52.334,52.334,0,0,1-5.97,2.015c-0.633.148-1.3,0.286-1.945,0.433-1.836.432-3.745,0.791-5.762,1.077-0.742.11-1.511,0.221-2.325,0.285a79.253,79.253,0,0,1-8.621.506c-34.283,0-48.8-12.289-53.288-23.4-8.44-15.028-32.175-48.643-32.242-48.636-6.992-13.855,1.67-21.84,11.916-19.438,7.951,1.868,16.671,15.562,27.662,30.011A74.4,74.4,0,0,1,198,245h95l-0.012,14.1S292.88,274.594,271.577,288.978Zm6.178-175.41h-1.3a11.7,11.7,0,0,1-11.6-11.789V80.829A11.711,11.711,0,0,1,276.453,69h1.266a11.712,11.712,0,0,1,11.6,11.826l0.027,20.913A11.7,11.7,0,0,1,277.755,113.568Zm-28.937,0h-1.312a11.718,11.718,0,0,1-11.587-11.789V80.829A11.7,11.7,0,0,1,247.506,69h1.312a11.727,11.727,0,0,1,11.588,11.826v20.95A11.7,11.7,0,0,1,248.818,113.568Zm-28.974,0h-1.275a11.7,11.7,0,0,1-11.587-11.789V80.829A11.7,11.7,0,0,1,218.569,69h1.275a11.7,11.7,0,0,1,11.588,11.826v20.913A11.681,11.681,0,0,1,219.844,113.568Zm-28.937,0h-1.275a11.727,11.727,0,0,1-11.588-11.826V80.792A11.688,11.688,0,0,1,189.6,69h1.311A11.7,11.7,0,0,1,202.5,80.792v20.987A11.7,11.7,0,0,1,190.907,113.568Z" transform="translate(-6 -4.969)"/></svg>