<svg id="leadership" xmlns="http://www.w3.org/2000/svg" width="37" height="22" viewBox="0 0 37 22"><defs><style>.cls-1 { fill: #97a0a6; } .cls-1, .cls-2 { fill-rule: evenodd; } .cls-2 { fill: #d9ebf4; stroke: #0682b7; stroke-width: 1px; }</style></defs><path class="cls-1" d="M86.724,3905.77v2.87a2.048,2.048,0,0,0,.574,1.42v0.97a0.748,0.748,0,1,0,1.5,0v-1.32a0.742,0.742,0,0,0-.332-0.62,0.541,0.541,0,0,1-.242-0.45v-2.87a1.825,1.825,0,0,1,1.813-1.83h0.612a1.824,1.824,0,0,1,1.813,1.83v2.87a0.541,0.541,0,0,1-.241.45,0.723,0.723,0,0,0-.332.62v2.76a0.9,0.9,0,0,0,.491.8,21.4,21.4,0,0,1,3.9,2.52,0.624,0.624,0,0,1,.226.49v1.21H91.263a0.755,0.755,0,0,0,0,1.51h5.989a0.752,0.752,0,0,0,.748-0.76v-1.96a2.129,2.129,0,0,0-.778-1.66,24.118,24.118,0,0,0-3.844-2.54v-2.03a2.048,2.048,0,0,0,.574-1.42v-2.87a3.331,3.331,0,0,0-3.308-3.34H90.032a3.34,3.34,0,0,0-3.308,3.35h0Zm0,0M61.748,3919h6.08a0.755,0.755,0,0,0,0-1.51H62.5v-1.21a0.639,0.639,0,0,1,.226-0.49,20.565,20.565,0,0,1,3.905-2.52,0.89,0.89,0,0,0,.491-0.8v-2.76a0.742,0.742,0,0,0-.332-0.62,0.541,0.541,0,0,1-.242-0.45v-2.87a1.824,1.824,0,0,1,1.813-1.83h0.611a1.825,1.825,0,0,1,1.813,1.83v2.87a0.541,0.541,0,0,1-.242.45,0.724,0.724,0,0,0-.332.62v1.39a0.748,0.748,0,1,0,1.5,0v-1.04a2.049,2.049,0,0,0,.574-1.42v-2.87a3.325,3.325,0,0,0-3.308-3.34H68.356a3.327,3.327,0,0,0-3.308,3.34v2.87a2.049,2.049,0,0,0,.574,1.42v2.03a23.118,23.118,0,0,0-3.845,2.54,2.153,2.153,0,0,0-.778,1.66v1.95a0.752,0.752,0,0,0,.748.76h0Zm0,0" transform="translate(-61 -3897.5)"/><path id="Shape_1798_copy" data-name="Shape 1798 copy" class="cls-2" d="M83.99,3905.8v-3.7a4.079,4.079,0,0,0-4.063-4.1H79.133a4.079,4.079,0,0,0-4.063,4.1v3.7a2.426,2.426,0,0,0,.74,1.75v2.86a29.485,29.485,0,0,0-5.06,3.32,2.539,2.539,0,0,0-.921,1.97v2.54a0.752,0.752,0,0,0,.748.76h17.9a0.752,0.752,0,0,0,.748-0.76v-2.54a2.539,2.539,0,0,0-.922-1.97,30.126,30.126,0,0,0-5.06-3.32v-2.86a2.386,2.386,0,0,0,.747-1.75h0Zm3.368,9.09" transform="translate(-61 -3897.5)"/></svg>