<svg xmlns="http://www.w3.org/2000/svg" width="13" height="19"><path d="M12.7 4.736a5.931 5.931 0 0 0-.3-.76A6.341 6.341 0 0 0 6.419.007 6.368 6.368 0 0 0 .007 5.9v.812c0 .034.012.338.028.49.235 1.891 1.717 3.9 2.824 5.793 1.191 2.027 2.427 4.02 3.651 6.013.755-1.3 1.507-2.618 2.245-3.884.2-.372.435-.743.636-1.1.134-.236.39-.472.508-.692 1.191-2.2 3.108-4.408 3.108-6.586v-.9a6.754 6.754 0 0 0-.307-1.11zM6.471 8.807a2.308 2.308 0 0 1-2.209-1.588 2.218 2.218 0 0 1-.062-.591V6.1a2.19 2.19 0 0 1 2.343-2.158 2.384 2.384 0 0 1 2.38 2.432 2.445 2.445 0 0 1-2.452 2.433z" fill="#bfbfbf" fill-rule="evenodd"/></svg>