<svg xmlns="http://www.w3.org/2000/svg" width="523" height="381.938"><path data-name="Rounded Rectangle 2 copy 5" d="M520.731 262.122a66.182 66.182 0 0 1-81.045 46.9l-100.522-26.966a66.3 66.3 0 0 1-74.2 97.612L49.039 321.74a66.3 66.3 0 0 1 34.28-128.094l100.521 26.969a66.38 66.38 0 0 1 14.124-83.98l-23.3-6.249A66.325 66.325 0 0 1 208.96 2.247l215.927 57.93a66.369 66.369 0 0 1 25.8 114.509l23.279 6.245a66.282 66.282 0 0 1 46.765 81.191z" fill-rule="evenodd" fill="#e6edf6" opacity=".4"/><path data-name="Shape 784 copy" d="M425 208.436c-.469 2.091-.774 4.236-1.438 6.265-2.693 8.224-7.8 14.64-16.276 16.849-7.268 1.893-14.766 1.675-20.308-4.928a10.9 10.9 0 0 1-1.047-1.911l-1.118.575v31.683H368.7l-.067-78.677H384.6v7.429s1.717-1.456 2.252-1.938a19.287 19.287 0 0 1 18.168-4.784c11.332 2.556 16.938 10.231 19.336 20.941.152.678.425 1.329.642 1.992v6.5zm-16.688-2.647c0-.812.028-1.626 0-2.437-.207-5.244-3.654-9.265-9.458-11.051-3.456-1.064-8.674 1-11.39 4.264-2.852 3.423-3.132 7.437-2.664 11.485a12.046 12.046 0 0 0 8.54 10.343 11.848 11.848 0 0 0 14.972-12.604zm-66.758 19.25c-3.14 2.174-5.688 4.922-8.8 5.921-13.091 4.206-24.428-.865-27.615-14.451a20.544 20.544 0 0 1-.474-4.559c-.054-9.549-.052-32.443-.052-32.443l15.571-.016s.253 21.7.408 30.439a8.871 8.871 0 0 0 7.663 8.6c6.951 1.164 12.863-2.23 12.816-9.2-.042-6.2.339-12.4.458-18.6.075-3.965.014-7.934.014-12.387 4.974 0 15.705.08 15.705.08v53.626h-15.7v-7.01" fill="#f9ce2a" fill-rule="evenodd"/><path d="M76 178.628l5.33-.021.141-5.317.012-11.816h15.556v11.72l.031 5.5h10.63v12.936l-10.686-.009s.047 16.4.033 23.441c0 2.5 1.233 3.951 3.684 4.119 2.239.153 4.5.032 6.958.032v12.636c-6.534 2.549-19.064.06-22.924-5.227a17.625 17.625 0 0 1-3.09-8.937c-.444-7.646-.159-28.3-.159-28.3h-5.39zm161.44 53.75c-6.905 0-13.041.083-19.169-.089-.928-.026-2.029-1.071-2.7-1.92-4.616-5.862-9.13-11.8-13.706-17.7a17.511 17.511 0 0 0-2.109-1.821v20.825h-15.6v-70.156h15.419v39.918a30.846 30.846 0 0 0 2.815-2.845c4.286-5.888 8.554-11.79 12.745-17.745a4.485 4.485 0 0 1 4.213-2.2c5.776.145 11.558.052 18.05.052-1.405 1.86-2.444 3.334-3.582 4.727q-8.7 10.645-17.472 21.237c-.928 1.115-1.051 1.944-.09 3.044q8.976 10.264 17.896 20.578c.982 1.133 1.882 2.336 3.29 4.095zm-81.57.051V224.4c-2.057 1.716-3.634 3.059-5.241 4.367-6.806 5.542-17.631 4.591-24.65-.986-14.418-11.458-12.394-33.471-1.558-43.187 7.374-6.612 18.438-7.917 26.547-2.682a53.867 53.867 0 0 1 4.806 4.022v-7.065h15.6c.053 1.095.141 2.061.142 3.027.007 15.8-.053 31.6.06 47.4.018 2.535-.757 3.285-3.217 3.179-4.039-.173-8.087-.046-12.489-.046zm-12.233-13.56c7.609.02 12.242-4.993 12.268-13.273.026-8.041-4.754-13.492-11.873-13.542-7.361-.052-12.235 5.292-12.253 13.435-.019 8.243 4.514 13.357 11.858 13.38zm147.547-3.5a23.185 23.185 0 0 1-15.77 15.562c-8.608 2.729-17.132 2.229-24.828-3.233a22.855 22.855 0 0 1-8.106-9.578c-3.728-8.675-3.823-17.5.275-25.95 3.905-8.046 10.908-12.4 19.747-13.345 6.772-.721 13.287.352 19.2 4.186 7.343 4.761 10.859 11.608 11.264 20.122.145 3.059.005 7.305.005 7.305l-6.993.036H256.498c-.632 3.57 2.264 7.577 6.4 8.485 3.7.813 7.239.478 10.343-2.367.57-.522 1.442-1.211 1.442-1.211zm-14.865-14.556c.284-5.084-3.981-8.871-9.8-8.87-5.942 0-10.354 3.818-10.115 8.87h19.917zm28.347-2.415c0-9.549-.052-18.892-.052-18.892l15.571-.016s.253 10.319.408 19.056c0 11.238-15.927 11.174-15.927-.148m20.734-23.842l-13.014-13.587-13.279 13.537 5.45.067v3.234l15.685-.052-.011-3.195z" fill="#44596c" fill-rule="evenodd"/><path data-name="Shape 784 copy 2" d="M308.967 179.653l.905 2.89h5.066l.815-2.89h-6.786zm1 3.7l-1.81 13.279 4.207 3.975 4.116-3.885-1.538-13.369h-4.975m2.377-9.711a2.946 2.946 0 1 1 2.95-2.946 2.947 2.947 0 0 1-2.954 2.95z" fill="#fff" fill-rule="evenodd"/><path data-name="Shape 784 copy 3" d="M312.224 183.357h-2.261l-1.81 13.279 4.207 3.975-.136-17.254" fill="#dfe4e9" fill-rule="evenodd"/></svg>