<svg xmlns="http://www.w3.org/2000/svg" width="61" height="60" viewBox="0 0 61 60">
  <metadata><?xpacket begin="﻿" id="W5M0MpCehiHzreSzNTczkc9d"?>
<x:xmpmeta xmlns:x="adobe:ns:meta/" x:xmptk="Adobe XMP Core 5.6-c138 79.159824, 2016/09/14-01:09:01        ">
   <rdf:RDF xmlns:rdf="http://www.w3.org/1999/02/22-rdf-syntax-ns#">
      <rdf:Description rdf:about=""/>
   </rdf:RDF>
</x:xmpmeta>
                                                                                                    
                                                                                                    
                                                                                                    
                                                                                                    
                                                                                                    
                                                                                                    
                                                                                                    
                                                                                                    
                                                                                                    
                                                                                                    
                                                                                                    
                                                                                                    
                                                                                                    
                                                                                                    
                                                                                                    
                                                                                                    
                                                                                                    
                                                                                                    
                                                                                                    
                                                                                                    
                           
<?xpacket end="w"?></metadata>
<defs>
    <style>
      .cls-1 {
        fill: #fb5f66;
        fill-rule: evenodd;
      }
    </style>
  </defs>
  <path id="outgrow" class="cls-1" d="M87.376,193a4.127,4.127,0,0,1,1.93,1.451,3.2,3.2,0,0,1-2.253,4.894,24.267,24.267,0,0,0-11.145,4.7,23.928,23.928,0,0,0-7.028,8.6,21.2,21.2,0,0,0-2.006,6.324,30.088,30.088,0,0,0-.294,5.067,22.53,22.53,0,0,0,.584,4.131,21.476,21.476,0,0,0,2.114,5.691,25.415,25.415,0,0,0,3.316,4.743,23.783,23.783,0,0,0,8.156,5.954,19.838,19.838,0,0,0,5.74,1.7,30.1,30.1,0,0,0,4.236.372,23.993,23.993,0,0,0,9.132-1.911,24.829,24.829,0,0,0,6-3.633,23.979,23.979,0,0,0,5.469-6.523,24.436,24.436,0,0,0,2.4-5.848,19.682,19.682,0,0,0,.524-3.069,26.725,26.725,0,0,0,.2-3.284,21.362,21.362,0,0,0-.916-5.968c-0.31-1.02-.688-2.02-1.036-3.029l-0.177-.117a2.224,2.224,0,0,1-.278.454c-2.051,2.032-4.115,4.052-6.165,6.086-0.883.876-1.749,1.769-2.605,2.67a1.065,1.065,0,0,1-.856.359c-4.579-.013-9.157,0-13.736-0.015a0.991,0.991,0,0,0-.775.313q-3.606,3.626-7.231,7.234a3.54,3.54,0,0,1-2.932,1.158,3.225,3.225,0,0,1-2.874-2.8,3.583,3.583,0,0,1,1.262-3.064q4.555-4.494,9.126-8.973a1.138,1.138,0,0,1,.716-0.295q6.843-.027,13.687,0a1.047,1.047,0,0,0,.816-0.336c1.873-1.863,3.764-3.707,5.638-5.569q3.453-3.432,6.889-6.88c0.609-.609.966-0.574,1.411,0.175,1.217,2.055,2.5,4.077,3.6,6.19a25.477,25.477,0,0,1,2.412,7.338,24.681,24.681,0,0,1,.486,4.691,0.709,0.709,0,0,0,.1.244v1.466a0.544,0.544,0,0,0-.1.195,25.44,25.44,0,0,1-.7,5.718,27.592,27.592,0,0,1-2.258,6.4A31.052,31.052,0,0,1,114.3,241.7a31.658,31.658,0,0,1-4.277,4.346,29.84,29.84,0,0,1-5.537,3.639,28.866,28.866,0,0,1-6,2.307c-1.435.369-2.921,0.55-4.386,0.808-0.454.079-.913,0.133-1.37,0.2H88.268a0.711,0.711,0,0,0-.2-0.095c-1.031-.134-2.067-0.239-3.095-0.4a27.9,27.9,0,0,1-7.99-2.586,29.057,29.057,0,0,1-6.841-4.587,30.478,30.478,0,0,1-4.882-5.543,30.083,30.083,0,0,1-3.288-6.3,27.916,27.916,0,0,1-1.876-9.224,2.821,2.821,0,0,0-.1-0.489v-1.955c0.067-.645.112-1.293,0.2-1.935,0.192-1.328.333-2.671,0.633-3.977a28.968,28.968,0,0,1,2.531-6.806,30.22,30.22,0,0,1,9.795-11.1,28.258,28.258,0,0,1,5.814-3.094c1.5-.57,3.073-0.972,4.621-1.421,0.686-.2,1.393-0.329,2.091-0.491h1.686Z" transform="translate(-60 -193)"/>
</svg>
