<svg id="projects" xmlns="http://www.w3.org/2000/svg" width="30" height="31" viewBox="0 0 30 31"><defs><style>.cls-1 { fill: #fff; stroke: #97a0a6; stroke-width: 1px; } .cls-1, .cls-3, .cls-4, .cls-5 { fill-rule: evenodd; } .cls-2, .cls-5 { fill: #dfe7eb; } .cls-3 { fill: #0682b7; } .cls-4 { fill: #97a0a6; }</style></defs><path id="Shape_1777_copy" data-name="Shape 1777 copy" class="cls-1" d="M76,1980H62.011v30H82.989L83,1987H76v-7Z" transform="translate(-58 -1979.5)"/><rect class="cls-2" y="19.5" width="22" height="6"/><path class="cls-3" d="M78.806,1980m6.738,10H68.694l-3.684,2.5,3.684,2.5h16.85a2.5,2.5,0,0,0,0-5h0ZM68,1992v1l-1.219-.5Zm16,2H69v-3H84v3Zm1,0v-3c0.812,0,2.017.68,2.017,1.5a1.487,1.487,0,0,1-1.473,1.5H85Zm0.544,0M58,2006H81.007v-6.99H58V2006Zm0.959-5.99L60,2000v2h1v-2h1v2h1v-2h1v3h1v-3h1v2h1v-2h1v2h1v-2h1v3h1v-3h1v2h1v-2h1v2h1v-2h1v3h1v-3l3.049,0.01v5H58.959v-5Zm0,0" transform="translate(-58 -1979.5)"/><path id="Shape_1777_copy_4" data-name="Shape 1777 copy 4" class="cls-4" d="M64.992,1982.01h8.02v1h-8.02v-1Zm0,1.98h8.02v1h-8.02v-1Zm0,2.02h8.02v1h-8.02v-1Z" transform="translate(-58 -1979.5)"/><path id="Shape_1777_copy_3" data-name="Shape 1777 copy 3" class="cls-5" d="M84,1994H69v-3H84v3Z" transform="translate(-58 -1979.5)"/><path id="Shape_1777_copy_2" data-name="Shape 1777 copy 2" class="cls-5" d="M82.989,1985.08l-5-5.08h-1v6.01h5.994v-0.93Zm0,0" transform="translate(-58 -1979.5)"/></svg>