<svg id="resume" xmlns="http://www.w3.org/2000/svg" width="22" height="21" viewBox="0 0 22 21"><defs><style>.cls-1 { fill: #d9ebf4; } .cls-1, .cls-2, .cls-3 { fill-rule: evenodd; } .cls-2 { fill: #97a0a6; } .cls-3 { fill: #0682b7; }</style></defs><path id="Shape_1806_copy" data-name="Shape 1806 copy" class="cls-1" d="M64.007,4651.99v13.99H82v-13.99h-18Z" transform="translate(-62 -4650)"/><path class="cls-2" d="M84,4651.31v18.38a1.8,1.8,0,0,1-1.963,1.31q-9.058-.045-18.117,0A1.785,1.785,0,0,1,62,4669.69v-18.38a1.786,1.786,0,0,1,1.921-1.31q9.08,0.045,18.16,0A1.784,1.784,0,0,1,84,4651.31Zm-19.993.68v13.99H82v-13.99h-18ZM64,4669h2v1h1v-1H82v-1H67v-1H66v1H64v1Z" transform="translate(-62 -4650)"/><path id="Shape_1806_copy_2" data-name="Shape 1806 copy 2" class="cls-3" d="M70.988,4655l6,4.5-6,4.49V4655Z" transform="translate(-62 -4650)"/></svg>