<svg version="1.1" id="screen3" xmlns="http://www.w3.org/2000/svg" xmlns:xlink="http://www.w3.org/1999/xlink" x="0px" y="0px" viewBox="0 0 750 631" style="enable-background:new 0 0 750 631" xml:space="preserve"><style type="text/css">.st0{fill:#0196D6;} .st1{opacity:0.11;clip-path:url(#bg_copy_2_2_);fill:#FFFFFF;enable-background:new ;} .st2{fill:#FFFFFF;} .st3{font-family:&apos;OpenSans-Regular&apos;;} .st4{font-size:19.635px;} .st5{fill:#FFD15C;} .st6{fill:#F2F2F2;} .st7{fill:#84DBFF;} .st8{fill:#F8B64C;}</style><path id="bg_copy_2" class="st0" d="M0,0h750v554c0,0-184.2,77-368,77C190.9,631,0,554,0,554V0z"/><g><defs><path id="bg_copy_2_1_" d="M0,0h750v554c0,0-184.2,77-368,77C190.9,631,0,554,0,554V0z"/></defs><clipPath id="bg_copy_2_2_"><use xlink:href="#bg_copy_2_1_" style="overflow:visible"/></clipPath><path id="map" class="st1" d="M714.2,249.6c2.2,1.3,4.6,2.1,7.2,2.2c1.2,0.3,2.4-0.2,3-1.2c0.6-0.8,1.5-1.2,2.5-1.1
		c2.1-0.2,4.3-0.5,6.4-0.8c0.5-0.2,1-0.5,1.3-0.9c0.8-1.2,1.5-2.4-0.4-3.5c2.3-0.9,4.2-1.8,6.6-1.5c3.3,0.4,6.6,0.3,9.5-1.6
		c0.4-0.3,0.8-0.4,1.2-0.5c0.5-0.1,1.1-0.1,1.6,0c2.1,1,4.3,1.6,6.6,1.7c0.4,0.1,0.8,0.3,0.9,0.7c0,0.5-0.2,0.9-0.6,1.2
		c-1.4,0.5-2.9,0.9-4.4,1.1c-2.3,0.3-4.6,0.4-6.9,0.7c-0.8,0.2-1.5,0.5-2.2,1c4.3,2.4,8.9,0.4,13.5,1.3l-3.6,1.9
		c0.2,0.6,0.3,1.1,0.5,1.7c1.5-0.1,2.9-0.3,4.2-0.4c1.8-0.1,3.7-0.7,5.4-0.3c3.9,0.9,7.6,2.2,11.4,3.3c0.3,0.1,0.6,0.3,0.8,0.6
		c1.2,1.3,2.4,2.6,3.6,4c0.3,0.4,0.3,0.9,0.1,1.3c-0.9,1.2-0.6,2.1,0.4,2.9c1.2-0.3,1.7-2.1,3.4-1.2c1.3,0.4,2.4,1.4,2.9,2.6
		c-2.3-0.1-4.5,0.8-6.1,2.4c2.4,1.8,5.2,0.7,7.7,1.1c0.9,1.1,0.8,2.7-0.2,3.6c0,0-0.1,0.1-0.1,0.1c-0.7,0.7-1.7,1.5-1.7,2.2
		c-0.1,2.8-1.2,5.9,1.2,8.4c1.1,1.1,1.7,2.6,2.8,3.6c1.8,1.7,3.4,3.7,6.1,4.1c1.2,0.2,2.5,0.6,3.6,1c1,0.3,1.9,0.7,2.9,1.1
		c0.9-1.4,2.2-2.5,2.5-3.9c0.2-1.1,0.8-2.2,1.6-3c1.2-1.2,2.4-2.5,1.7-4.5c-0.3-0.8,0.2-1.3,1-1.6c1.6-0.8,3.1-1.6,4.6-2.5
		c0.7-0.5,1.5-0.6,2.3-0.2c0.8,0.3,1.7,0.3,2.5,0c1.9-0.8,3.7-1.9,5.6-2.8c1.2-0.6,2.7-0.9,2.6-2.7c2,0.1,3.8,0.3,5.6,0.4
		c1.1,0.2,2.2,0.2,3.3,0c1.6-0.4,3.2-1,4.8-1.6c0.4-0.1,0.8-0.3,1.1-0.6c0.4-1,0.7-2,1.2-3.5c-1.7,0.1-3.4,0.3-5,0.6
		c-1.1,0.4-2.3-0.2-2.7-1.2c0.8-0.6,1.7-1.1,2.6-1.5c1.9-0.5,3.8-0.8,5.6,0.4c0.9,0.5,1.9,0.9,2.9,1.2l0.3-0.5
		c-0.9-2.9-3.5-3.7-6.2-4.6c0.7-1.7,2.2-2.9,4-3.2c0.8-0.2,1.5-0.7,2-1.4c1.1-1.4,1.8-3.1,3-4.3c1.4-1.6,3.5-2.4,5.6-1.9
		c-0.1-2-1.2-2.7-5.1-2.9c0.3-1.6,1.3-2.9,2.7-3.7c3.2-1.7,6.7-2.9,10.3-3.6c1.9-0.4,1.9-0.5,1.4-2.6l-19.4,3.2l1.7-3.5
		c-2.5,0.6-4.7,1-6.9,1.6c-0.9,0.3-1.8,0.2-2.7-0.1c-1-0.3-2-0.4-3.1-0.3c-2.6,0.3-5.2,0.8-7.9,1.2c-0.1-0.3-0.2-0.5-0.2-0.8
		c1.5-0.8,3-1.4,4.5-2c1.3-0.3,2.6-0.4,4-0.4c2.2-0.1,4.5,0,6.7,0c-0.7-1.4-1.2-2.4-3-2.2c-4.2,0.4-8.3,0.6-12.5,0.9
		c-0.7,0.2-1.5-0.3-1.7-1c-0.2-0.5-0.6-0.8-1.1-0.9c-2.4,0-4.8,0.4-7,1.3c-1.7,0.8-3.6,1.1-5.4,0.7c-2.1-0.5-3.4,0.2-5,1.2
		c-0.7,0.5-1.4,0.7-2.2,0.8c-2.2,0.1-4.4,0-6.6-0.1c-1.2-0.1-2.5-0.4-3.6-0.9c-1.5-0.7-3-0.5-4.6-0.4l1,2.5c-0.8,0-1.6-0.2-2.3-0.4
		c-2.2-1.3-4-1.1-5.4,1.4c-0.3-0.6-0.6-1.2-0.9-1.8c-0.2-0.4-0.6-0.7-1-0.8c-2,0-4,0.1-6.1,0.2l-0.4,0.5l2.3,1.4l-0.3,0.3
		c-1.3-0.2-2.6-0.5-3.8-0.9c-1.9-0.9-4.1-0.3-5.4,1.3c-0.4,0.7-1.3,0.9-2,0.6c-0.7-0.3-1.4-0.4-2.1-0.3c-1.4,0.1-2.7,0.4-4,0.9
		c-2.4,1.1-4.2-0.1-6.3-0.7c0.1-1.4,0.9-1.8,2.2-1.7c3.4,0,6.7-1,9.6-2.7c-2,0.1-4,0.3-6,0.3c-1.6,0-3.4,0.9-4.7-0.9
		c-0.3-0.2-0.6-0.2-1-0.2c-1-0.1-2-0.1-2.9-0.1c-1.8,0-3.8-0.5-5.3,0.1c-2,0.9-3.5,0.3-5.3-0.1c-0.9-0.3-1.9-0.3-2.8,0.1
		c-1.8,0.9-3.8,1.1-5.7,0.7c-0.6-0.2-1.1-0.2-1.7-0.1c-1.6,0.4-3.2,0.9-4.8,1.4c-2.9,0.9-5.8,1.7-8.9,1.1c-2.3-0.3-4.6-0.5-6.8-0.5
		c1.5,2.5,1.5,2.5,3.8,3.2c2.5,0.7,4.8,1.7,7.6,0.7c1.7-0.4,3.4-0.6,5.1-0.6c2.7-0.3,5.3-0.6,8-0.9c0.3,0,0.6-0.1,0.9-0.1
		c0,0.1,0.1,0.2,0.1,0.4c-1.1,0.5-2.2,1-3.3,1.4c-2.6,1-5.4,1-8.1,1c-1.1,0.1-2.1,0.3-3.1,0.6c0,0.2,0,0.3,0,0.5l3.2,1.5l-2.4,1.3
		l1.2,1.9L714.2,249.6z M370.3,511.5c-1.5,1.8-2.9,3.6-4.4,5.4c-0.5,0.7-1,1.9-2.1,1.3c-1.3-0.7-2.5-1.7-3.4-2.9
		c-0.4-0.5,0.4-1.7,0.7-2.6c0.1-0.3,0.2-0.6,0.3-0.9c-2.1-2.8-5.3-2-8.2-2.4c0,1-0.2,1.9-0.4,2.8c-0.3,1,0.1,2.1,1,2.7
		c3.9,3.8,8.1,7.5,13.2,9.4c3.6,1.3,4.8,3.8,6.1,6.7c2.2,4.9,6.3,7.9,11.5,9.8c0.4-1.5,0.7-3,1.1-4.4c0.1-0.4,0.3-0.7,0.5-0.9
		c1.9-1.2,5.6-0.6,7.1,1.1c1.4,1.6,2.9,3.2,4.4,4.8c1.2,1.3,2.4,2.6,4.3,3.1c2.7,0.8,2.8,0.9,4.4-1.5c0.2-0.3,0.2-0.7,0-1.1
		c-1.3-1.8-2.5-3.8-5-4.6c-0.8-0.3-1.6-0.7-2.3-1.2c-0.3-0.2-0.6-0.4-0.8-0.8c-0.4-1.2-0.6-2.4-0.9-3.6l2.4-1
		c-3.4-3.2-6.7-6.4-10.9-8.4c-2.5-1.2-4.8-2.7-7.2-4.1C377.9,515.9,374.2,513.8,370.3,511.5z M318.6,488.9l-8-6.9
		c-1.8,1.9-3.6,3.9-5.5,5.7s-4.1,3.5-6.1,5.3c-2.3,2.1-3.9,4.5-4.1,7.6c0,0.2,0,0.4-0.1,0.6c-0.3,0.4-0.7,0.7-1.1,1
		c-1.6,0.5-2.8-0.3-4.1-1.5c-0.9,1-2.5,1.9-2.5,2.8c0,2.3-0.3,4.8,1.5,6.8c1.5,1.5,2.1,3.6,1.6,5.6c-0.1,0.5-0.1,1,0,1.6l4.5,2
		c0.8-0.6,1.3-1.6,1.8-1.5c3.3,0.3,7-0.9,9.3,2.6c0.1,0,0.3,0,0.4,0c0.6-2.1,1.4-4.2,1.9-6.3c0.6-2.4,1.7-4.2,4.3-4.9
		c0.8-0.1,1.3-0.9,1.1-1.7c0,0,0,0,0,0c-0.1-1.4-0.2-2.7,0.9-3.9c0.2-0.5,0.2-1,0-1.4c-0.3-0.7-0.7-1.3-1.1-2
		c-1.9-3.4-1.5-5.7,1.5-8.2c0.3-0.2,0.5-0.4,0.8-0.6C316.7,490.6,317.8,489.6,318.6,488.9z M373.1,352.3c-0.4,1.5-0.7,2.7-0.9,3.8
		c-0.7,3.5-2.1,6.9-0.6,10.4c1.4,2.8,0.9,6.1-1.3,8.4c-0.5,0.7-1.2,1.2-1.9,1.4c-2.2,0.2-4.1,1.6-4.9,3.7c-0.1,0.2-0.2,0.3-0.3,0.5
		c-0.5,1.2-1.5,1.4-2.7,1.3c-3-0.3-5.9-0.3-8.5,1.7c-1.6,1.3-2.1,3-2.9,4.6c0,0.2,0,0.5,0.1,0.6c1.3,2,2.5,3.9,3.9,5.9
		c0.8-0.6,1.4-1.2,2.2-1.7c0.4-0.3,0.8-0.4,1.3-0.5c4.4-0.3,8.3-1.4,10.8-5.2c0-0.1,0.1-0.2,0.2-0.2c0.5-0.2,1-0.4,1.5-0.4
		c1.6,0.3,3.1,0.8,4.7,1.1c0.5,0.1,1-0.1,1.3-0.4c1.8-2.1,2.8-4.8,2.8-7.5c-0.1-4.4,0-8.7-1.8-12.8c-0.5-1.3-0.8-2.6-1.1-4
		c3.1,1.2,6.7,0.5,9.2-1.6L373.1,352.3z M-54.4,324.3c2.6-1.3,4.7-2.6,6.2-4.7c1.1-1.4,2.3-2.8,3.6-4.1c0.2-0.4,0.6-0.6,1-0.8
		c2.2-0.3,4.4-0.5,6.9-0.8c-0.6,1.5-1.3,2.9-2.1,4.2c-1.1,1.1-1.7,2.6-1.8,4.2c-0.1,1.9-0.3,3.7-0.6,5.8c0.5-0.2,0.9-0.3,1.4-0.5
		c3.4-1.8,7.1-2.7,10.9-2.7c2.6,0,5.5-0.9,6.5-4.1c0.3-1,0.3-1.4-0.7-1.9c-1.9-0.8-3.6-2.2-4.6-4c-1.6-2.9-3.7-5.5-6-7.8
		c-0.2-0.4-0.3-0.8-0.1-1.2c0.4-1,1-2,1.6-3.1c-0.8-0.3-1.5-0.5-2.2-0.8c-2.2-0.8-2.1-0.7-1.9-2.9c0-0.3,0-0.6-0.1-0.9
		c-1.3,0.5-2.5,0.8-3.7,1.3c-0.3,0.1-0.6,0.4-0.7,0.6c-0.6,1.8-1.6,3.6-0.3,5.5c0.4,0.7,0.7,1.4,0.9,2.2c0.2,0.9,0.3,1.9,0.4,3.2
		c-4.2-0.7-8.5,0-12.3,1.8c-0.1,0.1-0.3,0.1-0.4,0.2c-2,0.3-2.9,1.4-2.7,3.4c-0.1,0.7-0.3,1.4-0.5,2c-0.2,0.4-0.2,0.8-0.2,1.2
		C-55.5,321.1-54.9,322.6-54.4,324.3L-54.4,324.3z M275.7,528.6c0.8-0.6,1.4-1.1,2.1-1.6c0.7-0.3,1-1.2,0.7-1.9
		c-0.7-1.8-0.4-3.8,0.6-5.4c0.4-0.8,0.8-1.7,1.2-2.6c0.5-0.8,0.3-2-0.6-2.5c-0.2-0.1-0.5-0.2-0.8-0.3c-1.3-0.3-2.6-0.6-3.8-1
		c-1.9-0.6-3.4-1.4-3.8-3.6c-0.3-1.6-0.4-3.5-2.7-3.9c-0.3-0.2-0.5-0.4-0.7-0.7c-1.9-2.1-4-4.1-5.8-6.2c-2.2-2.6-4.7-5-5-8.6
		c-0.1-0.4-0.3-0.7-0.7-0.9c-2.4-0.9-4.8-1.7-7.2-2.4c-0.4,0.1-0.7,0.3-0.9,0.6c0.4,1.6,0.9,3,1.7,4.5c1.1,1.7,2.7,3.1,3.9,4.8
		c3.6,5.1,5.5,11,7.9,16.6c1.4,3.4,3.1,6.3,6.2,8.5C270.5,524,273,526.3,275.7,528.6z M651.7,262c5.1,0.5,9.3,1.8,12.2,3.7l-7.1,2
		c2.3,1,4.2,2.3,6.2,2.6c2.4,0.3,4.9,0.2,7.3-0.4c3.6-0.8,7.2-1.5,10.8-0.5c0.4,0.1,0.8,0,1.1-0.1c1.6-0.8,3.2-1.6,5.1-2.6
		c-2.8-0.7-5.3-2.2-7.2-4.4c-1.1-1.3-2.1-2.6-3.1-3.9c-0.2-0.3-0.6-0.6-1-0.6c-0.9,0.1-1.8,0.3-2.6,0.5c0.4,1.5,0.8,2.8,1.2,4.3
		c-0.4-0.2-0.8-0.4-1.2-0.6c-1.8-1.1-3.9-1.7-6-1.6c-1.8-0.1-3.7-0.4-5.4-1c-3-0.9-6-2-9.1-2.9c-0.6-0.2-1.3-0.2-2,0
		c-1.4,0.6-3.1,0.5-4.4-0.3c-2.5-1.6-4.9-0.3-7.5,0l1.9,2.2l-4.8,2.9c2.1,0.8,4,1.6,5.8,2.2c0.7,0.2,1.4,0.2,2-0.1
		c2.9-1.1,5.8-2.2,8.7-3.4c0,0.1,0.1,0.2,0.1,0.3L651.7,262z M263.9,483.6c0.3-3.8-1.3-7.5-4.2-10c-2.8,2.6-2.5,5.4-1.1,8.4
		c1.5,3,2.7,6.1,3.7,9.2c1.2,3.7,3.3,7.1,6.1,9.8c2,2.1,4.3,1.8,6.7,2c0-0.1,0-0.3,0-0.4c-0.2-0.3-0.3-0.7-0.5-1
		c-1.6-2.5-2.2-5.5-1.8-8.4c0.3-1.6,0.4-3.2-0.9-4.5c-0.7-0.7-1.5-1.3-2.3-1.9c-0.7-0.4-1.3-1-1.8-1.6c-0.5-1.1-1.7-1.8-2.9-1.5
		C264.5,483.7,264.2,483.6,263.9,483.6z M871,281.3c-2.1-1.6-4.2-3.2-6.2-4.8c-0.6-0.6-1.5-0.6-2,0c0,0,0,0,0,0
		c-1.8,1.3-3.7,2.5-5.7,3.8c-0.5-1.1-0.8-2-1.3-3.2c-5,3.5-10.8,2.6-16.3,3.4c0.1,0.2,0.3,0.3,0.5,0.3c3.8,0.5,7.3,2.4,9.9,5.3
		c1.6,1.6,3.8,2.3,5.9,2C861.4,287.6,866.8,285.2,871,281.3z M319.7,503.1c-0.4,1.4-0.9,3.3-1.4,5.2c-0.5,2.1-0.6,4.4-1.4,6.3
		c-0.8,1.7-0.8,3.7,0.1,5.4c0.7,1.3,1.2,2.8,1.4,4.3c0.2,1.9,0.5,2.6,2.6,3.5c0-3.3-0.4-6.6,1-9.8l5.6,8.7c1-2.7,0.7-5.7-0.9-8.1
		c-0.3-0.5-0.4-1.2-0.8-1.7c-0.7-0.7-0.7-1.9,0.1-2.6c0.1-0.1,0.2-0.2,0.4-0.3c1.4-0.9,1.8-2.7,1-4.1l-4.9,0.9l-0.9-3
		c3.1-0.3,6.1-0.7,9-1c0.4,0,0.8-0.2,1.2-0.5c1.1-1,2.2-2,3.4-3l-2-2c-0.8,0.7-1.5,1.2-2.2,1.9c-0.7,0.7-1.7,1-2.6,0.8
		C325.5,503.7,322.8,503.5,319.7,503.1z M123,247.8c0.5,0.6,0.9,1.2,1.3,1.9c1.7,3.3,4.8,5.7,8.5,6.3c0.6,0.1,1.3,0.1,2,0.1
		c0-0.6,0-1.2-0.1-1.8c-0.7-2.4-1.5-4.8-2.3-7.2c6.6-3.2,12.9-6.9,18.9-11.1c-1.2-0.1-1.9-0.1-2.7-0.2c-2.7-0.5-5.5,0-7.9,1.3
		c-1.6,0.9-3.2,1.6-4.9,2.2C130.7,241.2,127.2,244.9,123,247.8L123,247.8z M277.1,530.8c1.8,1,3.4,2.3,5.3,2.9
		c8.2,2.7,16.7,4.1,25.1,6c4.8,1.1,8.7-0.8,12.9-1.9c-4.1-0.9-8.2-1.7-12.2-2.4c-1.6-0.2-3.1-0.8-4.4-1.8c-1.7-1.5-3.8-2.4-6.1-2.5
		c-0.5,0-1.1-0.1-1.6-0.2c-1.5-0.3-3.1-0.6-4.5,0.4c-0.2,0.1-0.4,0.2-0.5,0.2c-3.2-0.4-6.3-0.7-9.5-1.3
		C280.1,529.8,278.5,530,277.1,530.8L277.1,530.8z M8.5,246.1c3.2,2.7,6.2,5.2,9.1,7.6c0.4,0.2,0.9,0.3,1.4,0.2
		c3.8-0.3,7.6-0.7,11.4-1c1.4,0.1,2.8-0.6,3.5-1.8c0.8-1.2,1.8-2.3,2.7-3.4c0.4-0.5,0.7-1,1.3-1.7L8.5,246.1L8.5,246.1z
		 M375.4,349.9c2,0,3.6,0,5.2,0c0.8,0.1,1.5-0.4,1.8-1.1c2.5-5.3,5-10.6,7.4-15.9c0.5-1.5,0.8-3.1,1-4.6l-4.8-1.3
		C382.5,334.7,379,342.2,375.4,349.9z M323.8,461.8c1.1-1.1,2.6-2,1.6-3.9c-0.7-1.4-0.4-2.6,0.5-3.8c0.5-0.7,0.8-1.6,0.9-2.4
		c0-2.1-0.2-4.2-0.5-6.3c-0.1-1.2-0.4-2.4-0.6-3.6c-1.9,0.3-3.5,0.5-5.1,0.7c-0.3,0-0.6,0.2-0.8,0.5c-1.7,3.4-1.8,7.3-0.4,10.9
		C320.4,456.5,322.3,459.1,323.8,461.8z M335.2,486.4c0.7-1.2,1.4-2.6,1.9-3.9c0.5-1.7,1.2-3.4-0.1-5.1c-1.9-2.4-3.5-5-5.5-7.5
		c-0.4-0.5-1.8-1.1-2.1-0.8c-0.7,0.5-1.2,1.4-1.2,2.3c0.7,3,0.8,6.2,0.2,9.3c-0.1,0.5,0.1,1,0.4,1.4
		C330.3,484.2,332,486.2,335.2,486.4L335.2,486.4z M333.1,239.8l0.1,0.5c6.4,2,12.8,4,19.5,4.4c0.4,0.1,0.7,0.1,1.1-0.1
		c1.4-1.3,2.7-2.6,4.2-4c-2.6-0.6-4.9-1-7.2-1.7c-4.1-1.3-8.3-2.1-12.5-1.1C336.6,238.4,334.9,239.1,333.1,239.8L333.1,239.8z
		 M655,249.9c0.1,0.4,0.1,0.8,0.2,1.1c0,1.2,0.3,2,1.9,2c4.5,0.3,8.9,0.5,13.3,1.1c2.9,0.4,5.9-0.3,8.3-2c-1.6-1.1-3.1-2-5.4-1.6
		c-4.6,0.7-9.3,1.5-13.5-1.2c-0.5-0.4-1-0.8-1.4-1.2l0.1-0.4c-5,0.5-10.1,0.5-14.7,2.6l0.1,0.5L655,249.9z M716.8,244.3
		c-1-1.1-1.5-2.1-2.4-2.5c-1.6-0.7-3.3-1.2-5-1.5c-3.6-0.8-7.1-1.2-10.3,1.2c2.4,2.8,6,3.7,9.5,4.9c0.1,0,0.3,0,0.4,0
		C711.4,245.7,713.8,245,716.8,244.3L716.8,244.3z M206.2,475c-0.7,1.8-1.4,3.4-2,4.9c-0.7,1.5-0.1,2.9,0.5,4.2
		c0.2,0.3,0.6,0.6,1.1,0.6c1.7-0.2,3.4-0.4,5.1-0.7c0.3-0.1,0.6-0.4,0.7-0.7c0.2-1.5,0.3-3.1,0.3-4.7c-0.1-0.6-0.5-1.2-1-1.5
		C209.5,476.4,207.9,475.8,206.2,475z M697.2,262.7c-0.6-1.4-1.3-2.7-2-4.1c-0.1-0.2-0.3-0.4-0.6-0.5c-3-0.1-6.2-0.5-8.6,1.9
		C689.9,263.8,693.1,264.7,697.2,262.7z M701.9,262.1c1.6-1,3.1-1.9,4.5-2.8c1.5-0.9,3-1.9,4.4-2.8c0-0.1-0.1-0.3-0.1-0.4l-12.3,2.2
		L701.9,262.1z M0.4,586c0-3-0.6-5.8-2.8-8.2c-0.5-0.6-0.8-1.3-1.3-1.9c-3.3-3.3-3.6-7.5-4.1-11.7c0-0.5,0.1-1,0.4-1.5
		c1.9-4.6,3.9-9.2,5.9-13.8c0.3-0.5,0.4-1.1,0.5-1.7c-0.5-5.7-1.4-11.2-4.5-16.3c-3.1-5.2-6.1-10.4-10.1-15c-1.4-1.6-1-3.6-1-5.5
		c-0.1-3.3,0.3-6.5,0.3-9.8c0-2.6-0.1-5.2-0.5-7.8c-0.2-1.5-0.8-1.5-2.3-1.2c-1.4,0.1-2.7,0.1-4.1,0c-1.4,0-2.6-0.7-3.4-1.8
		c-1.7-2.1-3.4-4.1-6.2-4.7c-0.6-0.1-1.3-0.2-2-0.1c-1.1,0.2-2.1,0.6-3.1,0.8c-3.1,0.5-5.9,1.8-8.2,3.9c-0.4,0.5-1.1,0.7-1.6,0.3
		c-0.1-0.1-0.3-0.2-0.3-0.4c-1.8-2.3-3.8-2-6.3-0.8c-5.7,2.8-5.8,2.7-12.1,1.6c-1.3-0.2-2.5-0.7-3.5-1.6c-4-3.7-8.1-7.3-11.9-11.2
		c-1.5-1.5-2.4-3.6-3.5-5.4c-2.4-3.9-4.7-7.9-7-11.8c-0.4-0.7-0.6-1.4-0.6-2.1c0-2.2,0-4.5,0.2-6.7c0.1-1.1,0.4-2.2,1-3.2
		c2.3-3.9,2.2-8.2,2-12.4c-0.2-2.6-0.5-5.3-0.7-7.9c-0.1-0.4-0.1-0.8,0-1.1c1.4-3.7,2.8-7.5,4.5-11.1c0.8-1.7,2.3-3.1,3.3-4.7
		c1.1-1.8,2.7-3.3,4.7-4.1c0.6-0.3,1-0.7,1.3-1.3c2.1-5,6.1-8,11-10.4c6.3-3,12.4-6.6,18.6-9.9c1.7-0.8,3-2,3.9-3.7
		c0.4-0.8,0.9-1.6,1.5-2.3c0.2,0.1,0.4,0.2,0.6,0.3c3.8,3.8,8.1,1.9,12,0.8c2.4-0.7,4.5-2.7,6.5-4.3c1.3-0.9,2.8-1.4,4.3-1.4
		c2.8-0.3,5.6-0.1,8.3,0.5c3,0.7,5.9,0.1,8.8-0.3c1.5-0.2,2.9-0.5,4.4-0.7c0.1,0.2,0.1,0.4,0.1,0.5c-0.4,2.5-0.1,5,1.1,7.3
		c0.5,0.9,0,2.2,0.1,3.4c0.1,0.7,0.4,1.4,0.9,1.9c2.2,2.8,5.6,2.2,8.6,2.8c1.2,0.2,2.4,0.6,3.5,1.3c3.3,2.4,6.5,5,10,7.7
		c1.7-2.3,3.3-4.6,5.2-6.8c1.1-1.2,2.4-2.2,3.8-3c0.5-0.1,0.9,0,1.4,0.2c6.1,2.2,12.2,4.5,18.3,6.8c0.8,0.4,1.7,0.3,2.4-0.2
		c0.1-0.1,0.3-0.1,0.4-0.2c2.2-1.9,4.3-2.2,7.1-0.7c1.5,0.7,3.8,0,5.7-0.2c0.2-0.1,0.3-0.3,0.4-0.5c1.2-6,3.7-11.6,6-17.2
		c0-0.1,0-0.2,0-0.3c-2.8-0.6-5.5-1.5-8.3-0.4c-2,0.7-3.7,0-5.3-0.8c-0.8-0.6-1.9-0.3-2.5,0.5c0,0,0,0,0,0c-1.6,1.9-2.6,1.8-4.9,0.5
		c-3-1.7-4.4-4.4-5.6-7.4c0,0,0-0.1,0-0.1c-1.1-2.8-2.1-5.7,0.3-8.5c-3.7-0.4-6.9,0.2-9.6,2.1c-1.4,0.9-2.3,2.4-2.4,4.1
		c0,1.3-0.6,1.6-2,1.7c-2.4,0.2-3.7-0.5-4.4-2.7c-0.8-2.3-1.6-4.6-2.6-6.8c-0.3-0.7-0.8-1.3-1.4-1.6c-2.3-1.1-4.7-2.2-7.1-3.1
		c-1.1-0.4-2.1-1.2-2.5-2.3c-0.7-1.5-1.4-3-2.2-4.5c-0.2-0.4-0.6-0.7-1-0.9c-1.9-0.7-3.9-1.3-5.9-1.9c-0.9,1.2-1.1,2.9-0.4,4.3
		c1.4,3.6,4.7,5.5,7.4,8c1.9,1.7,3.9,3.3,5.9,5.1l-2.9,3.4c-3.1-2-6.1-4-9.1-6c-1.2-0.8-2.4-1.7-3.7-2.4c-2.9-1.5-4.8-4-6.5-6.6
		c-0.3-0.4-0.6-0.8-1-1.3c-2.7,1.3-5.3,2.6-8,3.7c-0.8,0.3-1.7,0.4-2.6,0.3c-1.6-0.2-3.5-1.3-4.8-0.9s-2.1,2.4-3.1,3.6
		c-2.5,3.1-5,6.1-7.4,9.2c-0.7,0.8-1.3,1.8-1.6,2.8c-1.2,3.5-3.6,6.2-5.9,9c-0.4,0.4-1,0.5-1.6,0.5c-2.6-0.5-5.2-1-7.7-1.7
		c-1.9-0.6-4-0.7-5.9-0.4c-0.5,0-1-0.3-1.3-0.7c-2.2-2.9-2.3-6.2-1.9-9.6c0.5-4.1,0.6-8.2,0.9-12.3c0-0.2,0-0.5,0.1-1
		c5.8-0.2,11.5-0.5,17.2-0.7c3-0.1,3,0,3.4-2.9c0.7-4.7-1.6-8-5-10.8c-1.4-1.1-2.8-2.1-2.7-3.8c2.1-0.2,4.2-0.3,6.2-0.7
		c1.2-0.3,2.4-0.8,3.4-1.5c2.7-1.8,5.4-3.8,8.1-5.8c0.4-0.3,0.8-0.6,1.2-1.1c1.7-2.4,3.9-4.4,6.4-5.8c1.3-0.8,3.2-0.7,4.8-1
		c1.6-0.3,3.1-0.3,4.6-1.5c2.2-1.8,2.2-3.9,2-6.6c0.5,0.3,0.9,0.7,1.3,1.1c1.5,1.8,3.6,2.6,5.7,3.3c0.5,0.2,1.1,0.2,1.6,0.1
		c1.5-0.5,3.2-0.3,4.6,0.5c3.1,1.5,6.1,0.2,9.1-0.5c0.8-0.2,1.6-0.6,2.4-1.1c1.8-1.2,3.8-1.1,5.9-1c1.6,0,3.3-1,4.9-1.6
		c0.2-0.3,0.2-0.7,0.1-1c-1.1-3.2,1.2-4.8,3.2-6.5c0.5-0.3,1.1-0.3,1.6,0c2.3,1.1,4,0.1,5.4-1.6l-2.3-5.1c8.7-0.9,17.3-0.5,25.3-3.8
		c0.3-1.7-0.6-3.4-2.1-4.1c-2.1-1.3-4.1-1.8-6.3-1.1c-1.2,0.4-2.4,1.1-3.4,1.8c-3.3,2.3-7.2,3-11.1,3.2c-2.5,0.1-5-0.5-7.6-0.7
		c-0.6,0-1-0.4-1.1-1c0-0.1,0-0.2,0-0.2c-0.1-1.7-0.3-3.4-0.4-5.1c0-0.5,0.1-0.9,0.4-1.3c3-3.3,6.1-6.4,10.1-8.7
		c1.3-0.6,2-2,1.7-3.4c-3.4,0-6.7,0-10,0c-0.4,0.1-0.8,0.5-0.9,0.9c-0.6,2.7-2.5,4.2-4.6,5.8c-3,2.3-6.2,4.5-8.4,7.7l-0.4,0.6
		l4.9,7.6c-2.4,2.1-4.6,1.5-6.8,0.2c-0.3,2.7-0.5,5.3-0.9,7.9c-0.2,0.8-0.6,1.4-1.2,1.9c-1.8,1.4-4,2.3-6.2,2.8
		c-0.6,0.3-1.4,0-1.7-0.6c-1.9-3.1-3.9-6.1-5.9-9.2c-1.2-1.8-3.3-1.5-5.1-2.1c-0.3,0.1-0.5,0.2-0.7,0.5c-1,0.9-2.2,1.8-3.1,2.8
		c-0.6,0.8-1.6,1-2.4,0.5c-1.5-0.6-3.1-1.1-4.7-1.6c1.2-2.2,2.1-4.6,2.9-7c0.6-2.3,0.5-4.9,0.8-7.5c1.1-0.3,2.5-0.5,3.9-0.9
		c2.3-0.7,4.7-1.4,7-2.1c0.6-0.3,1-0.7,1.4-1.2c2.5-2.9,4.9-5.9,7.4-8.9l2.4,1.3c1-0.9,2-1.8,3-2.7c2.4-2,5-3.9,7.4-5.9
		c1-0.9,1.7-2.1,2.6-3.1c0.5-0.6,1.2-1,2-1.1c4.6-0.2,9-1.4,13-3.6c0.6-0.3,1.2-0.5,1.8-0.5c2.5-0.2,5-0.3,7.5-0.4
		c0.6,0,1.2,0.1,1.7,0.3c8.7,3.7,17.8,5.7,27.1,7.4c1.3,0.3,2.6,0.8,3.8,1.4c2.4,1.1,4.8,2.4,7.3,3.7c-1.3,1.4-2.5,2.6-3.8,3.8
		c-0.3,0.2-0.7,0.3-1.1,0.2c-6.1-0.6-12.2-1.3-18.3-1.9c-0.5,0-0.9-0.1-1.5-0.2c3,4.7,6.2,8.9,12.2,10.5c1.2-0.9,2.6-1.9,4-3
		c0.8-0.9,2.1-1.1,3.2-0.6c0.6,0.2,1.3,0.4,1.9,0.6c1-1.5,1.9-3.1,2.9-4.6c0.4-0.5,1-0.9,1.6-1.2c2.7-1.2,5.1,0,7.6,1.2
		c-0.2-1.4-0.4-2.5-0.6-3.7c1.7-0.8,3.3-1.5,5-0.3c2.9,2.1,5.4,1.7,8.1-0.7c2.9-2.4,6.4-3.8,10.2-4c1.5,0,3.1,0.4,4.5,1.1
		c1.2,0.6,2.6,0.5,3.6-0.3c1.5-1,3.1-1.8,4.8-2.5c0.6-0.2,1.3-0.2,1.9,0c2.5,0.5,5,1.1,7.5,1.7c0.1-0.9,0.4-1.8,0.7-2.7
		c0.7-1.1,1.9-1.8,3.3-1.8c2.4-0.3,4.8,0.3,6.8,1.7c3.7,2.4,8.2,3.1,12.5,4.1c1,0.2,2.6-0.8,3.5-1.6c0.3-0.3-0.4-1.9-1-2.7
		c-0.7-0.7-1.4-1.3-2.2-1.8c-2.5-1.8-3.1-5.3-1.3-7.8c0.1-0.1,0.2-0.3,0.3-0.4c0.1-0.1,0.3-0.3,0.4-0.4c1.5-2.8,4.1-3.7,7.1-3.9
		c0.7-0.1,1.4,0,2.1,0.2c1.7,0.5,3.3,1.2,5.1,1.9c-1,1.2-1.9,2.2-2.9,3.4c1.9,1.6,1.4,3.5,1,5.5c-0.1,1,0.1,2,0.6,2.8
		c1.1,2,0.6,3.8-0.3,5.7c-0.5,1.2-1.1,2.3-1.7,3.5c4.4-0.4,7.6-2.5,9.4-5.9l8.7,2.8c-0.2-1.1-0.4-2.1-0.7-3.2
		c-0.2-0.4-0.6-0.6-1.1-0.7c-2.3-0.6-4.6-1.1-6.8-1.6c-0.5-0.1-0.8-0.4-1.1-0.8c-0.8-2.7-1.4-5.4-2.1-8.3c1-0.4,2-0.8,3.1-1.1
		c0.4,0,0.8,0.2,1,0.5c1.5,2.4,4.1,2.9,6.4,4.1c0.3,0,0.6,0,0.9-0.1c0.1-0.1,0.2-0.2,0.3-0.3c2.1-1.1,2.6-2.6,1.6-4.6
		c-0.1-0.3-0.2-0.6-0.2-1c2.8,0.5,5.5,1.4,8,2.9c0.4,0.3,0.7,0.8,0.8,1.3c0.5,2.1,2,3,4.2,3.2c0.4-1.5,0.8-3,1.3-4.7
		c-2.3-0.1-4.5-1.2-6.2-2.9c-0.6-0.4-0.8-1.3-0.4-2c0.1-0.1,0.1-0.2,0.2-0.2c0.8-1.2,2.2-1.9,3.7-1.8c3.1,0.2,6.2,0.3,9.3,0.3
		c0.7,0,1.3-0.3,1.8-0.8c1.2-1.2,2.3-2.6,3.5-3.8c0.4-0.4,1-0.8,1.6-1c6.1-2.3,12.5-2.5,18.8-2.9c4.2-0.2,8.5-0.4,12.7-0.7
		c0.9-0.1,1.8-0.4,2.6-0.7c2.9-1.1,5.8-2.3,8.7-3.4c0.5-0.1,1.1-0.1,1.6,0.1c2.7,0.6,5.4,1.1,8,1.9c2.2,0.6,4.5,0.4,6.6-0.4
		c1.4-0.5,2.9-0.5,4.3,0.1c1.1,0.5,2.3,0.8,3.5,1.3c-0.6,1.8-1.1,3.6-1.8,5.3c-0.3,0.5-0.8,1-1.3,1.3c-3.2,2-6.4,4.1-9.5,6.3
		c1.7-0.3,3.3-0.6,5-0.8c3.6-0.4,7.1-0.7,10.7-0.8c0.9,0,1.9,0.9,2.9,1.3c0.5,0.2,1.1,0.2,1.6,0c3.2-2.5,7-3.1,10.9-3.5
		c0.8-0.1,1.5,0,2.3,0.2c6.2,1.3,11.9,3.9,17.6,6.4c2.1,1.1,4.4,1.6,6.8,1.4c3.2-0.5,6.4,0.5,8.7,2.8c1.3,1.3,2.5,1.3,4,0.2
		c1.5-1,3.1-2.3,4.7-2.5s3.5,0.7,5.2,1.3c2,0.8,3.8-0.2,5.6-0.4c2.3-0.4,4.5-0.8,6.8-1.4c1.1-0.3,2.1-1.1,3.3-1.4
		c0.8-0.3,1.7-0.4,2.5-0.4c2.5,0.1,4.9,0.2,7.4,0.5c1.6,0.2,3.2-0.2,4.6-1.1c0.8-0.5,1.8-0.6,2.7-0.2c5.3,1.7,10.6,3.4,15.9,5
		c0.4,0.2,0.9,0.2,1.4,0.1c5-2.1,10.1-1.2,15.2-0.8c3,0.2,4.6,1.7,6.4,3.8c1.7,2,4,3.8,7.4,3c3.8-0.9,7.7-1.4,11.6-2
		c3.2-0.5,5.4,1.1,7.5,3c0.6,0.6,1.1,1.2,1.8,1.7c1.6,0.8,3.5,0.7,4.9-0.4c0.2-0.3,0.4-0.7,0.4-1c0.3-1.1,0.6-2.3,0.9-3.6
		c3.3,0.7,6.6,1.4,9.8,2c6,1.2,11.8,3.3,17.1,6.4c0.4,0.2,0.7,0.4,1,0.6c1.9,2.1,3.8,4.3,5.6,6.4c-2.1,1.7-4.8,2.7-7.5,2.8
		c-3.8,0.1-7.2-1.2-10.8-1.9c-0.3-0.1-0.7-0.1-1-0.2c-3.4-0.6-3.6-0.5-5.4,2.5l11.1,5.5c-1.7,2.7-4.5,3.2-7.3,3.8
		c-3.7,0.7-7.3,1.7-10.8,3.1c-2,0.8-3.5,2.5-5.3,3.7c-0.7,0.5-1.5,0.8-2.4,0.8c-5.2,0.2-10.3,0.2-15.5,0.3c-0.6,0.1-1.2,0.3-1.7,0.6
		c-0.3,0.2-0.5,0.6-0.9,0.8c-2.9,1.5-2.8,4-2.4,6.6c0.1,0.4,0.3,0.7,0.5,1c0.7,0.9,1.4,1.7,2.1,2.7c-0.9,0.6-1.8,1.1-2.8,1.6
		c-1.3,0.4-2.1,1.6-2.2,2.9c-0.1,1.9-1.2,2.7-2.9,3.6c-3.5,1.8-6.6,4.4-9,7.6c-1.1,1.4-2,3-3.3,4.5c-0.1-1.1-0.2-2.3-0.3-3.4
		c-0.5-4.8-1.1-9.5-1.6-14.3c0-0.6,0.1-1.2,0.5-1.7c2.5-4,6.7-6.3,10.3-9.2c2.7-2.1,5.8-3.7,9-4.6c0.9-0.3,1.7-0.9,2.4-1.7
		c1.6-1.9,3.1-3.9,4.7-5.9c-1.4-0.4-2.7-0.8-4.2-1.1c-0.4,0.1-0.8,0.3-1.1,0.7c-1.2,1.5-2.5,2.9-3.6,4.5c-1.5,2-3.7,2.3-6.2,2.5
		c0.2-1.4,0.4-2.8,0.6-4.4c-4.3,0.3-8.5,0.6-11.9,3.3c-0.5,0.4-1,0.8-1.5,1.2c-1.8,1-3,2.8-3.3,4.8c-0.2,0.8-0.8,1.4-1.6,1.6
		c-3.1,1.3-5.6-0.3-8.1-1.5c-0.9-0.5-1.7-1.1-2.5-1.7c-1.6,2.7-4.3,2.1-6.8,2.1c-1,0-2-0.1-2.9-0.4c-2-0.9-4.3-0.9-6.4-0.1
		c-1.6,0.6-3.3,0.9-5,1.3c-0.4,0.1-0.8,0.2-1.2,0.4c-6,4.4-12,8.9-18,13.4c1.2,2.7,3.7,3.6,6.1,4.5c0.6,0.2,1.6-0.3,2.4-0.5
		c0.8-0.4,1.8-0.2,2.5,0.3c0.4,0.3,0.9,0.6,1.4,0.8c2,0.7,3.3,2.5,3.4,4.5c0,0.6-0.2,1.1-0.4,1.6c-0.1,0.2-0.3,0.4-0.5,0.5
		c-1.6,0.9-2.3,2.9-1.5,4.5c0.2,0.6,0.1,1.3-0.1,1.9c-0.8,3.7-2.6,7.2-5.3,9.9c-3.4,3.6-6.5,7.6-9.9,11.3c-1.1,1-2.4,1.9-3.7,2.6
		c-0.5,0.3-1,0.5-1.6,0.7c-1.9,0.9-3.7,2.1-5.4-0.5c-1.3,1.1-2.6,2.2-3.8,3.5c-0.5,0.9-0.8,1.8-0.8,2.8c-0.1,0.9-0.7,1.8-1.5,2.3
		c-2.1,1.5-4,3-6.1,4.6c1.8,2.7,3.5,5.2,5.2,7.6c0.8,1,1.1,2.4,0.9,3.7c-0.1,2-1.1,3.9-2.7,5.1c-2,1.4-4.4,2.1-6.9,1.9
		c-0.3,0-0.5-0.2-0.7-0.4c-0.4-1.4-1.3-2.7-0.4-4.2c1.3-2.1,1.1-4.3,0.8-6.6l-4.6-1.9c0.4-0.4,0.8-0.7,1.3-0.9
		c1.1-0.3,1.7-1.4,1.4-2.4c-0.1-0.2-0.1-0.4-0.3-0.6c-0.2-0.4-0.5-0.8-0.9-1c-2.6-1.4-5.1-0.9-7.5,0.5c-1.1,0.6-2.2,1.1-3.3,1.5
		c1.6-2.1,3.2-4.2,1.4-7c-1.7-0.1-3.4,0-4.7,1.6c-1,1.1-2.2,2.2-3.5,3c-0.7,0.4-1.5,0.7-2.3,0.7c-0.5-0.1-1,0.3-1.1,0.9
		c0,0.1,0,0.2,0,0.3c0,0.6,0,1.2,0,1.8c0.1,0.4,0.3,0.7,0.7,0.9c0.9,0.5,2.1,0.7,2.8,1.4c0.7,0.7,0.8,1.8,1.3,2.9l3.7-2.2
		c0.6,0.9,1.1,1.8,1.5,2.8c0.1,0.5-0.1,1-0.5,1.4c-2,1.5-3.5,3.7-4.1,6.2c-0.1,0.6-0.1,1.2,0.2,1.7c4.2,6.3,6,13.9,4.8,21.3
		c-0.1,0.6-0.3,1.1-0.7,1.5c-2.4,3.6-4.9,7.1-7.3,10.7c-0.4,0.4-0.8,0.8-1.3,1.1c-3,2.2-6.1,4.3-9.2,6.5c-0.6,0.4-1.3,0.7-2,0.8
		c-2.3,0.3-4.6,1.1-6.6,2.3c-0.9,0.4-1.9,0.7-2.9,0.7c-1.4,0.1-2.8-0.1-4.3-0.1c-0.4,0-0.9,0.1-1.3,0.3c-3.6,1.7-6.4,4.4-9.1,7.1
		c-0.2,0.1-0.3,0.4-0.4,0.6c0.6,2.4-0.1,5.2,2.4,7c1.7,1.2,2.9,2.9,3.5,4.9c0.9,2.6,2.3,5.1,3.4,7.7c0.3,0.7,0.3,1.4,0.1,2.1
		c-0.9,2.7-2,5.4-3,8.1c-0.2,0.5-0.6,1-1,1.3c-1.6,1-3.3,1.9-5.1,2.6c-3,1-5.7-0.4-8-2c-1.3-1.1-2.3-2.5-3-4
		c-1.2-2.3-3.2-3.6-5.3-4.8c-1.2,3.3-2.5,6.6-3.7,9.8l-0.4,0c-0.8-8.5-2.8-16.8-6-24.8c-1,1.1-1.8,2.1-2.8,3c-0.9,0.9-2,1.6-3.4,2.7
		c-1-11.1-7.5-19.4-13.9-28.2c-0.2,1.1-0.3,2-0.4,2.8c0,0.8-0.3,1.3-1.2,1.2c-0.2,0-0.5,0.1-0.7,0.1c-4.2-0.4-5.8,2.5-7.1,5.5
		c-0.6,1.9-2.1,3.5-4.1,4.1c-0.5,0.1-0.8,0.4-1.1,0.9c-0.6,2.3-2.4,3.6-4.1,4.9c-3.8,2.9-6.3,6.9-9,10.7c-0.2,0.3-0.3,0.7-0.3,1.1
		c1.3,5.8-1,11.2-2.3,16.7c-1,4-1.6,4.8-5.2,7.6c-0.9-1.4-1.7-2.8-2.3-4.4c-1.8-6.6-4.4-13-7.8-18.9c-1.6-2.9-2.5-6.1-2.7-9.3
		c-0.3-3.4-0.8-6.9-1.1-10.3c0-0.7,0.1-1.5,0.3-2.2c0.4-1,0.9-2,1.4-3.1l-2.5-1.7c-0.2,0.4-0.4,0.6-0.5,0.9c-0.5,0.8-0.7,2-1.4,2.2
		c-1.3,0.5-2.8,0.7-4.2,0.4c-1.4-0.4-2.5-1.5-3.6-2.2l4.2-3.9c-0.3-0.1-0.6-0.2-0.9-0.3c-4.2,0-6.7-2.7-9.4-5.2
		c-0.8-0.8-1.7-1.5-2.7-2.2c-2-1.5-4.4-1-6.7-1c-3.3,0.1-6.7,0.5-10,0.2c-2.8-0.3-5.5-1.3-8.2-2.1c-0.3-0.3-0.5-0.7-0.6-1.1
		c-0.8-1.5-1.6-3.1-2.5-4.7c-1.1,0.7-2.2,1.3-3.3,1.9c-0.6,0.2-1.2,0.3-1.8,0.1c-2.8-1.2-5.5-2.5-8.2-3.9c-0.7-0.3-1.2-0.9-1.4-1.6
		c-0.3-3-2.4-4.5-4.8-5.6c-1-0.5-2.4-0.1-3.5-0.1c-2.1,3.5-0.2,6,1.7,8.4c0.8,1,1.6,1.9,2.6,2.8c1.4,1.1,2.2,2.8,2,4.6
		c-0.1,1.1,0.9,2.2,1.3,3.4c0.5,1.5,1.8,1.4,3,1.5c0.1,0,0.2,0,0.3,0.1c3.8,1.3,6.4-0.6,8.8-2.9c1.1-1.1,2.1-2.2,3.4-3.6
		c0.2,2,0.4,3.7,0.5,5.4c0,0.7,0.4,1.3,1.1,1.4c2.7,1.2,5.6,2,7.8,4.2c0.7,0.5,1,1.5,0.6,2.3c-0.9,2.5-2.3,4.8-4,6.9
		c-2.6,3.1-5.1,6.4-7.6,9.6c-0.7,1.1-1.8,1.8-3.1,1.9c-1.6,0.2-3.1,1-4.1,2.3c-2.4,2.9-6,4.5-9,6.6c-0.5,0.4-1.1,0.6-1.6,1
		c-3.7,2.8-8.1,4-12.6,4.9c-0.9,0.2-2-0.3-3-0.3c-1.5-0.1-1.4-1.2-1.7-2.1c-1.6-4.8-2.9-9.6-4.7-14.3c-1.3-3-2.8-5.9-4.6-8.7
		c-1.4-2.2-2.2-4.7-2.5-7.3c-0.1-0.7-0.3-1.3-0.6-1.9c-3-5.3-6.1-10.5-9.1-15.8c-1.1-2.1-1.9-4.3-2.9-6.6l-1.8,3.3l-5.6-4.3
		c0.3,0.8,0.4,1.3,0.6,1.8c1.8,4.6,3.5,9.2,5.5,13.8c0.8,1.7,1.8,3.2,3,4.7c1.7,2.4,3.4,4.8,5.1,7.1c0.6,0.5,0.7,1.4,0.2,2
		c-1.2,1.7-1.3,3.3,0.2,4.9c3.7,3.9,4,8.9,5.1,13.7c0.2,1,0.7,1.9,1.4,2.7c3.2,3.7,6.6,7.3,9.9,11l-1.7,2.1l6.6,4.3
		c2.2-2.3,5.3-2.4,8.2-3c2.5-0.5,4.9-1.5,7.4-2.3c0.6-0.2,1.1-0.4,1.7-0.6c1.8,2.2,1.2,4.5,0.3,6.6c-1.6,3.9-3.6,7.7-5.3,11.5
		c-2.7,6.1-6.8,11.2-11,16.3c-6.1,7.3-11.7,14.9-17.5,22.4c-0.3,0.5-0.5,1.1-0.4,1.7c0.9,8.9,2.5,17.6,4.7,26.3
		c0.3,1.4-0.3,3-0.5,4.5c-0.6,3.3-1.3,6.6-2,9.9c-0.1,0.7-0.5,1.3-1.1,1.7c-3.3,2-6.3,4.7-8.7,7.8c-0.1,0.2-0.3,0.4-0.5,0.5
		c-3,1.6-3.4,4.3-3.3,7.3c0,1.5-0.2,3.1-0.3,4.7L0.4,586L0.4,586z M118.4,363.2c-0.8,1.2-1.3,2.1-1.9,2.9c-1.1,1.5-1.8,3.2-2,4.9
		c-0.2,0.6,0.1,1.3,0.7,1.6c1.2,0.8,2.3,1.7,3.5,2.5c0.6,0.5,1.4,0.8,2.1,1.1c0.8,0.2,1.8,0.1,2.6,0.2c2.3,0.3,4.2-0.8,5.8-2.1
		c0.7-0.6,0.5-2.4,0.5-3.6c0-0.8-0.2-1.6-0.5-2.3c-0.6-1.4-1.5-2.7-1.9-4.1c-0.6-1.4-0.8-2.9-0.7-4.4c0.6-2.6-0.4-5.2-2.5-6.9
		c-1.6-1.3-2.6-3.2-2.7-5.3c0-1.1,0.1-1.9,1.3-2.3c2.4-0.8,3.6-2.6,4.2-4.9c-2-0.6-3.9-1.2-5.9-1.6c-0.7-0.2-1.4-0.1-2,0.3
		c-1.5,0.9-2.8,2.1-4.2,3.1c-1.2,0.6-2.3,1.4-3.4,2.1c-1.3,1.2-2.5,2.6-3.6,3.9c0.9,1.8,1.5,3.4,2.3,4.9c0.7,1.2,1.4,2.3,2.3,3.4
		C114.5,358.9,116.5,361,118.4,363.2z M65.4,341c-3.5,2-6.4,4.8-8.5,8.1c-1.3,2.1-1,5-3.7,6.3c0.7,1.3,1.6,2.5,2.6,3.6
		c2.2,1.9,7.3,1.7,9.8-0.2c3.2-2.4,6.5-3.5,10.4-1.4c1.5,0.8,3.2,1.5,4.8,2.2c0.4,0.2,0.8,0.4,1.2,0.5c2.7,0.1,5.5,0.1,8.2-0.1
		c3.4-0.4,3.4-0.5,3.8-3.8c0-0.4-0.1-0.7-0.4-0.9c-3.7-2.7-7.4-5.4-11.7-7.3c-2.8-1.2-5.3-1.4-8-0.1c-1.5,0.7-2.8,0.3-4.2-0.4
		l0.9-3.2L65.4,341z M689.2,586c-0.1-3.6-0.4-7.3-0.3-10.9c0-5.9-0.4-11.8-1.3-17.6c-0.1-1-0.6-1.9-1.5-2.4
		c-5.4-3.4-10.8-6.8-16.1-10.3c-0.6-0.4-1.1-1-1.4-1.7c-3.7-7.4-7.4-14.9-10.9-22.3c-0.8-1.7-1.7-2.9-3.6-3.4c-1.8-0.3-3-1.9-3-3.7
		c0-0.3-0.1-0.7-0.2-1c-1.1-3.1-0.8-6,1.6-8.5c0.7-0.9,1.3-1.8,1.8-2.7c-0.1-0.1-0.2-0.3-0.3-0.3c-3.2-0.5-3-3-3.4-5.2
		c0.1-0.6,0.3-1.1,0.7-1.5c2.6-3.7,5.3-7.4,7.9-11.1c0.4-0.6,0.6-1.3,0.6-2c0.2-4.1,0.3-8.2,0.5-12.2c0.1-1.4-1.1-1.9-1.7-2.8
		c-0.9-1.2-1.7-1.4-3-0.4c-1.4,1-3,1.7-4.4,2.6c-0.6,0.4-1.4,0.4-2,0c-3.5-2.1-7-4.2-10.5-6.3c-0.5-0.4-0.8-0.9-1-1.5
		c-0.5-1.1-0.8-2.3-1.3-3.4c-2.4-4.5-6.3-7.1-11.2-8.4c-2.7-0.7-5.1-2.3-6.9-4.4c-2.2-2.5-5.5-3.9-8.8-3.6c-2.6,0-5.2-0.2-7.8-0.6
		c-0.7-0.1-1.4-0.3-2.1-0.6c-5.3-3-10.6-6-15.9-9c-0.6-0.2-1-0.9-0.9-1.6c0.3-3,0.5-6,0.7-8.9c0-0.9-0.2-1.8-0.7-2.6
		c-3.5-5.5-7-11.1-10.7-16.5c-1.4-2.2-2.3-4.7-2.7-7.3c-0.3-1.5-0.6-3.1-1-4.6l-2.9-0.5c-0.1,0.5-0.1,0.9-0.2,1.3
		c-0.9,4.8,1.2,9.1,2.8,13.5c1.2,3.3,2.3,6.6,3.6,9.9c0.5,1,0.4,2.3-0.4,3.1c-0.5,0.7-1,1.4-1.4,2.1c-1.8-3.9-3.5-7.6-5.1-11.3
		c-1.1-2.3-2-4.7-3.2-7c-1.2-2.5-1.9-5.2-1.8-7.9c-0.1-2.7-0.3-5.4-0.5-8.1c-0.1-0.7-0.5-1.4-1-1.9c-1.9-1.9-3.8-3.7-5.7-5.5
		c-0.6-0.5-0.9-1.3-0.7-2.1c1.5-7.3,2.9-14.7,4.4-22c0.1-0.5,0.4-1.1,0.8-1.5c2.5-3.5,5.1-7,7.7-10.5c0.4-0.6,0.7-1.2,0.8-1.9
		c0.3-3.5,1-7-0.6-10.4c-0.2-0.3,0.3-1,0.5-1.5c0,0,0.1-0.1,0.1-0.1c2.9-1.3,3.8-3.5,3.4-6.5c-0.3-1.7,0.1-3.5-0.1-5.3
		c-0.3-3,0.4-6,1.8-8.6c0.6-1.1,0.3-2.6,0.4-4.4l-6.1,3.6c-1-2.3-1.9-4.4-2.8-6.6c-0.3-1-1.2-1.8-2.2-1.9c-3.8-0.5-7.5-1.2-11.3-1.7
		c-0.9-0.1-1.7,0.1-2.4,0.6c-2.7,1.7-5.4,3.5-8.8,3.7c-0.7,0.1-1.5-0.1-2.1-0.5c-1.8-1.8-4-1.6-6.4-1.6c-0.4,1.3-0.7,2.6-1.1,3.9
		c-0.4,0.1-0.9,0.2-1.3,0.2c-1.6-0.1-3.2,0.6-4.2,1.9c-0.3,0.4-0.8,0.7-1.3,0.8c-3.4,0.1-6.5,1.4-9.6,2.4
		c-6.7,2.3-13.4,4.5-20.1,6.9c-2.3,0.9-4.9,1.1-7.3,0.5c10.1-4.4,20-8.7,29.9-13l0.1-0.4c-3.8,0.4-6.6-1-8.2-3.6
		c1.9-2.1,3.8-4.1,5.7-6.1c0.3-0.2,0.7-0.4,1.1-0.4c4.2-0.8,8.4-1.5,12.6-2.3c2.2-0.4,2.4-0.6,4.4-3c-2.3-0.5-4.6-1.2-6.9-1.6
		c-1.9-0.3-1.2-1.5-1.3-2.5c-0.1-1.1,0.7-1,1.5-1c3.7-0.4,7.3-0.7,11-1.2c0.4-0.1,0.7-0.4,1-0.7c0.1-0.1,0.1-0.3,0.1-0.4
		c0.4-3.2,2.5-4.7,5.5-5.5c1.7-0.4,3.3-1,4.8-1.7c4.2-1.8,8.7-2.8,13.2-2.8c11.2-0.2,22.3-0.6,33.5-0.9c0.9,0,1.7,0.2,2.5,0.6
		c2.8,1.5,5.5,3.1,8.3,4.7c0.9,0.7,2,0.8,3,0.2c4.8-2.6,10.1-3.1,15.5-3.3c3.8-0.1,7.6-0.5,11.3-0.6c0.8,0,1.6,0.1,2.4,0.5
		c3.3,1.7,6.7,3.3,9.8,5.2c2.6,1.6,5.1,1.6,8,1.4c5.8-0.4,11.3-1.9,16.8-3.4c0.8-0.2,1.6-0.1,2.3,0.3c3,2.3,6.2,2.7,9.9,1.8
		c2-0.5,3.6-0.9,4.6-2.8c0.9-1.7,4.5-2.5,6.3-1.6c0.8,0.4,1.6,0.8,2.6,1.3c0.6-1.4,1.3-2.7,1.7-4.1c0.3-0.9,1-1.5,1.9-1.7
		c3.3-0.9,3.3-1,5.6,1.6c0.2,0.2,0.4,0.4,0.6,0.6c1,1.2,2,2.6,4.1,1.4c-0.2,1.1-0.3,1.9-0.4,2.6c-0.1,0.7-0.2,1.5-0.3,2.4
		c1.2,0.2,2.4,0.4,3.5,0.4c0.4-0.1,0.8-0.2,1.1-0.5c0.1-0.1,0.1-0.1,0.2-0.2l3.9-4.3c-0.1-0.2-0.2-0.3-0.4-0.5
		c-2.4-1.7-2.1-3.6-1.2-6.1c0.9-2.6,2.1-4.1,5.1-4.6c3-0.6,5.9-1.3,8.8-2.3c0.7-0.3,1.5,0,1.9,0.6c1.6,2.4,4,3.8,6.6,5.1
		c0.5,0.2,1.1,0.2,1.6-0.1c1.5-0.9,2.9-1.9,4.5-2.9l11.6,8.2l-1.9,2.7l9.8,7.6l-8.1,5c-0.6-3.3-2.8-3.9-5.7-3.2
		c-0.1,2.2-0.3,4.4-0.3,6.6c0.1,0.7-0.3,1.4-0.9,1.7c-1.7,1-3.4,2.2-5.1,3.2c-0.3,0.3-0.7,0.4-1.2,0.3c-1.8-0.7-3.5-1.6-5.2-2.6
		c-1.6-1.1-3-2.4-4.4-3.8c-0.9-0.9-2.2-1.3-3.4-0.9c-2.3,0.5-4.7,0.9-7.3,1.3c0.9-1.7,1.6-3.1,2.4-4.5c0.3-0.3,0.7-0.5,1.1-0.5
		c2.1-0.3,4.2-0.5,6.3-0.9c0.7-0.2,1.4-0.4,2-0.8c1.9-1,3.7-2,5.7-3.1c-2.1-2.5-3.9-5.1-6.8-6.8c-1.7-1.1-3.9-1.4-5.8-0.8
		c-2.9,0.7-5.4,2.3-7.3,4.6c-1.5,1.8-3.2,3.5-4.9,5.1c-0.5,0.4-1.1,0.7-1.7,0.8c-2.2,0.3-4.5,0.5-6.8,0.6c-2.4,0-4.2,1.2-6.1,2.6
		c3.2,0.1,6.3,0.2,9.5,0.2c0.8-0.1,1.6,0.3,1.9,1.1c0.6,1.3,1.3,2.5,2,3.9c-2.6,0.4-5,0.9-7.4,1.2c-0.6,0.1-1.3,0-1.9-0.2
		c-3.1-0.9-6.2-1.9-9.3-2.8c-0.6-0.2-1.3-0.1-1.9,0.1c-2.7,1-5.4,2.3-8,3.6c-2.3,1.5-4.5,3.1-6.6,4.8c-2.7,2.1-5.4,4.2-8.3,6.4
		l3.5,0.6l-4.1,6.2c2.7-0.3,5.1-0.7,7.5-0.9c0.6-0.1,1.2,0.1,1.7,0.4c1.4,1.1,2.7,2.2,3.9,3.5c1.3,1.4,2.9,2.3,4.8,2.6
		c1.5,0.3,2.9,0.7,4.6,1.2c-0.2,1.5-0.6,3.1-1.2,4.5c-1.2,2.6-0.2,4.4,2.2,5.9c1.9-2.1,4.7-3.5,5.6-6.4c0.8-2.6,2.5-4.8,4.8-6.2
		c1.3-0.9,2.4-2.1,3.8-2.9c1.8-1,3-2.9,3.2-5c0.3-1.9,1.1-3.7,2.4-5.1c1.7-2.1,3.3-4.4,4.7-6.7c0.4-0.7,1.2-1.2,2-1.2
		c2.7-0.2,5.5-0.6,8.2-0.7c1-0.1,2.1,0.2,3,0.6c2.2,1.2,4.4,2.5,6.6,3.9l-5.3,3.8c1.7,1.2,3.3,2.3,5,3.3c0.5,0.2,1.1,0.1,1.6-0.2
		c2.9-1.5,5.7-3.1,8.8-4.8c0.1,0.7,0.2,1.2,0.2,1.8c0.1,1.4,0.1,2.8,0.4,4.1c0.5,2.6,0.6,5-3,6.7c6,2.1,9.2,6.2,12,11
		c-1.5,1.6-3.1,3.2-4.8,4.8c-0.4,0.3-0.8,0.4-1.3,0.3c-1.2-0.1-2.3-0.4-3.4-0.8c-1.1-0.5-2.4-0.2-3.1,0.8c-1.3,1.6-3.3,2.4-5.4,2.2
		c-3.2-0.1-6.5,0.2-9.7,0.3c-0.9-0.1-1.7,0.4-1.8,1.3c0,0.1,0,0.2,0,0.3c-0.5,3.5-1.1,7-1.8,10.5c-0.2,0.6-0.5,1.2-1,1.6
		c-2.4,1.9-4.9,3.7-7.5,5.3c-1.6,0.9-3.7,1.2-5.6,1.6c-1.9,0.5-3.8,0.8-5.7,1.2c-0.6,0.2-1.1,0.5-1.4,1.1c-1.2,2.1-2.2,4.2-3.4,6.3
		c-0.3,0.5-0.8,0.8-1.4,0.8c-2,0-4-0.1-6-0.1c-0.7,0-1.3,0.3-1.8,0.9c-2.4,3.1-4.6,6.4-7,9.7l-3.9-2c0,0.6-0.1,1-0.1,1.5
		c0,2.6,0,5.1,0,7.7c-0.1,0.6-0.4,1.2-0.9,1.6c-5.4,3.7-10.8,7.4-16.2,11.1c-0.8,0.5-1.3,1.4-1.3,2.3c-0.5,6.1-1.2,12.3-1.8,18.6
		c-1.8-0.3-3.5-0.4-5.1-0.8c-0.4-0.2-0.7-0.6-0.7-1c-0.7-3.1-1.4-6.2-2-9.3c-0.2-0.9-0.8-1.6-1.5-2c-3.6-2.3-7.7-1.9-11.7-2.1
		c-0.5,0.1-1,0.4-1.4,0.7c-0.2,0.1-0.4,0.3-0.6,0.4c-2.6,3-5.9,2.4-8.9,1.2c-2.1-1-4.4-1.1-6.6-0.3c-2.4,0.9-5,1.4-7.5,2.2
		c-0.6,0.2-1,0.6-1.3,1.1c-1.8,5-3.6,10-5.3,15.1c-0.2,0.5-0.2,1.1-0.1,1.7c1.2,5.1,2.5,10.1,3.8,15.2c0.1,0.2,0.2,0.3,0.3,0.5
		c3.1-0.4,6.3-1.1,9.5-1.3c2.2,0,4.2-1.3,5.1-3.3c0.9-1.5,1.9-3,3-4.4c0.3-0.4,0.7-0.6,1.1-0.7c2.7-0.1,5.5,0,8.6,0l-9.7,17.4
		l16.6,2.2c-0.7,3.4-1.3,6.7-1.9,10c-0.4,1.9-0.7,3.8-1,5.7c-0.2,0.7,0.1,1.4,0.8,1.6c0.6,0.3,1.2,0.6,1.8,1
		c3.1,2.4,6.4,3.2,10.1,1.4c0.6-0.2,1.3-0.1,1.9,0.2c1.9,0.8,3.8,1.7,5.8,2.5c4.2-3.9,8.5-7.8,12.6-11.7c0.9-1,2.2-1.4,3.5-1.1
		c0.6,0.1,1.2,0.2,2,0.4l-2.7,5.2c2.2,0.6,4.3,1.1,6-0.9c0.9-1.1,1.9-1,3.2-0.6c4.2,1.4,8.4,2.6,12.6,4c1,0.3,2.1,0.1,2.9-0.5
		c2.2-1.4,3.9-1.2,5.9,0.7c4.9,4.6,10.2,8.8,15.4,13.1c0.7,0.5,1.5,0.8,2.4,0.8c1,0.1,2,0.1,2.9,0c1.6-0.2,3.1,0.4,4.1,1.7
		c1.6,2,3.4,3.8,5.3,5.5c1.5,1.3,2.4,3.2,2.4,5.2c0.1,1.8,0.4,3.6,0.6,5.4c0,0.4,0.1,0.7,0.3,1.1c1.3,2.1,2.6,4.2,4,6.4
		c2.3-1,4.6-1.9,6.8-2.8c0.6-0.3,1.4-0.2,2,0.3c2,1.1,3.4,3.2,3.6,5.5c0.1,1.1,0.7,1.5,1.9,1.5c3.7-0.1,7.4-0.1,11.1,0
		c0.8,0,1.6,0.2,2.3,0.6c3.9,2,7.8,4.1,11.7,6.3c0.5,0.4,0.9,0.8,1.2,1.3c0,0.1,0,0.2,0.1,0.3c2,3.8,1.3,7.3-0.8,10.8
		c-1.7,3-3.2,6.1-4.6,9.2c-0.5,1.6-1.8,2.7-3.4,3.1c-1.2,0.1-2,1.2-1.9,2.3c0,0.1,0,0.2,0,0.3c0,0.2,0,0.5,0,0.7
		c-0.7,2.9,0,6,1.9,8.2c0.3,0.5,0.3,1.1,0.2,1.7c-2.1,6.4-4.3,12.7-6.3,19c-0.1,0.6-0.7,1.1-1.3,1c-0.1,0-0.1,0-0.2,0
		c-3.2-0.5-5.8,0.8-8.3,2.4c-3.2,2-6.4,3.8-9.7,5.7c-0.7,0.3-1.1,1-1.1,1.8c0.1,2.7,0,5.3,0.1,8L689.2,586L689.2,586z M303,586
		c1.7-1.4,3.3-3.2,5.2-4.2c5-2.5,10.2-4.6,15.3-7c0.7-0.4,1.3-1,1.7-1.7c0.8-1.6,1.5-3.3,2.1-5c0.2-1.1,1.1-1.8,2.2-2
		c1.3-0.1,2.4-1,2.8-2.3c1.4-3.5,4.2-6.3,7.6-7.8c1.5,1.7,2.2,3.9,2,6.2c1.5-0.2,2.8-0.3,4.1-0.5c0.4-0.2,0.7-0.5,0.8-0.9
		c0.7-2.4,2-4.5,3.8-6.2c1.6-1.3,3.3-2.5,5.1-3.6c0.3-0.1,0.6-0.1,0.9-0.1c4.1,0.3,8.2,0.7,12.5,1c-0.3,0.6-0.6,1.3-1,2.1
		c-0.6,1.2-1.1,2.4-1.6,3.7c-0.4,1.1-1.9,2.2-0.5,3.6c0.9,1,1.8,1.9,2.9,2.7c1.4,0.8,2.8,1.4,4.2,2c1.2,0.6,2.3,1.2,3.4,2
		c1,0.8,1.9,1.7,3.3,2.9c0.9-3.6,1.9-6.9,2.4-10.2c0.6-3.8,0.6-7.7,1.1-11.5c0.1-1.1,1.2-2,1.8-3.1l0.5,0.1c0.2,0.4,0.4,0.8,0.5,1.2
		c1,3.3,2,6.5,3,9.8c0.2,0.7,0.6,1.3,1.2,1.7c1.6,0.6,2.6,2.1,2.5,3.8c0.1,0.4,0.1,0.8,0.1,1.3c-0.6,4.2,1.5,7.4,4,10.4
		c3.1,3.8,6.2,7.6,9.3,11.4L303,586L303,586z M98.8,586c1.2-2.7,2.6-5.4,3.7-8.1c0.2-0.9,0.2-1.8,0-2.6c-0.3-2.5-0.7-5-1-7.5
		c0-0.4-0.1-0.9,0-1.3c0.1-1.4,0.6-1.9,2-1.8c3.8,0.1,8.1-2.7,9.4-6c0.6-1.7,1.2-3.4,1.9-5.1c0.2-0.4,0.3-0.9,0.6-1.5
		c1.3,1.7,2.6,3.3,3.8,4.9c0.2,0.4,0.3,0.8,0.2,1.2c-0.1,1.7-0.1,3.3-0.1,5c0.6,5.2-1.7,9.6-3.4,14.2c-1.1,2.9-2.1,5.8-3.1,8.7
		L98.8,586L98.8,586z M714.2,249.6l9-2.6l-1.2-1.9l2.4-1.3l-3.2-1.5c0-0.2,0-0.3,0-0.5c1-0.3,2.1-0.5,3.1-0.6c2.8,0,5.5,0,8.1-1
		c1.1-0.4,2.2-0.9,3.3-1.4c0-0.1-0.1-0.2-0.1-0.4c-0.3,0-0.6,0.1-0.9,0.1c-2.7,0.3-5.3,0.6-8,0.9c-1.7,0-3.4,0.2-5.1,0.6
		c-2.7,1-5.1,0-7.6-0.7c-2.3-0.6-2.3-0.7-3.8-3.2c2.3,0.1,4.6,0.2,6.8,0.5c3.2,0.6,6-0.3,8.9-1.1c1.6-0.5,3.2-1,4.8-1.4
		c0.6-0.1,1.2,0,1.7,0.1c1.9,0.5,3.9,0.2,5.7-0.7c0.9-0.3,1.9-0.3,2.8-0.1c1.8,0.4,3.3,1,5.3,0.1c1.4-0.7,3.5-0.2,5.3-0.1
		c1,0,2,0.1,2.9,0.1c0.3,0,0.7,0,1,0.2c1.2,1.8,3.1,1,4.7,0.9c2,0,4-0.3,6-0.3c-2.9,1.7-6.2,2.7-9.6,2.7c-1.3,0-2.1,0.3-2.2,1.7
		c2,0.6,3.9,1.8,6.3,0.7c1.3-0.5,2.6-0.8,4-0.9c0.7-0.1,1.5,0,2.1,0.3c0.7,0.4,1.6,0.1,2-0.6c1.3-1.6,3.6-2.1,5.4-1.3
		c1.3,0.4,2.5,0.7,3.8,0.9l0.3-0.3l-2.3-1.4l0.4-0.5c2-0.1,4-0.2,6.1-0.2c0.4,0.1,0.8,0.4,1,0.8c0.4,0.6,0.7,1.2,0.9,1.8
		c1.4-2.5,3.2-2.6,5.4-1.4c0.8,0.3,1.5,0.4,2.3,0.4l-1-2.5c1.6-0.1,3.1-0.4,4.6,0.4c1.1,0.5,2.4,0.8,3.6,0.9
		c2.2,0.2,4.4,0.2,6.6,0.1c0.8-0.1,1.6-0.3,2.2-0.8c1.5-1,2.9-1.7,5-1.2c1.8,0.3,3.7,0.1,5.4-0.7c2.2-0.9,4.6-1.3,7-1.3
		c0.5,0.1,0.9,0.5,1.1,0.9c0.2,0.7,0.9,1.2,1.7,1c4.2-0.3,8.4-0.4,12.5-0.9c1.8-0.2,2.3,0.8,3,2.2c-2.2,0-4.5,0-6.7,0
		c-1.3,0-2.7,0.1-4,0.4c-1.5,0.6-3.1,1.2-4.5,2c0.1,0.3,0.2,0.5,0.2,0.8c2.6-0.4,5.2-0.9,7.9-1.2c1-0.1,2.1,0,3.1,0.3
		c0.9,0.3,1.8,0.4,2.7,0.1c2.2-0.6,4.4-1.1,6.9-1.6l-1.7,3.5l19.4-3.2c0.5,2.1,0.5,2.2-1.4,2.6c-3.6,0.7-7.1,1.9-10.3,3.6
		c-1.4,0.7-2.4,2.1-2.7,3.7c3.9,0.2,5.1,0.8,5.1,2.9c-2.1-0.5-4.3,0.3-5.6,1.9c-1.2,1.3-1.9,2.9-3,4.3c-0.5,0.7-1.2,1.2-2,1.4
		c-1.8,0.3-3.3,1.5-4,3.2c2.6,0.8,5.3,1.6,6.2,4.6l-0.3,0.5c-1-0.3-2-0.7-2.9-1.2c-1.8-1.2-3.7-0.9-5.6-0.4
		c-0.9,0.4-1.8,0.9-2.6,1.5c0.4,1.1,1.6,1.6,2.7,1.2c1.7-0.3,3.3-0.5,5-0.6c-0.5,1.5-0.8,2.5-1.2,3.5c-0.3,0.3-0.7,0.5-1.1,0.6
		c-1.6,0.6-3.2,1.2-4.8,1.6c-1.1,0.1-2.2,0.1-3.3,0c-1.8-0.1-3.6-0.3-5.6-0.4c0.1,1.8-1.4,2.1-2.6,2.7c-1.9,1-3.7,2-5.6,2.8
		c-0.8,0.3-1.7,0.3-2.5,0c-0.8-0.3-1.6-0.2-2.3,0.2c-1.5,0.9-3,1.8-4.6,2.5c-0.7,0.4-1.3,0.8-1,1.6c0.7,2-0.5,3.3-1.7,4.5
		c-0.8,0.8-1.4,1.9-1.6,3c-0.3,1.4-1.6,2.5-2.5,3.9c-1-0.4-1.9-0.8-2.9-1.1c-1.2-0.4-2.4-0.8-3.6-1c-2.8-0.4-4.4-2.4-6.1-4.1
		c-1.1-1.1-1.8-2.5-2.8-3.6c-2.4-2.6-1.3-5.6-1.2-8.4c0-0.8,1-1.6,1.7-2.2c1.1-0.9,1.3-2.5,0.4-3.6c0,0-0.1-0.1-0.1-0.1
		c-2.5-0.5-5.3,0.7-7.7-1.1c1.6-1.6,3.8-2.5,6.1-2.4c-0.6-1.2-1.6-2.2-2.9-2.6c-1.8-0.9-2.2,0.9-3.4,1.2c-1-0.8-1.3-1.7-0.4-2.9
		c0.2-0.4,0.2-0.9-0.1-1.3c-1.1-1.4-2.3-2.7-3.6-4c-0.2-0.3-0.5-0.5-0.8-0.6c-3.8-1.1-7.5-2.4-11.4-3.3c-1.7-0.4-3.6,0.1-5.4,0.3
		c-1.4,0.1-2.7,0.2-4.2,0.4c-0.2-0.5-0.3-1.1-0.5-1.7l3.6-1.9c-4.6-1-9.2,1-13.5-1.3c0.7-0.4,1.4-0.7,2.2-1c2.3-0.3,4.6-0.3,6.9-0.7
		c1.5-0.2,2.9-0.6,4.4-1.1c0.4-0.3,0.6-0.7,0.6-1.2c-0.2-0.4-0.5-0.7-0.9-0.7c-2.3-0.1-4.6-0.7-6.6-1.7c-0.5-0.2-1.1-0.2-1.6,0
		c-0.4,0.1-0.8,0.3-1.2,0.5c-2.9,1.9-6.2,2-9.5,1.6c-2.4-0.3-4.3,0.6-6.6,1.5c1.9,1.1,1.2,2.4,0.4,3.5c-0.3,0.5-0.8,0.8-1.3,0.9
		c-2.1,0.4-4.3,0.7-6.4,0.8c-1-0.1-1.9,0.4-2.5,1.1c-0.7,1-1.9,1.5-3,1.2C718.9,251.7,716.4,251,714.2,249.6z M370.3,511.5
		c3.9,2.3,7.6,4.4,11.4,6.6c2.4,1.4,4.7,2.9,7.2,4.1c4.2,2.1,7.5,5.2,10.9,8.4l-2.4,1c0.3,1.2,0.6,2.4,0.9,3.6
		c0.2,0.3,0.4,0.6,0.8,0.8c0.7,0.5,1.5,0.9,2.3,1.2c2.5,0.7,3.7,2.8,5,4.6c0.2,0.3,0.2,0.7,0,1.1c-1.6,2.4-1.7,2.4-4.4,1.5
		c-1.9-0.6-3-1.9-4.3-3.1c-1.5-1.6-3-3.1-4.4-4.8c-1.5-1.7-5.1-2.3-7.1-1.1c-0.3,0.2-0.5,0.6-0.5,0.9c-0.4,1.5-0.8,2.9-1.1,4.4
		c-5.2-1.9-9.3-4.8-11.5-9.8c-1.3-2.9-2.4-5.4-6.1-6.7c-5.1-1.9-9.3-5.6-13.2-9.4c-0.9-0.6-1.3-1.7-1-2.7c0.2-0.9,0.3-1.9,0.4-2.8
		c2.9,0.4,6.1-0.4,8.2,2.4c-0.1,0.2-0.2,0.6-0.3,0.9c-0.3,0.9-1,2.1-0.7,2.6c0.9,1.2,2,2.2,3.4,2.9c1.1,0.6,1.6-0.6,2.1-1.3
		C367.3,515.1,368.8,513.3,370.3,511.5z M318.6,488.9c-0.8,0.7-1.9,1.6-3,2.6c-0.3,0.2-0.5,0.4-0.8,0.6c-3,2.5-3.4,4.9-1.5,8.2
		c0.4,0.6,0.8,1.3,1.1,2c0.2,0.4,0.2,1,0,1.4c-1.1,1.2-1,2.5-0.9,3.9c0.2,0.8-0.3,1.5-1.1,1.7c0,0,0,0,0,0c-2.6,0.7-3.7,2.5-4.3,4.9
		c-0.5,2.2-1.3,4.3-1.9,6.3c-0.1,0-0.3,0-0.4,0c-2.3-3.5-6-2.4-9.3-2.6c-0.5,0-1.1,0.9-1.8,1.5l-4.5-2c-0.1-0.5-0.1-1,0-1.6
		c0.5-2-0.1-4.2-1.6-5.6c-1.8-2-1.5-4.5-1.5-6.8c0-0.9,1.6-1.9,2.5-2.8c1.3,1.2,2.5,2,4.1,1.5c0.5-0.2,0.8-0.6,1.1-1
		c0.1-0.2,0.1-0.4,0.1-0.6c0.1-3.1,1.8-5.5,4.1-7.6c2-1.8,4.1-3.5,6.1-5.3s3.7-3.8,5.5-5.7L318.6,488.9z M373.1,352.3l11,9.1
		c-2.5,2.2-6.1,2.8-9.2,1.6c0.3,1.3,0.7,2.7,1.1,4c1.7,4.1,1.7,8.5,1.8,12.8c0,2.8-1,5.4-2.8,7.5c-0.3,0.3-0.8,0.5-1.3,0.4
		c-1.6-0.3-3.1-0.8-4.7-1.1c-0.5,0-1,0.2-1.5,0.4c-0.1,0-0.2,0.1-0.2,0.2c-2.6,3.8-6.4,5-10.8,5.2c-0.5,0.1-0.9,0.2-1.3,0.5
		c-0.7,0.5-1.4,1.1-2.2,1.7c-1.3-2-2.6-4-3.9-5.9c-0.1-0.2-0.2-0.4-0.1-0.6c0.9-1.6,1.3-3.4,2.9-4.6c2.6-2,5.5-2,8.5-1.7
		c1.3,0.1,2.2-0.1,2.7-1.3c0.1-0.2,0.2-0.3,0.3-0.5c0.9-2,2.8-3.4,4.9-3.7c0.8-0.3,1.5-0.8,1.9-1.4c2.2-2.2,2.7-5.6,1.3-8.4
		c-1.5-3.5-0.1-7,0.6-10.4C372.4,355,372.7,353.9,373.1,352.3L373.1,352.3z M-54.4,324.3c-0.6-1.7-1.1-3.2-1.6-4.7
		c0-0.4,0-0.8,0.2-1.2c0.3-0.6,0.5-1.3,0.5-2c-0.2-2,0.7-3.1,2.7-3.4c0.1,0,0.3-0.1,0.4-0.2c3.8-1.8,8.1-2.4,12.3-1.8
		c-0.2-1.3-0.2-2.2-0.4-3.2c-0.2-0.8-0.5-1.6-0.9-2.2c-1.3-1.9-0.3-3.7,0.3-5.5c0.1-0.3,0.4-0.5,0.7-0.6c1.2-0.5,2.4-0.8,3.7-1.3
		c0.1,0.3,0.1,0.6,0.1,0.9c-0.3,2.2-0.3,2.2,1.9,2.9c0.7,0.2,1.4,0.5,2.2,0.8c-0.6,1.1-1.1,2.1-1.6,3.1c-0.2,0.4-0.1,0.8,0.1,1.2
		c2.4,2.3,4.4,5,6,7.8c1.1,1.8,2.7,3.2,4.6,4c1,0.4,1,0.9,0.7,1.9c-1,3.2-3.9,4.1-6.5,4.1c-3.8,0-7.6,0.9-10.9,2.7
		c-0.4,0.2-0.9,0.4-1.4,0.5c0.2-2.1,0.5-3.9,0.6-5.8c0.1-1.6,0.8-3,1.8-4.2c0.8-1.3,1.6-2.7,2.1-4.2c-2.5,0.3-4.7,0.5-6.9,0.8
		c-0.4,0.2-0.7,0.4-1,0.8c-1.3,1.3-2.5,2.7-3.6,4.1C-49.7,321.7-51.8,323-54.4,324.3L-54.4,324.3z M275.7,528.6
		c-2.7-2.2-5.2-4.6-8-6.6c-3.1-2.2-4.8-5.1-6.2-8.5c-2.4-5.6-4.3-11.5-7.9-16.6c-1.2-1.7-2.8-3.1-3.9-4.8c-0.7-1.4-1.3-2.9-1.7-4.5
		c0.2-0.3,0.6-0.6,0.9-0.6c2.4,0.7,4.8,1.5,7.2,2.4c0.4,0.2,0.6,0.5,0.7,0.9c0.3,3.6,2.8,6.1,5,8.6c1.8,2.2,3.9,4.2,5.8,6.2
		c0.2,0.3,0.4,0.5,0.7,0.7c2.3,0.4,2.4,2.3,2.7,3.9c0.4,2.2,2,3,3.8,3.6c1.3,0.4,2.6,0.6,3.8,1c1,0.1,1.7,1,1.6,2
		c0,0.3-0.1,0.5-0.3,0.8c-0.4,0.9-0.7,1.8-1.2,2.6c-1.1,1.6-1.3,3.6-0.6,5.4c0.3,0.7,0,1.6-0.7,1.9C277,527.4,276.4,528,275.7,528.6
		z M651.7,262l1.3-1.7c0-0.1-0.1-0.2-0.1-0.3c-2.9,1.1-5.8,2.3-8.7,3.4c-0.7,0.2-1.4,0.3-2,0.1c-1.9-0.6-3.7-1.4-5.8-2.2l4.8-2.9
		l-1.9-2.2c2.6-0.3,5-1.6,7.5,0c1.3,0.8,3,1,4.4,0.3c0.6-0.2,1.3-0.2,2,0c3,0.9,6,2,9.1,2.9c1.7,0.6,3.6,0.9,5.4,1
		c2.1-0.1,4.2,0.5,6,1.6c0.4,0.2,0.8,0.4,1.2,0.6c-0.4-1.5-0.8-2.9-1.2-4.3c0.9-0.2,1.7-0.4,2.6-0.5c0.4,0.1,0.7,0.3,1,0.6
		c1.1,1.3,2,2.7,3.1,3.9c1.9,2.2,4.4,3.8,7.2,4.4c-1.9,1-3.5,1.8-5.1,2.6c-0.3,0.2-0.7,0.2-1.1,0.1c-3.7-1.1-7.2-0.4-10.8,0.5
		c-2.4,0.6-4.9,0.7-7.3,0.4c-2-0.3-3.9-1.6-6.2-2.6l7.1-2C661,263.8,656.8,262.5,651.7,262L651.7,262z M263.9,483.6
		c0.3,0.1,0.6,0.1,0.9,0.1c1.2-0.3,2.4,0.4,2.9,1.5c0.5,0.6,1.1,1.2,1.8,1.6c0.8,0.6,1.6,1.2,2.3,1.9c1.3,1.3,1.2,2.9,0.9,4.5
		c-0.4,2.9,0.3,5.9,1.8,8.4c0.2,0.3,0.4,0.7,0.5,1c0,0.1,0,0.3,0,0.4c-2.4-0.3-4.7,0-6.7-2c-2.8-2.7-4.9-6.1-6.1-9.8
		c-1-3.2-2.3-6.2-3.7-9.2c-1.5-3.1-1.8-5.9,1.1-8.4C262.7,476,264.2,479.8,263.9,483.6z M871,281.3c-4.2,3.8-9.6,6.2-15.2,6.8
		c-2.2,0.3-4.4-0.4-5.9-2c-2.5-2.9-6-4.8-9.9-5.3c-0.2,0-0.4-0.2-0.5-0.3c5.5-0.8,11.3,0.1,16.3-3.4c0.5,1.2,0.9,2.1,1.3,3.2
		c2-1.3,3.9-2.5,5.7-3.8c0.6-0.6,1.5-0.6,2,0c0,0,0,0,0,0C866.8,278.1,868.9,279.7,871,281.3z M319.7,503.1c3.1,0.3,5.9,0.5,8.6,0.9
		c1,0.2,1.9-0.1,2.6-0.8c0.6-0.7,1.4-1.2,2.2-1.9l2,2c-1.1,1-2.2,2.1-3.4,3c-0.3,0.3-0.7,0.4-1.2,0.5c-2.9,0.3-5.8,0.7-9,1l0.9,3
		l4.9-0.9c0.8,1.4,0.4,3.2-1,4.1c-0.9,0.5-1.2,1.6-0.7,2.5c0.1,0.1,0.2,0.3,0.3,0.4c0.3,0.5,0.5,1.2,0.8,1.7
		c1.6,2.4,1.9,5.4,0.9,8.1L322,518c-1.4,3.2-1,6.5-1,9.8c-2.1-0.9-2.4-1.6-2.6-3.5c-0.2-1.5-0.7-3-1.4-4.3c-0.9-1.7-0.9-3.7-0.1-5.4
		c0.8-2,0.9-4.2,1.4-6.3C318.7,506.4,319.3,504.6,319.7,503.1z M123,247.8c4.3-2.9,7.8-6.6,12.7-8.5c1.7-0.6,3.3-1.4,4.9-2.2
		c2.4-1.3,5.2-1.8,7.9-1.3c0.8,0.1,1.6,0.1,2.7,0.2c-6,4.2-12.4,7.9-18.9,11.1c0.8,2.5,1.6,4.9,2.3,7.2c0.1,0.6,0.1,1.2,0.1,1.8
		c-0.7,0-1.3,0-2-0.1c-3.7-0.6-6.8-2.9-8.5-6.3C123.9,249,123.4,248.4,123,247.8L123,247.8z M277.1,530.8c1.3-0.8,3-1,4.4-0.5
		c3.1,0.6,6.3,0.9,9.5,1.3c0.2,0,0.4,0,0.5-0.2c1.4-1.1,3-0.7,4.5-0.4c0.5,0.1,1.1,0.1,1.6,0.2c2.3,0.1,4.4,0.9,6.1,2.5
		c1.3,1,2.8,1.6,4.4,1.8c4.1,0.7,8.2,1.5,12.2,2.4c-4.2,1.1-8.1,3-12.9,1.9c-8.4-1.9-16.9-3.3-25.1-6
		C280.6,533.1,279,531.8,277.1,530.8L277.1,530.8z M8.5,246.1h29.4c-0.5,0.7-0.9,1.3-1.3,1.7c-0.9,1.1-1.9,2.2-2.7,3.4
		c-0.8,1.2-2.1,1.8-3.5,1.8c-3.8,0.2-7.6,0.6-11.4,1c-0.5,0.1-0.9,0-1.4-0.2C14.7,251.2,11.7,248.8,8.5,246.1z M375.4,349.9
		c3.6-7.8,7.1-15.3,10.6-22.9l4.8,1.3c-0.2,1.6-0.5,3.1-1,4.6c-2.4,5.3-4.9,10.6-7.4,15.9c-0.2,0.8-1,1.2-1.8,1.1
		C379,349.9,377.4,349.9,375.4,349.9z M323.8,461.8c-1.5-2.7-3.4-5.3-4.4-8.1c-1.4-3.5-1.2-7.5,0.4-10.9c0.2-0.3,0.5-0.4,0.8-0.5
		c1.6-0.3,3.2-0.5,5.1-0.7c0.2,1.3,0.5,2.5,0.6,3.6c0.2,2.1,0.5,4.2,0.5,6.3c-0.1,0.9-0.4,1.7-0.9,2.4c-0.8,1.2-1.2,2.4-0.5,3.8
		C326.5,459.8,324.9,460.7,323.8,461.8z M335.2,486.4c-3.2-0.2-5-2.2-6.5-4.3c-0.3-0.4-0.4-0.9-0.4-1.4c0.6-3.1,0.5-6.2-0.2-9.3
		c0-0.9,0.5-1.8,1.2-2.3c0.3-0.2,1.7,0.3,2.1,0.8c1.9,2.4,3.6,5,5.5,7.5c1.3,1.7,0.6,3.5,0.1,5.1C336.6,483.8,336,485.2,335.2,486.4
		L335.2,486.4z M333.1,239.8c1.7-0.8,3.5-1.4,5.3-2c4.3-1,8.4-0.3,12.5,1.1c2.2,0.7,4.5,1.1,7.2,1.7c-1.5,1.4-2.8,2.8-4.2,4
		c-0.4,0.1-0.7,0.1-1.1,0.1c-6.8-0.4-13.1-2.5-19.5-4.4L333.1,239.8z M655,249.9l-11.1,1l-0.1-0.5c4.6-2.2,9.7-2.1,14.7-2.6
		l-0.1,0.4c0.5,0.4,0.9,0.8,1.4,1.2c4.3,2.7,9,1.9,13.5,1.2c2.3-0.3,3.7,0.6,5.4,1.6c-2.4,1.7-5.4,2.4-8.3,2
		c-4.4-0.7-8.9-0.9-13.3-1.1c-1.5-0.1-1.9-0.8-1.9-2C655.1,250.6,655.1,250.2,655,249.9L655,249.9z M716.8,244.3
		c-2.9,0.8-5.4,1.4-7.8,2.1c-0.1,0-0.3,0-0.4,0c-3.5-1.1-7-2.1-9.5-4.9c3.1-2.5,6.7-2.1,10.3-1.2c1.7,0.3,3.4,0.8,5,1.5
		C715.2,242.1,715.8,243.2,716.8,244.3L716.8,244.3z M206.2,475c1.7,0.7,3.2,1.3,4.6,2.1c0.5,0.3,0.9,0.9,1,1.5
		c0,1.6-0.1,3.1-0.3,4.7c-0.1,0.3-0.4,0.6-0.7,0.7c-1.7,0.3-3.4,0.6-5.1,0.7c-0.4,0-0.8-0.2-1.1-0.6c-0.6-1.3-1.2-2.7-0.5-4.2
		C204.9,478.4,205.5,476.8,206.2,475z M697.2,262.7c-4.1,2-7.3,1.1-11.2-2.7c2.5-2.4,5.6-1.9,8.6-1.9c0.3,0.1,0.5,0.3,0.6,0.5
		C695.9,260,696.6,261.3,697.2,262.7z M701.9,262.1l-3.5-3.8l12.3-2.2c0,0.1,0.1,0.3,0.1,0.4c-1.5,0.9-2.9,1.9-4.4,2.8
		C705,260.2,703.5,261.1,701.9,262.1L701.9,262.1z M118.4,363.2c-1.9-2.1-3.9-4.3-5.8-6.5c-0.9-1-1.7-2.2-2.3-3.4
		c-0.8-1.5-1.5-3.1-2.3-4.9c1.1-1.4,2.3-2.7,3.6-3.9c1.1-0.8,2.2-1.5,3.4-2.1c1.4-1,2.7-2.1,4.2-3.1c0.6-0.3,1.3-0.4,2-0.3
		c1.9,0.4,3.9,1,5.9,1.6c-0.7,2.3-1.8,4.1-4.2,4.9c-1.2,0.4-1.4,1.2-1.3,2.3c0.1,2.1,1.1,4,2.7,5.3c2.1,1.6,3,4.3,2.5,6.9
		c-0.1,1.5,0.1,3,0.7,4.4c0.5,1.4,1.4,2.7,1.9,4.1c0.3,0.7,0.5,1.5,0.5,2.3c0,1.3,0.2,3.1-0.5,3.6c-1.6,1.2-3.4,2.4-5.8,2.1
		c-0.9-0.1-1.8,0-2.6-0.2c-0.8-0.2-1.5-0.6-2.1-1.1c-1.2-0.8-2.3-1.8-3.5-2.5c-0.6-0.3-0.9-1-0.7-1.6c0.3-1.8,1-3.5,2-4.9
		C117.1,365.3,117.6,364.4,118.4,363.2z M65.4,341l5.2,3.3l-0.9,3.2c1.4,0.7,2.7,1.1,4.2,0.4c2.7-1.4,5.2-1.1,8,0.1
		c4.3,1.9,8,4.6,11.7,7.3c0.3,0.2,0.4,0.6,0.4,0.9c-0.4,3.3-0.4,3.4-3.8,3.8c-2.7,0.2-5.5,0.2-8.2,0.1c-0.4-0.1-0.8-0.2-1.2-0.5
		c-1.6-0.7-3.3-1.3-4.8-2.2c-3.9-2.1-7.2-1-10.4,1.4c-2.5,1.9-7.5,2.1-9.8,0.2c-1-1.1-1.9-2.3-2.6-3.6c2.8-1.3,2.5-4.2,3.7-6.3
		C59,345.7,62,342.9,65.4,341L65.4,341z"/></g><g id="Rounded_Rectangle_22"><path class="st2" d="M570.2,338.6H174.3c-23,0-41.8-18.8-41.8-41.8c0-23,18.7-41.8,41.8-41.8h395.9c23,0,41.8,18.8,41.8,41.8
		C612,319.9,593.2,338.6,570.2,338.6z M174.3,260.1c-20.3,0-36.8,16.5-36.8,36.8c0,20.3,16.5,36.8,36.8,36.8h395.9
		c20.3,0,36.8-16.5,36.8-36.8c0-20.3-16.5-36.8-36.8-36.8H174.3L174.3,260.1z"/></g><text id="Search_Projects..." transform="matrix(1.0017 0 0 1 174.7969 305.1687)" class="st2 st3 st4">Search Projects...</text><g><polygon class="st2" points="606.2,345.1 595.4,355.9 584.2,344.8 595,334 	"/><path class="st5" d="M641.6,391.4L641.6,391.4c-6.4,6.4-16.9,6.4-23.3,0l-31.7-31.7l23.3-23.3l31.7,31.7
		C648,374.5,648,385,641.6,391.4z"/><path class="st2" d="M593.3,252.6c-25-24.7-65.2-25-90.2,0s-25.3,64.8-0.3,89.8c24.7,25,65.2,25,90.2,0.3
		C618,318.1,618,277.5,593.3,252.6z"/><path class="st6" d="M583.2,332.9c-19.6,19.3-51.3,19.3-70.6-0.3c-19.6-19.3-19.3-51,0.3-70.3c19.6-19.3,51.3-19.3,70.6,0.3
		C602.8,281.9,602.8,313.7,583.2,332.9z"/><path class="st7" d="M573.4,323.1c-14.2,13.8-37.2,13.8-51,0c-14.2-14.2-13.8-36.8,0-51c14.2-13.8,37.2-13.8,51,0
		C587.6,286.3,587.6,309,573.4,323.1z"/><path class="st7" d="M565.6,315.4c-9.8,9.8-25.7,9.8-35.5,0c-9.8-9.8-9.8-25.7,0-35.5c9.8-9.8,25.7-9.8,35.5,0
		C575.4,289.7,575.4,305.6,565.6,315.4z"/><g><ellipse transform="matrix(0.7082 -0.706 0.706 0.7082 -47.6115 456.0366)" class="st2" cx="527.9" cy="285.6" rx="5.4" ry="5.4"/><ellipse transform="matrix(0.7082 -0.706 0.706 0.7082 -48.9344 463.2242)" class="st2" cx="535.9" cy="290.8" rx="2.7" ry="2.7"/></g><polygon class="st8" points="609.9,336.3 586.2,359.3 596,369.1 619.3,345.8 	"/></g></svg>