<svg version="1.1" id="screen2" xmlns="http://www.w3.org/2000/svg" xmlns:xlink="http://www.w3.org/1999/xlink" x="0px" y="0px" viewBox="0 0 750 631" style="enable-background:new 0 0 750 631" xml:space="preserve"><style type="text/css">.st0{fill:#0196D6;} .st1{opacity:0.11;clip-path:url(#bg_copy_2_);fill:#FFFFFF;enable-background:new ;} .st2{clip-path:url(#bg_copy_2_);} .st3{fill:#F48967;} .st4{fill:#A82A00;} .st5{fill:#7C4025;} .st6{fill:#523628;} .st7{fill:#2B345E;} .st8{fill:#38437A;} .st9{fill:#47231C;} .st10{fill:#D1D3D4;} .st11{fill:#ED1C24;} .st12{fill:#FFFFFF;} .st13{fill:#24253D;} .st14{fill:#FFB287;} .st15{fill:#333656;} .st16{fill:#1E2033;} .st17{fill:#272A42;} .st18{fill:none;stroke:#572B22;stroke-width:2.8313;stroke-linecap:round;stroke-miterlimit:10;} .st19{fill:#733C1C;} .st20{fill:#904D25;} .st21{fill:#602E14;} .st22{fill:#D1FFEE;} .st23{fill:#A96131;} .st24{fill:#FFEF2C;} .st25{fill:#6D3B08;} .st26{fill:#542E06;} .st27{fill:#2F3765;} .st28{fill:none;} .st29{fill:#D69B25;} .st30{fill:#8E2301;} .st31{fill:#D7EAFB;stroke:#6AB3F7;stroke-width:2;stroke-linejoin:round;} .st32{opacity:0.2;fill:none;stroke:#494949;stroke-linejoin:round;enable-background:new ;} .st33{fill:#FFFFFF;stroke:#58AEFF;} .st34{fill:#A5E6A1;stroke:#6FC06A;} .st35{fill:#F2F593;stroke:#D9CE1F;} .st36{fill:#B2E3FD;stroke:#77BBE0;} .st37{fill:#FFD15C;stroke:#E0AE30;} .st38{fill:#D7EAFB;stroke:#FFFFFF;stroke-width:2;} .st39{fill:#4BA4F4;}</style><path id="bg_copy" class="st0" d="M0,0h750v554c0,0-184.2,77-368,77C190.9,631,0,554,0,554V0z"/><g><defs><path id="bg_copy_1_" d="M0,0h750v554c0,0-184.2,77-368,77C190.9,631,0,554,0,554V0z"/></defs><clipPath id="bg_copy_2_"><use xlink:href="#bg_copy_1_" style="overflow:visible"/></clipPath><path id="map_copy" class="st1" d="M688,290.1c2,1.2,4.2,1.9,6.6,2c1.1,0.2,2.2-0.2,2.8-1.1c0.5-0.7,1.4-1.1,2.3-1.1
		c2-0.1,3.9-0.4,5.9-0.8c0.5-0.1,0.9-0.4,1.2-0.9c0.8-1.1,1.4-2.2-0.4-3.3c2.1-0.8,3.9-1.7,6.1-1.4c3,0.4,6,0.3,8.7-1.5
		c0.3-0.2,0.7-0.4,1.1-0.5c0.5-0.1,1-0.1,1.5,0c1.9,0.9,4,1.4,6.1,1.6c0.4,0.1,0.7,0.3,0.9,0.7c0,0.4-0.2,0.8-0.6,1.1
		c-1.3,0.5-2.6,0.8-4,1c-2.1,0.3-4.2,0.3-6.3,0.6c-0.7,0.2-1.4,0.5-2,0.9c4,2.2,8.2,0.4,12.4,1.2l-3.3,1.7c0.2,0.5,0.3,1,0.4,1.5
		c1.4-0.1,2.6-0.2,3.9-0.3c1.7-0.1,3.4-0.6,5-0.3c3.5,0.8,7,2,10.5,3c0.3,0.1,0.5,0.3,0.7,0.5c1.1,1.2,2.2,2.4,3.3,3.7
		c0.2,0.4,0.3,0.8,0.1,1.2c-0.6,0.7-0.6,1.7,0,2.4c0.1,0.1,0.3,0.2,0.4,0.3c1.1-0.3,1.5-1.9,3.2-1.1c1.2,0.4,2.2,1.3,2.7,2.4
		c-2.1-0.1-4.1,0.7-5.6,2.2c2.2,1.7,4.8,0.6,7.1,1c0.8,1,0.7,2.4-0.2,3.3c0,0-0.1,0.1-0.1,0.1c-0.6,0.6-1.5,1.4-1.6,2.1
		c-0.1,2.6-1.1,5.4,1.1,7.7c1,1,1.6,2.4,2.6,3.3c1.6,1.6,3.1,3.4,5.6,3.8c1.1,0.2,2.3,0.5,3.3,0.9c0.9,0.3,1.7,0.7,2.7,1
		c0.9-1.3,2-2.3,2.3-3.6c0.2-1,0.7-2,1.5-2.8c1.1-1.1,2.2-2.3,1.6-4.1c-0.3-0.8,0.2-1.2,0.9-1.5c1.4-0.7,2.9-1.5,4.2-2.3
		c0.6-0.4,1.4-0.5,2.1-0.2c0.7,0.2,1.5,0.2,2.3,0c1.8-0.8,3.4-1.7,5.1-2.6c1.1-0.6,2.5-0.8,2.3-2.5c1.9,0.1,3.5,0.3,5.2,0.4
		c1,0.1,2,0.1,3,0c1.5-0.4,3-0.9,4.4-1.5c0.4-0.1,0.7-0.3,1-0.5c0.4-0.9,0.7-1.9,1.1-3.2c-1.5,0.1-3.1,0.3-4.6,0.5
		c-1,0.4-2.1-0.1-2.5-1.1c0.7-0.5,1.5-1,2.4-1.3c1.7-0.5,3.5-0.7,5.2,0.4c0.8,0.5,1.7,0.8,2.6,1.1c0.1-0.2,0.2-0.3,0.2-0.5
		c-0.8-2.7-3.2-3.4-5.7-4.2c0.6-1.5,2-2.6,3.7-2.9c0.7-0.2,1.4-0.7,1.8-1.3c1-1.3,1.6-2.8,2.7-4c1.3-1.5,3.3-2.2,5.2-1.8
		c-0.1-1.9-1.1-2.4-4.7-2.6c0.2-1.4,1.2-2.7,2.4-3.4c3-1.6,6.2-2.7,9.5-3.3c1.8-0.4,1.8-0.5,1.3-2.4l-17.9,3c0.5-1.1,1-2,1.6-3.2
		c-2.3,0.5-4.4,0.9-6.4,1.5c-0.8,0.2-1.7,0.2-2.4-0.1c-0.9-0.3-1.9-0.4-2.8-0.3c-2.4,0.3-4.8,0.7-7.2,1.1l-0.2-0.7
		c1.3-0.7,2.7-1.3,4.2-1.8c1.2-0.3,2.4-0.4,3.6-0.4c2-0.1,4.1,0,6.1,0c-0.7-1.3-1.1-2.2-2.8-2.1c-3.8,0.4-7.7,0.5-11.5,0.8
		c-0.7,0.1-1.3-0.3-1.5-0.9c-0.2-0.4-0.6-0.8-1-0.9c-2.2,0-4.4,0.4-6.4,1.2c-1.5,0.7-3.3,1-5,0.7c-1.6-0.4-3.3,0-4.6,1.1
		c-0.6,0.4-1.3,0.7-2.1,0.7c-2,0.1-4.1,0-6.1-0.1c-1.1-0.1-2.3-0.3-3.3-0.8c-1.4-0.7-2.7-0.5-4.2-0.4l0.9,2.3
		c-0.7,0-1.5-0.1-2.1-0.4c-2-1.2-3.7-1-4.9,1.2c-0.2-0.6-0.5-1.1-0.9-1.6c-0.2-0.4-0.5-0.6-0.9-0.8c-1.9,0-3.7,0.1-5.6,0.2
		c-0.1,0.2-0.2,0.3-0.3,0.5l2.1,1.3l-0.2,0.3c-1.2-0.2-2.4-0.5-3.5-0.8c-1.7-0.8-3.8-0.3-5,1.2c-0.4,0.6-1.2,0.8-1.9,0.5
		c-0.6-0.2-1.3-0.3-2-0.3c-1.3,0.1-2.5,0.3-3.7,0.8c-2.2,1-3.9-0.1-5.8-0.6c0.1-1.3,0.8-1.6,2-1.6c3.1,0,6.1-0.9,8.8-2.5
		c-1.9,0-3.7,0.3-5.5,0.3c-1.5,0-3.2,0.8-4.3-0.9c-0.3-0.1-0.6-0.2-0.9-0.2c-0.9,0-1.8-0.1-2.7-0.1c-1.6,0-3.5-0.5-4.8,0.1
		c-1.8,0.9-3.2,0.3-4.9-0.1c-0.8-0.3-1.7-0.2-2.5,0.1c-1.6,0.8-3.5,1-5.2,0.6c-0.5-0.2-1.1-0.2-1.6-0.1c-1.5,0.4-2.9,0.8-4.4,1.3
		c-2.7,0.8-5.3,1.6-8.2,1.1c-2.1-0.3-4.2-0.4-6.3-0.5c1.3,2.3,1.3,2.3,3.5,2.9c2.3,0.6,4.4,1.5,7,0.6c1.5-0.4,3.1-0.6,4.7-0.6
		c2.5-0.3,4.9-0.6,7.4-0.8c0.3,0,0.5-0.1,0.8-0.1c0,0.1,0.1,0.2,0.1,0.3c-1,0.4-2,0.9-3,1.3c-2.4,0.7-5,1-7.5,0.9
		c-1,0.1-1.9,0.3-2.9,0.6c0,0.1,0,0.3,0,0.4l3,1.4L695,286l1.1,1.8L688,290.1z M371.8,530.6c-1.4,1.7-2.7,3.3-4,4.9
		c-0.5,0.6-0.9,1.7-1.9,1.2c-1.2-0.7-2.3-1.6-3.1-2.7c-0.3-0.5,0.4-1.6,0.6-2.4c0.1-0.3,0.2-0.6,0.2-0.8c-2-2.6-4.9-1.8-7.6-2.2
		c0,0.9-0.1,1.7-0.3,2.6c-0.3,0.9,0.1,1.9,0.9,2.5c3.6,3.5,7.4,6.9,12.1,8.6c3.3,1.2,4.4,3.5,5.6,6.2c2,4.5,5.8,7.2,10.6,9
		c0.4-1.4,0.7-2.7,1.1-4.1c0.1-0.3,0.2-0.6,0.5-0.9c2.2-1,4.7-0.6,6.5,1c1.3,1.5,2.7,2.9,4.1,4.4c1,1.3,2.4,2.3,3.9,2.9
		c2.5,0.8,2.6,0.8,4-1.4c0.2-0.3,0.2-0.7,0-1c-1.2-1.7-2.3-3.5-4.6-4.2c-0.8-0.3-1.5-0.7-2.1-1.1c-0.3-0.1-0.6-0.4-0.7-0.7
		c-0.3-1.1-0.6-2.2-0.8-3.3l2.2-1c-3.1-3-6.2-5.8-10.1-7.8c-2.3-1.1-4.4-2.5-6.6-3.8C378.8,534.6,375.4,532.7,371.8,530.6z
		 M324.3,509.8l-7.3-6.3c-1.6,1.7-3.3,3.6-5,5.2s-3.7,3.2-5.6,4.9c-2.2,1.7-3.5,4.2-3.7,7c0,0.2,0,0.4-0.1,0.5
		c-0.3,0.4-0.6,0.7-1.1,0.9c-1.5,0.4-2.6-0.3-3.8-1.4c-0.8,0.9-2.3,1.8-2.3,2.6c0,2.1-0.2,4.4,1.4,6.2c1.4,1.3,1.9,3.3,1.5,5.2
		c-0.1,0.5-0.1,1,0,1.4l4.1,1.8c0.7-0.6,1.2-1.4,1.7-1.4c3,0.2,6.5-0.8,8.6,2.4c0.1,0,0.2,0,0.3,0c0.6-1.9,1.3-3.8,1.8-5.8
		c0.5-2.2,1.6-3.9,3.9-4.5c0.7-0.1,1.2-0.8,1-1.5c0,0,0,0,0,0c-0.1-1.2-0.2-2.5,0.8-3.6c0.2-0.4,0.2-0.9,0-1.3
		c-0.3-0.6-0.7-1.2-1-1.8c-1.8-3.1-1.4-5.2,1.4-7.6c0.2-0.2,0.5-0.4,0.7-0.6C322.6,511.4,323.6,510.5,324.3,509.8L324.3,509.8z
		 M374.4,384.4c-0.3,1.4-0.6,2.4-0.8,3.5c-0.6,3.2-1.9,6.3-0.5,9.6c1.3,2.6,0.8,5.6-1.2,7.7c-0.4,0.6-1.1,1.1-1.8,1.3
		c-2,0.2-3.8,1.5-4.5,3.4c-0.1,0.2-0.2,0.3-0.3,0.4c-0.5,1.1-1.3,1.3-2.5,1.2c-2.8-0.3-5.4-0.3-7.8,1.6c-1.5,1.2-1.9,2.8-2.7,4.3
		c0,0.2,0,0.4,0.1,0.6c1.2,1.8,2.3,3.6,3.5,5.4c0.7-0.6,1.3-1.1,2-1.6c0.4-0.3,0.8-0.4,1.2-0.5c4-0.2,7.6-1.3,10-4.8
		c0-0.1,0.1-0.1,0.2-0.2c0.4-0.2,0.9-0.4,1.4-0.4c1.5,0.3,2.9,0.7,4.3,1c0.4,0.1,0.9-0.1,1.2-0.4c1.6-1.9,2.5-4.4,2.5-6.9
		c-0.1-4,0-8-1.6-11.8c-0.4-1.2-0.8-2.4-1-3.6c2.9,1.1,6.1,0.5,8.5-1.5L374.4,384.4z M-18.5,358.7c2.4-1.2,4.3-2.4,5.7-4.3
		c1-1.3,2.1-2.6,3.3-3.8c0.2-0.3,0.5-0.6,0.9-0.7c2-0.3,4-0.5,6.4-0.7c-0.5,1.3-1.2,2.6-2,3.9c-1,1.1-1.6,2.4-1.7,3.8
		c0,1.7-0.3,3.4-0.5,5.3c0.4-0.1,0.8-0.3,1.2-0.5c3.1-1.6,6.5-2.5,10-2.4c2.4,0,5.1-0.8,6-3.8c0.3-0.9,0.2-1.3-0.6-1.7
		c-1.8-0.7-3.3-2-4.2-3.7c-1.5-2.6-3.4-5.1-5.6-7.2c-0.2-0.3-0.3-0.7-0.1-1.1c0.4-1,0.9-1.9,1.5-2.9c-0.8-0.3-1.4-0.5-2-0.7
		c-2-0.7-2-0.7-1.7-2.7c0-0.3,0-0.5-0.1-0.8c-1.2,0.4-2.3,0.8-3.4,1.2c-0.3,0.1-0.5,0.3-0.6,0.6c-0.6,1.7-1.4,3.3-0.3,5.1
		c0.4,0.6,0.7,1.3,0.8,2.1c0.2,0.8,0.2,1.7,0.4,2.9c-3.9-0.6-7.8,0-11.3,1.6c-0.1,0.1-0.2,0.1-0.4,0.1c-1.9,0.3-2.7,1.3-2.5,3.1
		c-0.1,0.6-0.2,1.3-0.5,1.9c-0.1,0.4-0.2,0.7-0.2,1.1C-19.5,355.8-19,357.1-18.5,358.7z M284.8,546.2c0.7-0.5,1.3-1,1.9-1.4
		c0.7-0.3,0.9-1.1,0.6-1.8c-0.6-1.7-0.4-3.5,0.6-5c0.4-0.8,0.8-1.6,1.1-2.4c0.5-0.8,0.2-1.8-0.5-2.3c-0.2-0.1-0.5-0.2-0.7-0.2
		c-1.2-0.3-2.4-0.5-3.5-0.9c-1.7-0.5-3.2-1.3-3.5-3.3c-0.3-1.5-0.4-3.2-2.5-3.6c-0.3-0.1-0.5-0.4-0.7-0.6c-1.8-1.9-3.7-3.7-5.3-5.7
		c-2-2.4-4.3-4.6-4.6-7.9c-0.1-0.4-0.3-0.7-0.7-0.8c-2.2-0.8-4.4-1.5-6.6-2.2c-0.4,0.1-0.7,0.3-0.9,0.6c0.3,1.4,0.8,2.8,1.5,4.1
		c1,1.6,2.5,2.9,3.5,4.4c3.3,4.7,5.1,10.1,7.2,15.3c1.1,3.1,3.1,5.8,5.7,7.8C280.1,542,282.4,544.2,284.8,546.2z M630.5,301.4
		c4.7,0.5,8.5,1.7,11.2,3.4l-6.5,1.8c2.1,0.9,3.8,2.1,5.7,2.4c2.2,0.3,4.5,0.1,6.7-0.4c3.3-0.7,6.6-1.4,10-0.4c0.3,0.1,0.7,0,1-0.1
		c1.5-0.7,2.9-1.5,4.7-2.4c-2.6-0.6-4.9-2.1-6.6-4.1c-1-1.2-1.9-2.4-2.9-3.6c-0.2-0.3-0.5-0.5-0.9-0.6c-0.8,0.1-1.6,0.3-2.4,0.5
		c0.4,1.3,0.7,2.6,1.1,4c-0.4-0.2-0.8-0.3-1.1-0.5c-1.6-1-3.6-1.5-5.5-1.5c-1.7-0.1-3.4-0.4-5-0.9c-2.8-0.8-5.5-1.8-8.3-2.7
		c-0.6-0.2-1.2-0.2-1.8,0c-1.3,0.6-2.9,0.5-4.1-0.3c-2.3-1.4-4.5-0.3-6.9,0c0.7,0.8,1.2,1.3,1.8,2l-4.5,2.7c2,0.8,3.6,1.5,5.4,2
		c0.6,0.2,1.3,0.2,1.9-0.1c2.7-1,5.3-2,8-3.1l0.1,0.2L630.5,301.4z M274.1,504.9c0.3-3.5-1.2-6.9-3.9-9.2c-2.6,2.4-2.3,4.9-1,7.8
		c1.4,2.7,2.5,5.6,3.4,8.5c1.1,3.4,3,6.5,5.6,9c1.8,1.9,3.9,1.6,6.1,1.9c0-0.1,0-0.3,0-0.4c-0.2-0.3-0.3-0.6-0.5-0.9
		c-1.4-2.3-2-5-1.7-7.7c0.2-1.5,0.4-3-0.8-4.1c-0.7-0.6-1.4-1.2-2.1-1.8c-0.6-0.4-1.2-0.9-1.6-1.5c-0.5-1-1.6-1.6-2.7-1.4
		C274.6,505,274.3,505,274.1,504.9z M832,319.2c-2-1.5-3.9-3-5.7-4.4c-0.5-0.5-1.3-0.5-1.9,0c0,0,0,0,0,0c-1.7,1.2-3.4,2.3-5.2,3.5
		c-0.4-1-0.8-1.8-1.2-2.9c-4.6,3.2-9.9,2.4-14.9,3.1c0.1,0.1,0.3,0.2,0.5,0.3c3.5,0.5,6.7,2.2,9.1,4.9c1.4,1.4,3.5,2.1,5.5,1.8
		C823.2,325,828.1,322.8,832,319.2z M325.3,522.9c-0.4,1.3-0.9,3-1.2,4.7c-0.4,1.9-0.5,4-1.3,5.8c-0.7,1.6-0.7,3.4,0.1,4.9
		c0.6,1.2,1.1,2.6,1.3,3.9c0.2,1.7,0.5,2.4,2.4,3.2c0-3.1-0.4-6.1,0.9-9l5.1,8c0.9-2.5,0.6-5.2-0.8-7.5c-0.3-0.5-0.4-1.1-0.7-1.5
		c-0.6-0.7-0.6-1.7,0.1-2.4c0.1-0.1,0.2-0.2,0.4-0.3c1.3-0.8,1.7-2.5,0.9-3.8l-4.5,0.8c-0.3-0.9-0.6-1.8-0.8-2.7
		c2.9-0.3,5.6-0.6,8.3-0.9c0.4,0,0.8-0.2,1.1-0.4c1-0.9,2-1.8,3.1-2.8l-1.8-1.8c-0.7,0.6-1.4,1.1-2,1.7c-0.6,0.7-1.5,0.9-2.4,0.7
		C330.7,523.4,328.1,523.2,325.3,522.9z M144.5,288.4c0.4,0.5,0.8,1.1,1.2,1.7c1.5,3.1,4.4,5.2,7.8,5.8c0.6,0.1,1.2,0.1,1.8,0.1
		c0-0.5,0-1.1-0.1-1.6c-0.7-2.2-1.4-4.4-2.1-6.7c6-3,11.9-6.3,17.4-10.2c-1.1-0.1-1.8-0.1-2.5-0.2c-2.5-0.5-5.1,0-7.3,1.2
		c-1.5,0.8-3,1.5-4.5,2.1C151.6,282.3,148.4,285.8,144.5,288.4z M286.2,548.3c1.5,1.1,3.1,2,4.8,2.7c7.5,2.5,15.4,3.8,23.1,5.5
		c4.4,1,8-0.8,11.8-1.7c-3.8-0.8-7.5-1.6-11.3-2.2c-1.5-0.1-2.9-0.7-4-1.6c-1.5-1.4-3.5-2.2-5.6-2.3c-0.5,0-1-0.1-1.5-0.2
		c-1.4-0.2-2.8-0.6-4.1,0.4c-0.1,0.1-0.3,0.2-0.5,0.1c-2.9-0.4-5.8-0.6-8.7-1.2C288.9,547.4,287.4,547.5,286.2,548.3z M39.3,286.8
		c2.9,2.5,5.7,4.7,8.4,7c0.4,0.2,0.8,0.3,1.2,0.2c3.5-0.3,7-0.7,10.5-0.9c1.3,0.1,2.5-0.5,3.3-1.6c0.7-1.1,1.6-2.1,2.5-3.1
		c0.4-0.5,0.7-0.9,1.2-1.6L39.3,286.8L39.3,286.8z M376.5,382.2c1.8,0,3.3,0,4.8,0c0.7,0.1,1.4-0.3,1.6-1c2.3-4.9,4.6-9.7,6.8-14.6
		c0.5-1.4,0.8-2.8,1-4.2l-4.5-1.1L376.5,382.2z M329.1,485c1-1,2.4-1.8,1.5-3.6c-0.6-1.1-0.4-2.5,0.4-3.5c0.5-0.7,0.8-1.4,0.8-2.3
		c0-1.9-0.2-3.9-0.4-5.8c-0.1-1.1-0.4-2.2-0.6-3.3c-1.7,0.2-3.2,0.4-4.6,0.7c-0.3,0-0.6,0.2-0.7,0.4c-1.5,3.1-1.7,6.7-0.4,10
		C326,480.1,327.7,482.4,329.1,485L329.1,485z M339.6,507.5c0.7-1.1,1.3-2.3,1.7-3.6c0.5-1.5,1.1-3.1-0.1-4.7
		c-1.7-2.2-3.3-4.6-5-6.9c-0.5-0.5-1.2-0.8-2-0.8c-0.7,0.5-1.1,1.3-1.1,2.1c0.7,2.8,0.7,5.7,0.2,8.5c-0.1,0.5,0.1,0.9,0.3,1.3
		C335,505.6,336.6,507.4,339.6,507.5L339.6,507.5z M337.7,281.1l0.1,0.4c5.9,1.8,11.7,3.7,17.9,4.1c0.3,0.1,0.7,0.1,1-0.1
		c1.3-1.2,2.5-2.4,3.9-3.7c-2.4-0.6-4.5-0.9-6.6-1.6c-3.8-1.2-7.6-2-11.5-1C340.9,279.8,339.3,280.4,337.7,281.1L337.7,281.1z
		 M633.5,290.3c0.1,0.3,0.1,0.7,0.1,1c-0.2,0.8,0.3,1.7,1.2,1.9c0.2,0,0.4,0,0.6,0c4.1,0.2,8.2,0.4,12.3,1c2.7,0.4,5.4-0.3,7.7-1.8
		c-1.5-1-2.8-1.8-4.9-1.5c-4.2,0.6-8.5,1.4-12.5-1.1c-0.5-0.3-0.9-0.7-1.3-1.1c0-0.1,0.1-0.2,0.1-0.3c-4.6,0.5-9.3,0.4-13.5,2.4
		c0,0.1,0,0.3,0.1,0.4L633.5,290.3z M690.3,285.2c-0.9-1-1.4-2-2.2-2.3c-1.5-0.6-3-1.1-4.6-1.4c-3.3-0.8-6.6-1.1-9.5,1.1
		c2.2,2.6,5.5,3.4,8.7,4.5c0.1,0,0.3,0,0.4,0C685.3,286.5,687.6,285.9,690.3,285.2L690.3,285.2z M221,497.1
		c-0.7,1.6-1.3,3.1-1.9,4.5c-0.6,1.4-0.1,2.6,0.5,3.9c0.2,0.3,0.6,0.5,1,0.5c1.6-0.2,3.1-0.4,4.7-0.7c0.3-0.1,0.6-0.3,0.7-0.6
		c0.2-1.4,0.3-2.8,0.3-4.3c-0.1-0.6-0.4-1.1-0.9-1.4C224,498.3,222.6,497.8,221,497.1z M672.3,302.1c-0.6-1.3-1.2-2.5-1.8-3.8
		c-0.1-0.2-0.3-0.4-0.6-0.5c-2.8-0.1-5.7-0.5-7.9,1.7C665.6,303.1,668.5,304,672.3,302.1z M676.6,301.5c1.5-0.9,2.8-1.7,4.2-2.6
		c1.4-0.9,2.7-1.7,4.1-2.6l-0.1-0.4l-11.3,2L676.6,301.5z M31.8,599c0-2.8-0.5-5.4-2.5-7.5c-0.5-0.5-0.7-1.2-1.2-1.7
		c-3-3-3.3-6.9-3.8-10.8c0-0.5,0.1-0.9,0.4-1.4c1.8-4.2,3.6-8.4,5.4-12.7c0.3-0.5,0.4-1,0.4-1.6c-0.5-5.2-1.3-10.3-4.1-15
		c-2.9-4.7-5.6-9.6-9.2-13.8c-1.3-1.5-0.9-3.3-1-5c-0.1-3,0.3-6,0.3-9c0-2.4-0.1-4.8-0.4-7.1c-0.2-1.4-0.7-1.4-2.1-1.1
		c-1.2,0.1-2.5,0.1-3.7,0c-1.3,0-2.4-0.6-3.1-1.7c-1.5-1.9-3.1-3.8-5.7-4.3c-0.6-0.1-1.2-0.1-1.8-0.1c-1,0.2-1.9,0.5-2.9,0.7
		c-2.8,0.4-5.4,1.7-7.5,3.5c-0.3,0.5-1,0.6-1.5,0.3c-0.1-0.1-0.2-0.2-0.3-0.4c-1.7-2.2-3.5-1.8-5.8-0.7c-5.3,2.6-5.3,2.5-11.2,1.5
		c-1.2-0.2-2.3-0.7-3.2-1.5c-3.7-3.4-7.4-6.7-11-10.3c-1.3-1.5-2.4-3.2-3.2-4.9c-2.2-3.6-4.3-7.2-6.5-10.9c-0.3-0.6-0.5-1.3-0.5-2
		c0-2,0-4.1,0.2-6.1c0.1-1,0.4-2,0.9-2.9c2.1-3.6,2.1-7.5,1.8-11.4c-0.2-2.4-0.5-4.9-0.7-7.3c-0.1-0.3-0.1-0.7,0-1
		c1.3-3.4,2.6-6.8,4.1-10.2c0.7-1.6,2.1-2.8,3-4.3c1-1.7,2.5-3,4.3-3.8c0.5-0.2,0.9-0.7,1.2-1.2c2-4.6,5.6-7.4,10.1-9.5
		c5.8-2.8,11.4-6.1,17.1-9.1c1.5-0.7,2.8-1.9,3.6-3.4c0.4-0.7,0.9-1.4,1.3-2.1c0.2,0.1,0.4,0.2,0.6,0.3c3.4,3.5,7.4,1.8,11.1,0.7
		c2.2-0.6,4.1-2.5,6-3.9c1.2-0.8,2.6-1.3,4-1.3c2.6-0.3,5.2-0.1,7.7,0.5c2.7,0.7,5.4,0.1,8-0.3c1.3-0.2,2.7-0.4,4.1-0.7
		c0.1,0.2,0.1,0.3,0.1,0.5c-0.4,2.3-0.1,4.6,1,6.7c0.4,0.8,0,2.1,0.1,3.1c0.1,0.6,0.4,1.2,0.8,1.8c2,2.6,5.2,2,7.9,2.6
		c1.1,0.2,2.2,0.6,3.2,1.2c3,2.2,5.9,4.5,9.2,7.1c1.6-2.1,3.1-4.3,4.8-6.2c1-1.1,2.2-2,3.5-2.8c0.4-0.1,0.9,0,1.2,0.2
		c5.6,2.1,11.2,4.1,16.8,6.2c0.7,0.4,1.6,0.3,2.2-0.2c0.1-0.1,0.2-0.1,0.3-0.2c2-1.7,3.9-2,6.5-0.7c1.4,0.7,3.5,0,5.3-0.2
		c0.2-0.1,0.3-0.3,0.3-0.5c1.1-5.5,3.4-10.6,5.5-15.8c0-0.1,0-0.2,0-0.3c-2.5-0.5-5.1-1.3-7.7-0.4c-1.8,0.7-3.4,0-4.9-0.7
		c-0.8-0.5-1.8-0.3-2.3,0.4c0,0,0,0,0,0c-1.5,1.7-2.4,1.7-4.5,0.5c-2.8-1.6-4.1-4.1-5.2-6.8c0,0,0-0.1,0-0.1c-1-2.6-1.9-5.2,0.3-7.8
		c-3.1-0.5-6.3,0.2-8.9,1.9c-1.3,0.8-2.1,2.2-2.2,3.7c0,1.2-0.6,1.5-1.8,1.6c-2.2,0.2-3.4-0.4-4-2.5c-0.7-2.1-1.5-4.2-2.4-6.2
		c-0.3-0.6-0.7-1.2-1.3-1.5c-2.1-1-4.3-2-6.5-2.9c-1.1-0.3-1.9-1.1-2.3-2.1c-0.6-1.4-1.3-2.8-2-4.1c-0.2-0.4-0.5-0.7-0.9-0.9
		c-1.8-0.6-3.6-1.1-5.4-1.7c-0.9,1.1-1,2.6-0.4,3.9c1.3,3.3,4.3,5.1,6.8,7.3c1.7,1.6,3.6,3.1,5.4,4.7l-2.7,3.1
		c-2.8-1.9-5.6-3.7-8.4-5.5c-1.1-0.7-2.2-1.6-3.4-2.2c-2.5-1.5-4.6-3.6-6-6.1c-0.3-0.4-0.6-0.8-0.9-1.2c-2.5,1.2-4.9,2.4-7.4,3.4
		c-0.8,0.3-1.6,0.4-2.4,0.2c-1.5-0.2-3.2-1.2-4.4-0.8s-1.9,2.2-2.8,3.3c-2.3,2.8-4.6,5.6-6.8,8.4c-0.6,0.8-1.1,1.7-1.5,2.6
		c-1.1,3.2-3.3,5.6-5.4,8.2c-0.4,0.3-1,0.5-1.5,0.4c-2.4-0.5-4.8-1-7.1-1.5c-1.8-0.6-3.6-0.7-5.5-0.3c-0.5,0-0.9-0.3-1.2-0.6
		c-2.1-2.7-2.1-5.7-1.7-8.8c0.4-3.8,0.6-7.6,0.8-11.3c0-0.2,0-0.4,0.1-0.9c5.3-0.2,10.6-0.5,15.8-0.6c2.8-0.1,2.7,0,3.1-2.7
		c0.7-4.3-1.5-7.4-4.6-10c-1.2-1-2.6-1.9-2.5-3.5c1.9-0.2,3.9-0.2,5.7-0.6c1.1-0.3,2.2-0.7,3.1-1.4c2.5-1.7,4.9-3.5,7.4-5.3
		c0.4-0.3,0.8-0.6,1.1-1c1.5-2.2,3.6-4,5.9-5.3c1.2-0.7,2.9-0.7,4.4-0.9c1.5-0.2,2.8-0.3,4.2-1.4c2-1.6,2-3.6,1.8-6
		c0.4,0.3,0.8,0.7,1.2,1c1.4,1.5,3.3,2.6,5.3,3c0.5,0.2,1,0.2,1.5,0.1c1.4-0.5,3-0.3,4.3,0.4c2.9,1.4,5.6,0.2,8.4-0.5
		c0.8-0.2,1.5-0.6,2.2-1c1.7-1.1,3.5-1,5.4-0.9c1.5,0,3-0.9,4.5-1.4c0.2-0.3,0.2-0.6,0.1-1c-1-2.9,1.1-4.4,2.9-6
		c0.5-0.3,1-0.3,1.5,0c2.1,1,3.7,0.1,4.9-1.5l-2.1-4.7c8-0.8,15.9-0.5,23.2-3.5c0.3-1.6-0.5-3.1-1.9-3.8c-1.7-1.2-3.8-1.6-5.8-1
		c-1.1,0.4-2.2,1-3.1,1.7c-3.1,2.1-6.6,2.7-10.2,2.9c-2.3,0.1-4.6-0.4-7-0.7c-0.5,0-1-0.4-1-0.9c0-0.1,0-0.1,0-0.2
		c-0.1-1.6-0.3-3.1-0.3-4.7c0-0.4,0.1-0.8,0.3-1.2c2.6-3.1,5.8-5.8,9.3-8c1.2-0.6,1.8-1.8,1.6-3.1c-3.1,0-6.2,0-9.2,0
		c-0.4,0.1-0.7,0.4-0.8,0.8c-0.5,2.4-2.3,3.9-4.2,5.4c-2.8,2.1-5.7,4.2-7.8,7.1l-0.4,0.6l4.5,7c-2.2,2-4.3,1.3-6.3,0.2
		c-0.3,2.5-0.4,4.9-0.8,7.2c-0.1,0.7-0.5,1.3-1.1,1.7c-1.7,1.3-3.6,2.1-5.7,2.5c-0.6,0.2-1.2,0-1.5-0.6c-1.8-2.8-3.6-5.6-5.4-8.4
		c-1.1-1.7-3.1-1.4-4.6-2c-0.2,0.1-0.5,0.2-0.6,0.4c-1,0.9-2,1.7-2.8,2.6c-0.5,0.7-1.5,0.9-2.2,0.5c-1.4-0.6-2.9-1-4.3-1.5
		c1.1-2.1,2-4.2,2.7-6.4c0.4-2.3,0.7-4.6,0.7-6.9c1-0.2,2.3-0.5,3.5-0.8c2.2-0.6,4.3-1.2,6.4-2c0.5-0.2,1-0.6,1.3-1.1
		c2.3-2.7,4.5-5.4,6.8-8.2l2.2,1.2c0.9-0.8,1.8-1.7,2.8-2.5c2.2-1.8,4.6-3.6,6.8-5.4c0.9-0.8,1.5-1.9,2.4-2.8c0.5-0.5,1.1-0.9,1.8-1
		c4.2-0.2,8.3-1.3,12-3.3c0.5-0.3,1.1-0.4,1.7-0.4c2.3-0.2,4.6-0.3,6.9-0.4c0.5,0,1.1,0.1,1.6,0.3c8,3.4,16.4,5.3,24.9,6.8
		c1.2,0.3,2.4,0.7,3.5,1.3c2.2,1.1,4.4,2.2,6.7,3.4c-1.2,1.3-2.3,2.4-3.5,3.5c-0.3,0.2-0.6,0.3-1,0.2c-5.6-0.6-11.2-1.2-16.8-1.8
		c-0.4,0-0.8-0.1-1.4-0.2c2.7,4.4,5.7,8.2,11.2,9.7c1.1-0.8,2.4-1.7,3.7-2.8c0.8-0.8,1.9-1,2.9-0.6c0.6,0.2,1.2,0.4,1.7,0.5
		c0.9-1.4,1.7-2.8,2.7-4.2c0.4-0.5,0.9-0.8,1.5-1.1c2.4-1.1,4.6,0,7,1.1l-0.6-3.4c1.5-0.7,3-1.4,4.6-0.2c2.7,2,5,1.5,7.4-0.6
		c2.6-2.2,5.9-3.5,9.4-3.7c1.4,0,2.8,0.4,4.1,1c1.1,0.6,2.4,0.5,3.4-0.3c1.4-0.9,2.9-1.6,4.4-2.3c0.6-0.2,1.2-0.2,1.8,0
		c2.3,0.5,4.6,1,6.9,1.5c0.1-0.8,0.3-1.7,0.7-2.4c0.7-1,1.8-1.6,3-1.7c2.2-0.2,4.4,0.3,6.2,1.5c3.4,2.2,7.6,2.8,11.5,3.8
		c0.9,0.2,2.4-0.7,3.2-1.5c0.3-0.2-0.4-1.7-0.9-2.5c-0.6-0.7-1.3-1.2-2.1-1.7c-2.3-1.6-2.9-4.9-1.2-7.2c0.1-0.1,0.2-0.3,0.3-0.4
		c0.1-0.1,0.2-0.3,0.3-0.4c1.4-2.6,3.8-3.4,6.5-3.6c0.7-0.1,1.3,0,2,0.2c1.5,0.5,3,1.1,4.6,1.7l-2.7,3.2c1.8,1.4,1.3,3.2,0.9,5.1
		c-0.1,0.9,0.1,1.8,0.5,2.6c1,1.8,0.5,3.5-0.3,5.2c-0.5,1.1-1,2.1-1.6,3.3c3.6-0.2,6.9-2.2,8.6-5.4l8,2.5c-0.1-1-0.4-2-0.6-2.9
		c-0.2-0.3-0.6-0.6-1-0.7c-2.1-0.5-4.2-1-6.3-1.5c-0.4-0.1-0.8-0.4-1-0.7c-0.7-2.5-1.3-5-2-7.6c0.9-0.3,1.9-0.7,2.9-1
		c0.4,0,0.7,0.2,0.9,0.5c1.3,2.2,3.8,2.7,5.9,3.8c0.3,0,0.6,0,0.9-0.1c0.1-0.1,0.2-0.2,0.3-0.2c1.9-1,2.4-2.4,1.5-4.2
		c-0.1-0.3-0.1-0.6-0.2-0.9c2.6,0.4,5.1,1.3,7.3,2.7c0.4,0.3,0.6,0.7,0.7,1.2c0.4,2,1.8,2.7,3.9,2.9c0.4-1.4,0.8-2.8,1.2-4.3
		c-2.2-0.1-4.2-1.1-5.7-2.6c-0.6-0.4-0.7-1.2-0.3-1.8c0.1-0.1,0.1-0.2,0.2-0.2c0.7-1.1,2-1.8,3.4-1.7c2.8,0.2,5.7,0.2,8.5,0.2
		c0.6,0,1.2-0.3,1.7-0.7c1.1-1.1,2.1-2.4,3.2-3.5c0.4-0.4,0.9-0.7,1.4-0.9c5.6-2.1,11.4-2.3,17.3-2.6c3.9-0.2,7.8-0.4,11.6-0.6
		c0.8-0.1,1.7-0.3,2.4-0.7c2.7-1,5.3-2.1,8-3.1c0.5-0.1,1-0.1,1.5,0c2.5,0.5,5,1,7.4,1.7c2,0.5,4.1,0.4,6-0.4
		c1.3-0.5,2.7-0.4,3.9,0.1c1,0.5,2.1,0.8,3.2,1.2c-0.6,1.7-1.1,3.3-1.7,4.8c-0.3,0.5-0.7,0.9-1.2,1.1c-2.9,1.9-5.9,3.7-8.7,5.8
		c1.5-0.3,3-0.6,4.6-0.7c3.3-0.3,6.6-0.6,9.8-0.8c0.9,0,1.7,0.8,2.6,1.2c0.5,0.2,1,0.2,1.5,0c2.9-2.3,6.4-2.9,10-3.2
		c0.7-0.1,1.4,0,2.1,0.1c5.7,1.2,10.9,3.6,16.2,5.9c1.9,1,4.1,1.4,6.2,1.2c2.9-0.5,5.9,0.4,8,2.6c1.2,1.2,2.3,1.2,3.7,0.2
		c1.3-0.9,2.8-2.1,4.3-2.3s3.2,0.6,4.8,1.2c1.8,0.7,3.5-0.1,5.1-0.4c2.1-0.3,4.2-0.8,6.2-1.3c1-0.3,2-1,3-1.3
		c0.7-0.2,1.5-0.4,2.3-0.3c2.3,0.1,4.5,0.2,6.8,0.5c1.5,0.2,3-0.1,4.2-1c0.7-0.5,1.7-0.6,2.5-0.2c4.9,1.6,9.8,3.1,14.7,4.6
		c0.4,0.2,0.9,0.2,1.3,0.1c4.6-2,9.3-1.1,14-0.8c2.7,0.2,4.2,1.6,5.8,3.5c1.6,1.8,3.7,3.5,6.8,2.8c3.5-0.8,7.1-1.3,10.7-1.9
		c2.9-0.5,5,1,6.9,2.8c0.5,0.5,1,1.1,1.6,1.6c1.4,0.8,3.2,0.6,4.5-0.3c0.2-0.3,0.3-0.6,0.4-0.9c0.3-1,0.6-2.1,0.9-3.3
		c3.1,0.6,6,1.3,9,1.9c5.5,1.1,10.8,3.1,15.7,5.9c0.3,0.1,0.6,0.3,0.9,0.6c1.7,1.9,3.5,3.9,5.2,5.9c-2,1.6-4.4,2.5-6.9,2.6
		c-3.5,0.1-6.6-1.1-9.9-1.7c-0.3-0.1-0.6-0.1-0.9-0.2c-3.1-0.5-3.3-0.4-5,2.3l10.2,5c-1.6,2.5-4.1,2.9-6.7,3.5
		c-3.4,0.7-6.7,1.6-10,2.8c-1.8,0.7-3.2,2.3-4.9,3.4c-0.6,0.4-1.4,0.7-2.2,0.7c-4.7,0.1-9.5,0.2-14.2,0.3c-0.6,0.1-1.1,0.3-1.5,0.6
		c-0.3,0.2-0.5,0.5-0.8,0.7c-2.6,1.4-2.6,3.7-2.2,6.1c0.1,0.3,0.3,0.6,0.5,0.9c0.6,0.8,1.2,1.6,2,2.5c-0.8,0.5-1.7,1-2.6,1.5
		c-1.2,0.4-2,1.4-2,2.7c-0.1,1.8-1.1,2.5-2.7,3.3c-3.3,1.6-6.1,4-8.3,7c-1,1.3-1.9,2.8-3.1,4.1c-0.1-1.1-0.1-2.1-0.3-3.2
		c-0.5-4.4-1-8.7-1.5-13.1c0-0.5,0.1-1.1,0.4-1.5c2.3-3.7,6.1-5.8,9.5-8.5c2.5-1.9,5.3-3.4,8.3-4.3c0.8-0.3,1.6-0.9,2.2-1.5
		c1.5-1.7,2.8-3.6,4.3-5.5c-1.3-0.3-2.5-0.7-3.8-1c-0.4,0.1-0.8,0.3-1,0.6c-1.1,1.3-2.3,2.7-3.3,4.1c-1.4,1.8-3.4,2.1-5.7,2.3
		c0.2-1.3,0.4-2.6,0.6-4.1c-4,0.3-7.8,0.6-10.9,3c-0.4,0.4-0.9,0.7-1.4,1.1c-1.6,0.9-2.8,2.5-3,4.4c-0.2,0.7-0.8,1.3-1.5,1.4
		c-2.9,1.2-5.1-0.3-7.5-1.4c-0.8-0.5-1.5-1-2.3-1.5c-1.5,2.5-4,2-6.3,1.9c-0.9,0-1.8-0.1-2.7-0.3c-1.9-0.8-4-0.8-5.9-0.1
		c-1.5,0.5-3,0.8-4.6,1.2c-0.4,0.1-0.8,0.2-1.1,0.4c-5.5,4.1-11,8.2-16.6,12.3c1.1,2.5,3.4,3.3,5.6,4.1c0.6,0.2,1.5-0.3,2.2-0.5
		c0.7-0.3,1.6-0.2,2.3,0.3c0.4,0.3,0.8,0.6,1.3,0.8c1.8,0.6,3,2.3,3.1,4.2c0,0.5-0.1,1-0.4,1.5c-0.1,0.2-0.3,0.4-0.5,0.5
		c-1.5,0.8-2.1,2.6-1.3,4.2c0.1,0.6,0.1,1.2,0,1.8c-0.7,3.4-2.4,6.6-4.9,9.1c-3.2,3.4-6,7-9.1,10.4c-1,0.9-2.2,1.7-3.4,2.4
		c-0.5,0.3-1,0.5-1.5,0.7c-1.7,0.8-3.4,1.9-4.9-0.5c-1.2,1-2.4,2.1-3.5,3.2c-0.4,0.8-0.7,1.7-0.7,2.6c-0.1,0.9-0.6,1.6-1.3,2.1
		c-1.9,1.3-3.7,2.8-5.6,4.3c1.7,2.4,3.2,4.8,4.8,7c0.8,0.9,1.1,2.2,0.8,3.4c-0.1,1.8-1,3.6-2.5,4.7c-1.8,1.3-4.1,1.9-6.3,1.7
		c-0.3,0-0.5-0.2-0.6-0.4c-0.4-1.3-1.2-2.5-0.4-3.9c1.1-1.9,1-4,0.7-6.1l-4.2-1.7c0.4-0.3,0.7-0.6,1.2-0.9c1-0.3,1.5-1.3,1.3-2.2
		c-0.1-0.2-0.1-0.4-0.2-0.5c-0.2-0.4-0.5-0.7-0.9-0.9c-2.4-1.3-4.7-0.8-6.9,0.4c-1,0.5-2,1-3.1,1.4c1.5-2,2.9-3.9,1.3-6.5
		c-1.6-0.1-3.1,0-4.4,1.4c-1,1.1-2,2-3.2,2.8c-0.7,0.4-1.4,0.6-2.1,0.7c-0.5-0.1-1,0.3-1,0.8c0,0.1,0,0.2,0,0.3c0,0.6,0,1.1,0,1.7
		c0.1,0.4,0.3,0.7,0.6,0.9c0.9,0.3,1.8,0.7,2.6,1.3c0.5,0.8,0.9,1.7,1.2,2.6l3.4-2c0.5,0.8,1,1.7,1.4,2.6c0.1,0.5-0.1,0.9-0.4,1.3
		c-1.9,1.4-3.2,3.4-3.7,5.7c-0.1,0.5,0,1.1,0.2,1.5c3.9,5.7,5.5,12.7,4.4,19.6c-0.1,0.5-0.3,1-0.6,1.4c-2.2,3.3-4.5,6.6-6.7,9.8
		c-0.3,0.4-0.7,0.8-1.2,1c-2.8,2-5.6,4-8.4,5.9c-0.5,0.4-1.2,0.7-1.8,0.7c-2.1,0.3-4.2,1-6,2.2c-0.8,0.4-1.7,0.6-2.7,0.6
		c-1.3,0.1-2.6-0.1-3.9-0.1c-0.4,0-0.8,0.1-1.2,0.2c-3.3,1.5-5.9,4-8.4,6.6c-0.2,0.1-0.3,0.3-0.3,0.5c0.6,2.2-0.1,4.8,2.2,6.4
		c1.6,1.1,2.7,2.7,3.3,4.5c0.9,2.4,2.1,4.7,3.1,7.1c0.3,0.6,0.3,1.3,0.1,1.9c-0.9,2.5-1.8,5-2.8,7.5c-0.2,0.5-0.5,0.9-0.9,1.2
		c-1.5,1-3,1.8-4.7,2.4c-2.7,0.9-5.2-0.4-7.3-1.8c-1.2-1-2.1-2.3-2.7-3.7c-1.1-1.9-2.8-3.5-4.9-4.4c-1.1,3-2.3,6-3.4,9l-0.4,0
		c-0.7-7.8-2.6-15.5-5.5-22.7c-0.9,1-1.7,1.9-2.5,2.8s-1.9,1.5-3.1,2.5c-1-10.2-6.9-17.8-12.8-25.9c-0.1,1-0.3,1.8-0.4,2.6
		c0.1,0.5-0.2,1-0.7,1.1c-0.1,0-0.2,0-0.4,0c-0.2,0-0.4,0.1-0.7,0.1c-3.9-0.4-5.4,2.3-6.5,5c-0.6,1.8-2,3.2-3.7,3.8
		c-0.4,0.1-0.8,0.4-1,0.8c-0.5,2.1-2.2,3.3-3.7,4.5c-3.5,2.7-5.8,6.3-8.3,9.8c-0.2,0.3-0.3,0.6-0.2,1c1.2,5.4-0.9,10.3-2.1,15.3
		c-0.9,3.6-1.4,4.4-4.8,7c-0.9-1.3-1.6-2.6-2.1-4c-1.6-6.1-4-11.9-7.2-17.4c-1.5-2.6-2.3-5.6-2.5-8.6c-0.3-3.2-0.7-6.3-1-9.5
		c0-0.7,0.1-1.4,0.3-2c0.3-0.9,0.8-1.8,1.3-2.8l-2.3-1.5c-0.2,0.3-0.4,0.6-0.5,0.8c-0.4,0.7-0.7,1.8-1.3,2c-1.2,0.5-2.6,0.6-3.8,0.4
		c-1.2-0.5-2.3-1.2-3.3-2l3.9-3.6c-0.3-0.1-0.6-0.2-0.9-0.3c-3.8,0-6.2-2.5-8.6-4.8c-0.8-0.7-1.6-1.4-2.4-2c-1.9-1.4-4-0.9-6.1-0.9
		c-3.1,0.2-6.1,0.3-9.2,0.2c-2.6-0.4-5.1-1.1-7.5-1.9c-0.3-0.3-0.5-0.6-0.6-1c-0.8-1.4-1.5-2.8-2.3-4.3c-1,0.6-2,1.2-3.1,1.7
		c-0.5,0.2-1.1,0.2-1.7,0.1c-2.5-1.1-5-2.3-7.5-3.6c-0.6-0.3-1.1-0.8-1.3-1.5c-0.3-2.7-2.2-4.1-4.4-5.1c-0.9-0.4-2.2-0.1-3.2-0.1
		c-1.9,3.2-0.2,5.5,1.5,7.7c0.7,0.9,1.5,1.8,2.4,2.5c1.3,1,2,2.6,1.8,4.2c-0.1,1,0.9,2,1.2,3.1c0.4,1.4,1.6,1.3,2.7,1.4
		c0.1,0,0.2,0,0.3,0c3.5,1.2,5.9-0.5,8.1-2.7c1-1,1.9-2.1,3.1-3.3c0.2,1.8,0.4,3.4,0.5,5c0,0.6,0.4,1.2,1,1.3
		c2.5,1.1,5.2,1.8,7.1,3.9c0.7,0.5,0.9,1.4,0.6,2.1c-0.8,2.3-2.1,4.5-3.7,6.3c-2.4,2.9-4.7,5.8-7,8.8c-0.6,1-1.7,1.6-2.8,1.8
		c-1.5,0.1-2.8,0.9-3.7,2.1c-2.2,2.7-5.5,4.1-8.3,6c-0.5,0.3-1,0.5-1.5,0.9c-3.4,2.5-7.4,3.7-11.6,4.5c-0.9,0.2-1.8-0.3-2.8-0.3
		c-1.4-0.1-1.3-1.1-1.5-1.9c-1.4-4.4-2.7-8.9-4.3-13.2c-1.2-2.8-2.6-5.5-4.2-8c-1.3-2-2-4.4-2.3-6.7c-0.1-0.6-0.3-1.2-0.6-1.7
		c-2.8-4.8-5.6-9.6-8.3-14.5c-1.1-1.9-1.8-4-2.7-6.1l-1.7,3l-5.1-4c0.2,0.7,0.4,1.2,0.5,1.6c1.7,4.2,3.3,8.5,5,12.7
		c0.8,1.5,1.7,3,2.8,4.3c1.5,2.2,3.1,4.4,4.7,6.5c0.5,0.5,0.6,1.3,0.2,1.9c-1.2,1.3-1.1,3.3,0.2,4.5c0,0,0,0,0,0
		c3.4,3.5,3.7,8.2,4.7,12.5c0.2,0.9,0.7,1.8,1.3,2.5c3,3.4,6,6.7,9.1,10.1l-1.6,1.9l6.1,4c2.1-2.1,4.9-2.2,7.6-2.8
		c2.3-0.5,4.5-1.4,6.8-2.1c0.5-0.2,1-0.4,1.5-0.5c1.7,2,1.1,4.2,0.3,6.1c-1.5,3.6-3.3,7-4.9,10.6c-2.5,5.6-6.2,10.3-10.2,15
		c-5.6,6.7-10.7,13.7-16.1,20.6c-0.3,0.5-0.4,1-0.4,1.5c0.9,8.1,2.3,16.2,4.3,24.1c0.3,1.3-0.2,2.7-0.5,4.1c-0.6,3-1.2,6.1-1.8,9.1
		c-0.1,0.6-0.5,1.2-1,1.6c-3.1,1.9-5.8,4.3-8,7.2c-0.1,0.2-0.3,0.3-0.5,0.5c-2.7,1.5-3.1,4-3,6.7c0,1.4-0.2,2.8-0.3,4.3L31.8,599
		L31.8,599z M140.3,394.4c-0.7,1.1-1.2,2-1.8,2.7c-1,1.3-1.6,2.9-1.9,4.5c-0.2,0.6,0.1,1.2,0.7,1.5c1.1,0.7,2.2,1.6,3.3,2.3
		c0.6,0.4,1.2,0.8,1.9,1c0.8,0.2,1.6,0.1,2.4,0.2c2.1,0.3,3.9-0.8,5.3-1.9c0.7-0.5,0.4-2.2,0.5-3.3c0-0.7-0.2-1.4-0.5-2.1
		c-0.5-1.3-1.4-2.5-1.8-3.8c-0.5-1.3-0.7-2.7-0.6-4.1c0.5-2.4-0.4-4.8-2.3-6.3c-1.5-1.2-2.4-3-2.5-4.9c0-1,0.1-1.7,1.2-2.1
		c2.2-0.7,3.3-2.4,3.9-4.5c-1.8-0.5-3.6-1.1-5.4-1.5c-0.6-0.1-1.3-0.1-1.8,0.2c-1.3,0.9-2.6,1.9-3.9,2.8c-1.1,0.6-2.1,1.2-3.1,2
		c-1.2,1.1-2.3,2.4-3.3,3.6c0.8,1.7,1.4,3.1,2.1,4.5c0.6,1.1,1.3,2.1,2.1,3.1C136.7,390.4,138.6,392.4,140.3,394.4z M91.6,374
		c-3.2,1.8-5.9,4.4-7.8,7.5c-1.2,2-0.9,4.6-3.4,5.8c0.7,1.2,1.5,2.3,2.4,3.3c2.1,1.7,6.7,1.5,9-0.2c2.9-2.2,6-3.2,9.5-1.3
		c1.4,0.8,2.9,1.4,4.4,2c0.3,0.2,0.7,0.3,1.1,0.4c2.5,0.1,5,0.1,7.5-0.1c3.1-0.3,3.1-0.5,3.5-3.5c0-0.3-0.1-0.6-0.3-0.9
		c-3.4-2.4-6.8-5-10.8-6.7c-2.5-1.1-4.9-1.3-7.3-0.1c-1.3,0.6-2.7,0.4-3.9-0.3l0.9-3L91.6,374z M664.9,599c-0.1-3.3-0.3-6.7-0.2-10
		c0-5.4-0.4-10.8-1.2-16.1c-0.1-0.9-0.6-1.7-1.4-2.2c-5-3.1-9.9-6.2-14.8-9.4c-0.6-0.4-1-0.9-1.3-1.6c-3.4-6.8-6.8-13.6-10.1-20.5
		c-0.5-1.5-1.8-2.7-3.3-3.1c-1.6-0.3-2.8-1.7-2.7-3.4c0-0.3-0.1-0.6-0.2-0.9c-1.2-2.6-0.6-5.8,1.4-7.8c0.6-0.8,1.2-1.6,1.7-2.5
		c-0.1-0.1-0.2-0.2-0.3-0.3c-2.9-0.4-2.8-2.8-3.1-4.8c0.1-0.5,0.3-1,0.6-1.4c2.4-3.4,4.9-6.8,7.3-10.2c0.4-0.5,0.6-1.2,0.6-1.8
		c0.2-3.7,0.3-7.5,0.5-11.2c0.1-1.3-1-1.7-1.6-2.6c-0.8-1.1-1.6-1.2-2.7-0.4c-1.3,0.9-2.7,1.6-4,2.4c-0.6,0.4-1.3,0.4-1.8,0
		c-3.2-1.9-6.5-3.8-9.7-5.8c-0.4-0.4-0.7-0.9-0.9-1.4c-0.4-1-0.7-2.1-1.2-3.1c-2.2-4.1-5.8-6.5-10.3-7.7c-2.5-0.7-4.7-2.1-6.3-4.1
		c-2-2.3-5-3.5-8.1-3.3c-2.4,0-4.8-0.2-7.2-0.5c-0.7-0.1-1.3-0.3-1.9-0.6c-4.9-2.7-9.7-5.5-14.6-8.2c-0.6-0.2-0.9-0.8-0.8-1.4
		c0.3-2.7,0.5-5.5,0.6-8.2c0-0.9-0.2-1.7-0.6-2.4c-3.2-5.1-6.5-10.2-9.9-15.1c-1.3-2-2.1-4.3-2.5-6.7c-0.3-1.4-0.6-2.8-0.9-4.3
		l-2.7-0.5c-0.1,0.4-0.1,0.8-0.2,1.2c-0.8,4.4,1.1,8.3,2.5,12.4c1.1,3,2.1,6.1,3.3,9.1c0.5,0.9,0.3,2.1-0.4,2.9
		c-0.5,0.6-0.9,1.3-1.3,1.9c-1.6-3.6-3.2-7-4.7-10.3c-1-2.1-1.8-4.4-3-6.4c-1.1-2.3-1.7-4.8-1.7-7.3c-0.1-2.5-0.2-5-0.5-7.4
		c-0.1-0.7-0.4-1.3-0.9-1.8c-1.7-1.7-3.5-3.4-5.3-5.1c-0.6-0.5-0.9-1.2-0.7-2c1.4-6.7,2.7-13.5,4.1-20.2c0.1-0.5,0.4-1,0.7-1.4
		c2.3-3.2,4.7-6.4,7-9.6c0.4-0.5,0.6-1.1,0.7-1.8c0.3-3.2,0.9-6.4-0.5-9.5c0-0.5,0.2-1,0.5-1.4c0,0,0.1-0.1,0.1-0.1
		c2.7-1.2,3.5-3.2,3.1-6c-0.2-1.6,0-3.2-0.1-4.8c-0.2-2.7,0.3-5.5,1.6-7.9c0.5-1,0.2-2.4,0.3-4.1l-5.6,3.3c-0.9-2.1-1.8-4.1-2.5-6.1
		c-0.2-1-1.1-1.6-2.1-1.7c-3.5-0.5-6.9-1.1-10.4-1.6c-0.8-0.1-1.6,0.1-2.2,0.5c-2.5,1.6-5,3.2-8.1,3.4c-0.7,0.1-1.4-0.1-1.9-0.5
		c-1.7-1.6-3.7-1.5-5.9-1.5l-1,3.6c-0.4,0.1-0.8,0.1-1.2,0.2c-1.5-0.1-2.9,0.6-3.8,1.8c-0.3,0.4-0.7,0.6-1.2,0.7
		c-3.1,0.1-6,1.2-8.9,2.2c-6.2,2.1-12.4,4.1-18.5,6.3c-2.1,0.8-4.5,1-6.7,0.5l27.5-11.9l0.1-0.3c-3.5,0.4-6.1-0.9-7.6-3.3
		c1.8-1.9,3.5-3.8,5.2-5.6c0.3-0.2,0.6-0.4,1-0.4c3.9-0.7,7.7-1.4,11.6-2.1c2-0.4,2.2-0.5,4.1-2.7c-2.2-0.5-4.2-1.1-6.3-1.4
		c-1.7-0.3-1.1-1.4-1.2-2.3c-0.1-1,0.7-0.9,1.3-1c3.4-0.3,6.7-0.7,10.1-1.1c0.3-0.1,0.6-0.3,0.9-0.6c0.1-0.1,0.1-0.2,0.1-0.4
		c0.3-3,2.3-4.3,5.1-5c1.5-0.4,3-0.9,4.4-1.6c3.8-1.7,8-2.6,12.2-2.6c10.3-0.2,20.5-0.6,30.8-0.8c0.8,0,1.6,0.2,2.3,0.6
		c2.6,1.4,5.1,2.8,7.6,4.3c0.8,0.6,1.9,0.7,2.7,0.2c4.4-2.4,9.3-2.8,14.2-3c3.5-0.1,6.9-0.4,10.4-0.6c0.7,0,1.5,0.1,2.2,0.4
		c3,1.5,6.1,3,9,4.8c2.3,1.5,4.7,1.5,7.3,1.3c5.3-0.3,10.4-1.7,15.5-3.1c0.7-0.2,1.5-0.1,2.1,0.3c2.6,2,6,2.6,9.1,1.6
		c1.8-0.5,3.3-0.8,4.3-2.6c0.8-1.6,4.2-2.3,5.8-1.4c0.8,0.4,1.5,0.8,2.4,1.2c0.6-1.3,1.2-2.5,1.6-3.8c0.2-0.8,0.9-1.4,1.7-1.6
		c3-0.9,3-0.9,5.1,1.5c0.2,0.2,0.4,0.4,0.5,0.6c0.9,1.1,1.8,2.4,3.8,1.3c-0.2,1-0.3,1.7-0.4,2.4c-0.1,0.7-0.2,1.4-0.3,2.2
		c1.1,0.1,2.2,0.3,3.3,0.4c0.4-0.1,0.7-0.2,1-0.4c0.1-0.1,0.1-0.1,0.2-0.2l3.6-3.9c-0.1-0.2-0.2-0.3-0.3-0.4
		c-2.2-1.6-1.9-3.3-1.1-5.6c0.8-2.4,2-3.8,4.6-4.2c2.7-0.5,5.4-1.2,8.1-2.1c0.6-0.3,1.4,0,1.7,0.6c1.5,2.2,3.7,3.5,6,4.7
		c0.5,0.2,1,0.2,1.5-0.1c1.4-0.8,2.7-1.7,4.1-2.7l10.7,7.5l-1.8,2.5l9,7l-7.4,4.6c-0.6-3-2.5-3.6-5.2-2.9c-0.1,2-0.2,4-0.3,6.1
		c0.1,0.7-0.3,1.3-0.9,1.6c-1.6,0.9-3.1,2-4.6,2.9c-0.3,0.2-0.7,0.3-1.1,0.3c-1.6-0.7-3.2-1.5-4.7-2.4c-1.4-1-2.8-2.2-4-3.5
		c-0.8-0.9-2-1.2-3.1-0.8c-2.1,0.4-4.3,0.8-6.7,1.2c0.8-1.5,1.4-2.9,2.2-4.1c0.3-0.3,0.6-0.5,1-0.5c1.9-0.3,3.8-0.5,5.8-0.8
		c0.7-0.1,1.3-0.4,1.9-0.7c1.7-0.9,3.4-1.8,5.2-2.8c-1.9-2.3-3.6-4.6-6.3-6.2c-1.6-1-3.5-1.3-5.3-0.7c-2.6,0.6-5,2.1-6.7,4.2
		c-1.4,1.7-2.9,3.2-4.5,4.7c-0.4,0.4-1,0.7-1.6,0.8c-2.1,0.2-4.1,0.5-6.2,0.5c-2.2,0-3.9,1.1-5.6,2.4c2.9,0.1,5.8,0.2,8.7,0.2
		c0.8-0.1,1.5,0.3,1.7,1c0.5,1.2,1.2,2.3,1.8,3.6c-2.4,0.4-4.6,0.8-6.8,1.1c-0.6,0.1-1.2,0-1.7-0.2c-2.8-0.9-5.7-1.8-8.5-2.6
		c-0.6-0.1-1.2-0.1-1.8,0.1c-2.5,1-5,2.1-7.3,3.3c-2.1,1.3-4.1,2.8-6,4.4c-2.5,1.9-5,3.9-7.6,5.9l3.2,0.6l-3.8,5.7
		c2.4-0.3,4.7-0.6,6.9-0.8c0.5,0,1.1,0.1,1.5,0.4c1.3,1,2.4,2.1,3.6,3.2c1.2,1.3,2.7,2.1,4.4,2.4c1.4,0.3,2.7,0.7,4.2,1.1
		c-0.2,1.4-0.6,2.8-1.1,4.2c-1.1,2.4-0.2,4,2,5.4c1.7-1.9,4.3-3.2,5.2-5.9c0.8-2.4,2.3-4.4,4.4-5.7c1.2-0.8,2.2-1.9,3.5-2.7
		c1.7-1,2.7-2.7,2.9-4.6c0.2-1.7,1-3.4,2.2-4.6c1.6-2,3-4,4.3-6.1c0.4-0.7,1.1-1.1,1.8-1.1c2.5-0.2,5-0.5,7.6-0.7
		c1-0.1,1.9,0.1,2.8,0.6c2.1,1.1,4,2.3,6.1,3.5l-4.9,3.5c1.6,1.1,3,2.1,4.6,3c0.5,0.2,1,0.1,1.4-0.2c2.6-1.4,5.3-2.9,8.1-4.4
		c0.1,0.6,0.1,1.1,0.2,1.6c0.1,1.3,0.1,2.5,0.3,3.8c0.4,2.4,0.5,4.6-2.7,6.1c5.5,1.9,8.5,5.7,11,10.1c-1.4,1.4-2.9,3-4.4,4.4
		c-0.3,0.2-0.7,0.4-1.2,0.3c-1.1-0.1-2.1-0.4-3.2-0.7c-1-0.5-2.2-0.1-2.8,0.8c-1.2,1.5-3.1,2.2-5,2c-3-0.1-6,0.2-8.9,0.2
		c-0.8-0.1-1.5,0.4-1.7,1.2c0,0.1,0,0.2,0,0.3c-0.4,3.2-1,6.4-1.7,9.7c-0.1,0.6-0.5,1.1-0.9,1.5c-2.2,1.8-4.5,3.4-6.9,4.9
		c-1.6,0.7-3.3,1.2-5.1,1.5c-1.7,0.4-3.5,0.7-5.3,1.1c-0.5,0.2-1,0.5-1.3,1c-1.1,1.9-2,3.9-3.1,5.8c-0.3,0.4-0.8,0.7-1.3,0.8
		c-1.9,0-3.7-0.1-5.6-0.1c-0.6,0-1.2,0.3-1.6,0.8c-2.2,2.9-4.2,5.8-6.4,8.9l-3.5-1.9c0,0.6-0.1,1-0.1,1.4c0,2.4,0,4.7,0,7.1
		c-0.1,0.6-0.3,1.1-0.8,1.5c-5,3.4-9.9,6.8-14.9,10.2c-0.7,0.4-1.2,1.3-1.2,2.1c-0.5,5.6-1.1,11.3-1.7,17.1
		c-1.6-0.2-3.2-0.4-4.7-0.7c-0.3-0.2-0.6-0.5-0.7-0.9c-0.7-2.8-1.3-5.7-1.9-8.5c-0.2-0.8-0.7-1.5-1.4-1.8c-3.3-2.1-7.1-1.7-10.8-2
		c-0.5,0.1-0.9,0.3-1.3,0.6c-0.2,0.1-0.4,0.2-0.5,0.4c-2.4,2.8-5.4,2.2-8.2,1.1c-1.9-0.9-4.1-1-6.1-0.3c-2.2,0.8-4.6,1.3-6.9,2
		c-0.5,0.2-0.9,0.6-1.2,1c-1.7,4.6-3.3,9.2-4.9,13.8c-0.2,0.5-0.2,1-0.1,1.5c1.1,4.6,2.3,9.3,3.5,13.9c0.1,0.2,0.2,0.3,0.3,0.5
		c2.9-0.4,5.8-1,8.8-1.2c2,0,3.8-1.2,4.7-3c0.8-1.4,1.7-2.8,2.7-4c0.2-0.4,0.6-0.6,1-0.7c2.5-0.1,5,0,7.9,0c-3.1,5.6-6,10.7-8.9,16
		l15.2,2c-0.6,3.2-1.2,6.2-1.8,9.2c-0.3,1.8-0.6,3.5-0.9,5.3c-0.2,0.6,0.1,1.3,0.7,1.5c0.6,0.2,1.1,0.6,1.6,0.9
		c2.8,2.2,5.9,3,9.3,1.3c0.6-0.2,1.2-0.1,1.8,0.2c1.8,0.7,3.5,1.5,5.3,2.3c3.9-3.6,7.8-7.1,11.6-10.8c0.8-0.9,2-1.3,3.2-1
		c0.6,0.1,1.1,0.2,1.8,0.3l-2.5,4.8c2,0.5,4,1,5.5-0.8c0.8-1,1.8-0.9,3-0.5c3.8,1.3,7.7,2.4,11.5,3.7c0.9,0.3,1.9,0.1,2.7-0.4
		c2-1.3,3.6-1.1,5.4,0.7c4.5,4.2,9.4,8.1,14.1,12c0.6,0.4,1.4,0.7,2.2,0.8c0.9,0.1,1.8,0.1,2.7,0c1.4-0.2,2.9,0.4,3.7,1.5
		c1.5,1.8,3.1,3.5,4.9,5.1c1.4,1.2,2.2,3,2.2,4.8c0.1,1.6,0.4,3.3,0.6,4.9c0,0.3,0.1,0.7,0.3,1c1.2,1.9,2.4,3.9,3.6,5.9
		c2.1-0.9,4.2-1.7,6.2-2.6c0.6-0.3,1.3-0.2,1.8,0.2c1.9,1,3.1,2.9,3.3,5.1c0.1,1,0.6,1.4,1.8,1.4c3.4-0.1,6.8-0.1,10.2,0
		c0.8,0,1.5,0.2,2.2,0.6c3.6,1.9,7.2,3.8,10.8,5.8c0.4,0.3,0.8,0.7,1.1,1.2c0,0.1,0,0.2,0.1,0.3c1.8,3.5,1.2,6.7-0.8,10
		c-1.6,2.7-3,5.6-4.2,8.5c-0.5,1.4-1.7,2.5-3.1,2.9c-1.1,0.1-1.8,1.1-1.7,2.1c0,0.1,0,0.2,0,0.3c0,0.2,0,0.4,0,0.7
		c-0.7,2.7,0,5.5,1.8,7.6c0.3,0.5,0.3,1,0.1,1.5c-1.9,5.8-3.9,11.7-5.8,17.5c-0.1,0.6-0.6,1-1.2,0.9c0,0-0.1,0-0.1,0
		c-2.9-0.5-5.3,0.7-7.7,2.2c-2.9,1.8-5.9,3.5-8.9,5.2c-0.7,0.3-1.1,0.9-1,1.6c0.1,2.4,0,4.9,0.1,7.3L664.9,599L664.9,599z
		 M309.9,599c1.6-1.3,3-2.9,4.8-3.8c4.6-2.3,9.4-4.3,14-6.4c0.7-0.3,1.2-0.9,1.6-1.6c0.7-1.5,1.4-3,1.9-4.6c0.2-1,1-1.7,2-1.8
		c1.2-0.1,2.2-1,2.6-2.1c1.3-3.2,3.8-5.8,7-7.2c1.3,1.6,2,3.6,1.9,5.7c1.4-0.2,2.6-0.2,3.7-0.5c0.3-0.1,0.6-0.4,0.7-0.8
		c0.6-2.2,1.8-4.1,3.5-5.7c1.5-1.2,3-2.3,4.7-3.3c0.2-0.1,0.5-0.1,0.8-0.1c3.8,0.3,7.6,0.6,11.5,0.9c-0.3,0.5-0.6,1.2-0.9,1.9
		c-0.6,1.1-1.1,2.2-1.5,3.4c-0.3,1-1.7,2-0.5,3.3c0.8,0.9,1.7,1.8,2.6,2.5c1.3,0.7,2.5,1.3,3.9,1.9c1.1,0.5,2.1,1.1,3.1,1.8
		c1,0.7,1.8,1.6,3,2.7c0.8-3.3,1.8-6.3,2.3-9.4c0.5-3.5,0.5-7,1-10.5c0.1-1,1.1-1.9,1.7-2.8l0.4,0.1c0.2,0.4,0.3,0.7,0.5,1.1
		c0.9,3,1.8,6,2.8,9c0.2,0.6,0.5,1.2,1.1,1.5c1.4,0.5,2.4,1.9,2.3,3.5c0.1,0.4,0.1,0.8,0.1,1.2c-0.5,3.8,1.4,6.8,3.7,9.6
		c2.8,3.5,5.7,7,8.6,10.5L309.9,599L309.9,599z M122.3,599c1.1-2.5,2.4-4.9,3.4-7.5c0.2-0.8,0.2-1.6,0-2.4c-0.3-2.3-0.6-4.6-0.9-6.9
		c0-0.4-0.1-0.8,0-1.2c0.1-1.2,0.6-1.7,1.9-1.7c3.5,0.1,7.5-2.5,8.6-5.5c0.6-1.6,1.1-3.1,1.7-4.7c0.1-0.4,0.3-0.8,0.6-1.4
		c1.2,1.6,2.4,3,3.5,4.5c0.2,0.4,0.2,0.7,0.2,1.1c-0.1,1.5-0.1,3-0.1,4.6c0.6,4.7-1.6,8.8-3.1,13c-1,2.7-1.9,5.3-2.9,8L122.3,599
		L122.3,599z M688,290.1l8.2-2.4L695,286l2.2-1.2l-3-1.4c0-0.1,0-0.3,0-0.4c0.9-0.3,1.9-0.5,2.9-0.6c2.5,0.2,5.1-0.2,7.5-0.9
		c1-0.4,2-0.8,3-1.3c0-0.1-0.1-0.2-0.1-0.3c-0.3,0-0.5,0.1-0.8,0.1c-2.5,0.3-4.9,0.6-7.4,0.8c-1.6,0-3.1,0.2-4.7,0.6
		c-2.5,0.9-4.7,0-7-0.6c-2.1-0.6-2.1-0.6-3.5-2.9c2.1,0.1,4.2,0.2,6.3,0.5c2.9,0.5,5.5-0.3,8.2-1.1c1.5-0.4,2.9-0.9,4.4-1.3
		c0.5-0.1,1.1,0,1.6,0.1c1.8,0.4,3.6,0.2,5.2-0.6c0.8-0.3,1.7-0.3,2.5-0.1c1.6,0.4,3,1,4.9,0.1c1.3-0.6,3.2-0.1,4.8-0.1
		c0.9,0,1.8,0.1,2.7,0.1c0.3,0,0.6,0,0.9,0.2c1.1,1.7,2.8,0.9,4.3,0.9c1.8,0,3.7-0.3,5.5-0.3c-2.7,1.6-5.7,2.5-8.8,2.5
		c-1.2,0-1.9,0.3-2,1.6c1.9,0.5,3.6,1.7,5.8,0.6c1.2-0.5,2.4-0.7,3.7-0.8c0.7-0.1,1.3,0,2,0.3c0.7,0.3,1.5,0.1,1.9-0.5
		c1.2-1.5,3.3-2,5-1.2c1.2,0.3,2.3,0.6,3.5,0.8l0.2-0.3l-2.1-1.3c0.1-0.2,0.2-0.3,0.3-0.5c1.9-0.1,3.7-0.2,5.6-0.2
		c0.4,0.1,0.7,0.4,0.9,0.8c0.3,0.5,0.6,1.1,0.9,1.6c1.3-2.3,2.9-2.4,4.9-1.2c0.7,0.2,1.4,0.4,2.1,0.4l-0.9-2.3
		c1.5-0.1,2.8-0.3,4.2,0.4c1,0.5,2.2,0.7,3.3,0.8c2,0.1,4.1,0.2,6.1,0.1c0.7-0.1,1.4-0.3,2.1-0.7c1.3-1.1,3-1.5,4.6-1.1
		c1.7,0.3,3.4,0.1,5-0.7c2-0.8,4.2-1.2,6.4-1.2c0.5,0.1,0.8,0.4,1,0.9c0.2,0.7,0.9,1.1,1.5,0.9c3.8-0.3,7.7-0.4,11.5-0.8
		c1.6-0.2,2.1,0.8,2.8,2.1c-2,0-4.1,0-6.1,0c-1.2,0-2.4,0.1-3.6,0.4c-1.4,0.5-2.8,1.1-4.2,1.8l0.2,0.7c2.4-0.4,4.8-0.8,7.2-1.1
		c0.9-0.1,1.9,0,2.8,0.3c0.8,0.3,1.6,0.3,2.4,0.1c2-0.6,4.1-1,6.4-1.5c-0.6,1.2-1.1,2.1-1.6,3.2l17.9-3c0.4,1.9,0.4,2-1.3,2.4
		c-3.3,0.6-6.5,1.8-9.5,3.3c-1.3,0.7-2.2,1.9-2.4,3.4c3.6,0.2,4.6,0.7,4.7,2.6c-1.9-0.4-3.9,0.3-5.2,1.8c-1.1,1.2-1.8,2.7-2.7,4
		c-0.4,0.6-1.1,1.1-1.8,1.3c-1.6,0.3-3,1.4-3.7,2.9c2.4,0.8,4.8,1.5,5.7,4.2c-0.1,0.2-0.2,0.3-0.2,0.5c-0.9-0.3-1.8-0.7-2.6-1.1
		c-1.7-1.1-3.4-0.9-5.2-0.4c-0.9,0.3-1.7,0.8-2.4,1.3c0.4,1,1.5,1.5,2.5,1.1c1.5-0.3,3.1-0.4,4.6-0.5c-0.5,1.4-0.7,2.3-1.1,3.2
		c-0.3,0.3-0.6,0.5-1,0.5c-1.4,0.6-2.9,1.1-4.4,1.5c-1,0.1-2,0.1-3,0c-1.7-0.1-3.3-0.2-5.2-0.4c0.1,1.6-1.3,1.9-2.3,2.5
		c-1.7,0.9-3.4,1.8-5.1,2.6c-0.7,0.3-1.5,0.3-2.3,0c-0.7-0.3-1.5-0.2-2.1,0.2c-1.4,0.8-2.8,1.6-4.2,2.3c-0.7,0.3-1.2,0.7-0.9,1.5
		c0.6,1.8-0.5,3-1.6,4.1c-0.8,0.7-1.3,1.7-1.5,2.8c-0.3,1.3-1.5,2.3-2.3,3.6c-0.9-0.4-1.8-0.8-2.7-1c-1.1-0.4-2.2-0.7-3.3-0.9
		c-2.5-0.4-4-2.2-5.6-3.8c-1-1-1.6-2.3-2.6-3.3c-2.2-2.4-1.2-5.1-1.1-7.7c0-0.7,0.9-1.4,1.6-2.1c1-0.8,1.2-2.3,0.4-3.3
		c0,0-0.1-0.1-0.1-0.1c-2.3-0.4-4.9,0.6-7.1-1c1.5-1.5,3.5-2.3,5.6-2.2c-0.5-1.1-1.5-2-2.7-2.4c-1.6-0.8-2.1,0.8-3.2,1.1
		c-0.8-0.4-1.1-1.4-0.7-2.3c0.1-0.1,0.2-0.3,0.3-0.4c0.2-0.4,0.1-0.8-0.1-1.2c-1-1.3-2.2-2.5-3.3-3.7c-0.2-0.2-0.5-0.4-0.7-0.5
		c-3.5-1-6.9-2.2-10.5-3c-1.6-0.3-3.3,0.1-5,0.3c-1.3,0.1-2.5,0.2-3.9,0.3c-0.1-0.5-0.3-1-0.4-1.5l3.3-1.7
		c-4.2-0.9-8.4,0.9-12.4-1.2c0.6-0.4,1.3-0.7,2-0.9c2.1-0.3,4.2-0.3,6.3-0.6c1.4-0.2,2.7-0.6,4-1c0.4-0.2,0.6-0.7,0.6-1.1
		c-0.2-0.4-0.5-0.6-0.9-0.7c-2.1-0.1-4.2-0.7-6.1-1.6c-0.5-0.1-1-0.1-1.5,0c-0.4,0.1-0.8,0.3-1.1,0.5c-2.7,1.7-5.7,1.9-8.7,1.5
		c-2.2-0.3-3.9,0.6-6.1,1.4c1.8,1,1.1,2.2,0.4,3.3c-0.3,0.4-0.7,0.7-1.2,0.9c-2,0.3-3.9,0.6-5.9,0.8c-0.9-0.1-1.8,0.3-2.3,1.1
		c-0.6,0.9-1.7,1.3-2.8,1.1C692.2,292,689.9,291.3,688,290.1z M371.8,530.6c3.6,2.1,7,4.1,10.4,6c2.2,1.3,4.4,2.7,6.6,3.8
		c3.9,1.9,6.9,4.8,10.1,7.8l-2.2,1c0.3,1.1,0.5,2.2,0.8,3.3c0.2,0.3,0.4,0.6,0.7,0.7c0.7,0.4,1.4,0.8,2.1,1.1
		c2.3,0.7,3.4,2.5,4.6,4.2c0.2,0.3,0.1,0.7,0,1c-1.4,2.2-1.5,2.2-4,1.4c-1.5-0.6-2.9-1.6-3.9-2.9c-1.4-1.4-2.7-2.9-4.1-4.4
		c-1.8-1.6-4.3-2-6.5-1c-0.3,0.2-0.4,0.5-0.5,0.9c-0.4,1.3-0.7,2.7-1.1,4.1c-4.8-1.7-8.6-4.5-10.6-9c-1.2-2.7-2.2-4.9-5.6-6.2
		c-4.7-1.7-8.5-5.2-12.1-8.6c-0.8-0.5-1.2-1.6-0.9-2.5c0.2-0.9,0.3-1.7,0.3-2.6c2.7,0.4,5.6-0.3,7.6,2.2c-0.1,0.2-0.2,0.5-0.2,0.8
		c-0.2,0.8-0.9,2-0.6,2.4c0.8,1.1,1.9,2,3.1,2.7c1,0.6,1.4-0.5,1.9-1.2C369.1,533.9,370.4,532.2,371.8,530.6z M324.3,509.8
		c-0.7,0.6-1.7,1.5-2.7,2.4c-0.2,0.2-0.5,0.4-0.7,0.6c-2.7,2.3-3.1,4.5-1.4,7.6c0.4,0.6,0.7,1.2,1,1.8c0.2,0.4,0.2,0.9,0,1.3
		c-1,1.1-0.9,2.3-0.8,3.6c0.2,0.7-0.3,1.4-1,1.6c0,0,0,0,0,0c-2.4,0.7-3.4,2.3-3.9,4.5c-0.5,2-1.2,3.9-1.8,5.8c-0.1,0-0.2,0-0.3,0
		c-2.1-3.2-5.6-2.2-8.6-2.4c-0.5,0-1,0.8-1.7,1.4l-4.1-1.8c-0.1-0.5,0-1,0-1.4c0.5-1.9-0.1-3.8-1.5-5.2c-1.6-1.8-1.4-4.1-1.4-6.2
		c0-0.8,1.4-1.7,2.3-2.6c1.2,1.1,2.3,1.8,3.8,1.4c0.4-0.2,0.8-0.5,1.1-0.9c0.1-0.2,0.1-0.3,0.1-0.5c0.2-2.7,1.6-5.3,3.7-7
		c1.8-1.7,3.8-3.2,5.6-4.9s3.4-3.5,5-5.2L324.3,509.8z M374.4,384.4l10.1,8.4c-2.3,2-5.6,2.6-8.5,1.5c0.3,1.2,0.6,2.5,1,3.6
		c1.6,3.8,1.5,7.8,1.6,11.8c0,2.5-0.9,5-2.5,6.9c-0.3,0.3-0.8,0.5-1.2,0.4c-1.5-0.3-2.9-0.7-4.3-1c-0.5,0-1,0.2-1.4,0.4
		c-0.1,0-0.1,0.1-0.2,0.2c-2.4,3.5-5.9,4.5-10,4.8c-0.4,0-0.8,0.2-1.2,0.5c-0.7,0.5-1.3,1-2,1.6c-1.2-1.9-2.4-3.6-3.5-5.4
		c-0.1-0.2-0.2-0.4-0.1-0.6c0.8-1.5,1.2-3.1,2.7-4.3c2.4-1.9,5-1.8,7.8-1.6c1.2,0.1,2-0.1,2.5-1.2c0.1-0.2,0.2-0.3,0.3-0.4
		c0.8-1.9,2.5-3.2,4.5-3.4c0.7-0.3,1.3-0.7,1.8-1.3c2-2,2.5-5.1,1.2-7.7c-1.4-3.3-0.1-6.4,0.5-9.6
		C373.8,386.8,374,385.8,374.4,384.4z M-18.5,358.7c-0.5-1.5-1-2.9-1.4-4.3c0-0.4,0-0.8,0.2-1.1c0.3-0.6,0.4-1.2,0.5-1.9
		c-0.2-1.8,0.6-2.8,2.5-3.1c0.1,0,0.3-0.1,0.4-0.1c3.5-1.7,7.5-2.2,11.3-1.6c-0.2-1.2-0.2-2.1-0.4-2.9c-0.2-0.7-0.4-1.4-0.8-2.1
		c-1.2-1.8-0.3-3.4,0.3-5.1c0.1-0.3,0.4-0.5,0.6-0.6c1.1-0.4,2.2-0.8,3.4-1.2c0,0.3,0.1,0.5,0.1,0.8c-0.2,2-0.2,2,1.7,2.7
		c0.6,0.2,1.2,0.4,2,0.7c-0.5,1-1.1,1.9-1.5,2.9c-0.1,0.4-0.1,0.8,0.1,1.1c2.2,2.1,4,4.6,5.6,7.2c1,1.7,2.5,3,4.2,3.7
		c0.9,0.4,0.9,0.8,0.6,1.7c-0.9,2.9-3.6,3.8-6,3.8c-3.5,0-7,0.8-10,2.5c-0.4,0.2-0.8,0.3-1.2,0.5c0.2-1.9,0.5-3.6,0.5-5.3
		c0.1-1.4,0.7-2.8,1.7-3.8c0.8-1.2,1.4-2.5,2-3.9c-2.3,0.3-4.3,0.4-6.4,0.7c-0.4,0.1-0.7,0.4-0.9,0.7c-1.2,1.2-2.3,2.5-3.3,3.8
		C-14.2,356.3-16.1,357.5-18.5,358.7z M284.8,546.2c-2.5-2-4.8-4.2-7.3-6c-2.6-2-4.6-4.7-5.7-7.8c-2.2-5.2-3.9-10.6-7.2-15.3
		c-1.1-1.5-2.5-2.8-3.5-4.4c-0.7-1.3-1.2-2.7-1.5-4.1c0.2-0.3,0.5-0.5,0.9-0.6c2.2,0.7,4.4,1.4,6.6,2.2c0.3,0.2,0.6,0.5,0.7,0.8
		c0.3,3.3,2.6,5.6,4.6,7.9c1.7,2,3.6,3.8,5.3,5.7c0.2,0.3,0.4,0.5,0.7,0.6c2.1,0.4,2.2,2.1,2.5,3.6c0.4,2,1.8,2.8,3.5,3.3
		c1.2,0.4,2.4,0.6,3.5,0.9c0.9,0.1,1.6,0.9,1.5,1.8c0,0.3-0.1,0.5-0.2,0.7c-0.3,0.8-0.7,1.6-1.1,2.4c-1,1.5-1.2,3.3-0.6,5
		c0.3,0.7,0,1.5-0.6,1.8C286.1,545.2,285.5,545.7,284.8,546.2z M630.5,301.4l1.2-1.6l-0.1-0.2c-2.7,1-5.3,2.1-8,3.1
		c-0.6,0.2-1.3,0.2-1.9,0.1c-1.7-0.6-3.4-1.3-5.4-2l4.5-2.7c-0.6-0.7-1.1-1.3-1.8-2c2.4-0.3,4.6-1.5,6.9,0c1.2,0.8,2.8,0.9,4.1,0.3
		c0.6-0.2,1.2-0.2,1.8,0c2.8,0.9,5.5,1.9,8.3,2.7c1.6,0.5,3.3,0.8,5,0.9c1.9-0.1,3.8,0.4,5.5,1.5c0.4,0.2,0.7,0.4,1.1,0.5
		c-0.4-1.4-0.7-2.6-1.1-4c0.8-0.2,1.6-0.4,2.4-0.5c0.4,0.1,0.7,0.3,0.9,0.6c1,1.2,1.8,2.5,2.9,3.6c1.7,2,4,3.5,6.6,4.1
		c-1.8,0.9-3.2,1.7-4.7,2.4c-0.3,0.2-0.7,0.2-1,0.1c-3.4-1-6.6-0.3-10,0.4c-2.2,0.5-4.5,0.7-6.7,0.4c-1.9-0.3-3.6-1.5-5.7-2.4
		l6.5-1.8C639,303.1,635.1,301.9,630.5,301.4z M274.1,504.9c0.3,0.1,0.6,0.1,0.8,0.1c1.1-0.2,2.2,0.4,2.7,1.4c0.5,0.6,1,1.1,1.6,1.5
		c0.7,0.6,1.5,1.1,2.1,1.8c1.2,1.2,1.1,2.7,0.8,4.1c-0.4,2.7,0.2,5.4,1.7,7.7c0.2,0.3,0.3,0.6,0.5,0.9c0,0.1,0,0.3,0,0.4
		c-2.2-0.2-4.3,0-6.1-1.9c-2.6-2.5-4.5-5.6-5.6-9c-0.9-2.9-2.1-5.7-3.4-8.5c-1.4-2.8-1.6-5.4,1-7.8
		C272.9,498,274.3,501.4,274.1,504.9z M832,319.2c-3.9,3.5-8.8,5.7-14,6.2c-2,0.3-4-0.4-5.5-1.8c-2.3-2.7-5.6-4.4-9.1-4.9
		c-0.2,0-0.4-0.1-0.5-0.3c5-0.7,10.4,0.1,14.9-3.1c0.5,1.1,0.8,1.9,1.2,2.9c1.8-1.2,3.6-2.3,5.2-3.5c0.5-0.5,1.3-0.5,1.9,0
		c0,0,0,0,0,0C828.2,316.3,830.1,317.7,832,319.2z M325.3,522.9c2.8,0.3,5.4,0.5,7.9,0.8c0.9,0.2,1.8-0.1,2.4-0.7
		c0.6-0.6,1.3-1.1,2-1.7l1.8,1.8c-1,1-2,1.9-3.1,2.8c-0.3,0.2-0.7,0.4-1.1,0.4c-2.7,0.3-5.4,0.6-8.3,0.9c0.3,0.9,0.6,1.8,0.8,2.7
		l4.5-0.8c0.8,1.3,0.4,3-0.9,3.8c-0.8,0.4-1.1,1.5-0.7,2.3c0.1,0.1,0.2,0.2,0.3,0.4c0.3,0.5,0.4,1.1,0.7,1.5c1.5,2.2,1.8,5,0.8,7.5
		l-5.1-8c-1.3,2.9-0.9,6-0.9,9c-1.9-0.8-2.2-1.5-2.4-3.2c-0.2-1.4-0.6-2.7-1.3-3.9c-0.8-1.5-0.8-3.4-0.1-4.9
		c0.7-1.8,0.8-3.9,1.3-5.8C324.4,525.9,324.9,524.2,325.3,522.9z M144.5,288.4c3.9-2.6,7.2-6.1,11.7-7.8c1.6-0.6,3.1-1.3,4.5-2.1
		c2.2-1.2,4.8-1.7,7.3-1.2c0.7,0.1,1.4,0.1,2.5,0.2c-5.5,3.8-11.4,7.2-17.4,10.2c0.7,2.3,1.5,4.5,2.1,6.7c0.1,0.5,0.1,1.1,0.1,1.6
		c-0.6,0-1.2,0-1.8-0.1c-3.4-0.6-6.3-2.7-7.8-5.8C145.3,289.5,144.9,288.9,144.5,288.4z M286.2,548.3c1.2-0.7,2.7-0.9,4.1-0.5
		c2.9,0.5,5.8,0.8,8.7,1.2c0.2,0,0.4,0,0.5-0.1c1.3-1,2.7-0.6,4.1-0.4c0.5,0.1,1,0.1,1.5,0.2c2.1,0,4.1,0.9,5.6,2.3
		c1.2,0.9,2.6,1.5,4,1.6c3.8,0.6,7.5,1.4,11.3,2.2c-3.9,1-7.4,2.7-11.8,1.7c-7.7-1.7-15.6-3-23.1-5.5
		C289.3,550.2,287.7,549.3,286.2,548.3z M39.3,286.8h27c-0.5,0.7-0.8,1.1-1.2,1.6c-0.8,1-1.8,2-2.5,3.1c-0.7,1.1-2,1.7-3.3,1.6
		c-3.5,0.2-7,0.6-10.5,0.9c-0.4,0.1-0.9,0-1.2-0.2C45,291.6,42.3,289.3,39.3,286.8z M376.5,382.2l9.7-21l4.5,1.1
		c-0.2,1.4-0.5,2.9-1,4.2c-2.2,4.9-4.5,9.7-6.8,14.6c-0.2,0.7-0.9,1.1-1.6,1C379.8,382.2,378.3,382.2,376.5,382.2z M329.1,485
		c-1.4-2.5-3.1-4.8-4.1-7.4c-1.3-3.2-1.1-6.9,0.4-10c0.2-0.2,0.4-0.4,0.7-0.4c1.5-0.2,2.9-0.4,4.6-0.7c0.2,1.2,0.5,2.3,0.6,3.3
		c0.2,1.9,0.4,3.9,0.4,5.8c-0.1,0.8-0.3,1.6-0.8,2.3c-0.8,1-1,2.3-0.4,3.5C331.5,483.1,330.1,484,329.1,485L329.1,485z M339.6,507.5
		c-3-0.2-4.6-2-6-4c-0.3-0.4-0.4-0.8-0.3-1.3c0.6-2.8,0.5-5.7-0.2-8.5c0-0.8,0.4-1.6,1.1-2.1c0.7-0.1,1.5,0.2,2,0.8
		c1.8,2.2,3.3,4.6,5,6.9c1.2,1.6,0.6,3.2,0.1,4.7C340.8,505.2,340.3,506.4,339.6,507.5L339.6,507.5z M337.7,281.1
		c1.6-0.7,3.2-1.3,4.9-1.8c3.9-1,7.7-0.2,11.5,1c2,0.7,4.2,1,6.6,1.6c-1.4,1.3-2.6,2.5-3.9,3.7c-0.3,0.1-0.7,0.1-1,0.1
		c-6.2-0.4-12.1-2.3-17.9-4.1L337.7,281.1z M633.5,290.3l-10.2,0.9c0-0.1,0-0.3-0.1-0.4c4.3-2,8.9-1.9,13.5-2.4
		c0,0.1-0.1,0.2-0.1,0.3c0.4,0.4,0.9,0.8,1.3,1.1c3.9,2.5,8.3,1.8,12.5,1.1c2.1-0.3,3.4,0.5,4.9,1.5c-2.2,1.5-5,2.2-7.7,1.8
		c-4-0.6-8.2-0.8-12.3-1c-0.9,0.1-1.6-0.5-1.8-1.3c0-0.2,0-0.4,0-0.6C633.6,291,633.6,290.7,633.5,290.3L633.5,290.3z M690.3,285.2
		c-2.7,0.7-5,1.3-7.2,1.9c-0.1,0-0.3,0-0.4,0c-3.2-1-6.5-1.9-8.7-4.5c2.9-2.3,6.2-1.9,9.5-1.1c1.6,0.3,3.1,0.8,4.6,1.4
		C688.9,283.2,689.4,284.2,690.3,285.2L690.3,285.2z M221,497.1c1.5,0.7,3,1.2,4.3,1.9c0.5,0.3,0.8,0.8,0.9,1.4
		c0,1.4-0.1,2.9-0.3,4.3c-0.1,0.3-0.3,0.6-0.7,0.6c-1.5,0.3-3.1,0.5-4.7,0.7c-0.4,0-0.7-0.2-1-0.5c-0.6-1.2-1.1-2.5-0.5-3.9
		C219.8,500.2,220.4,498.7,221,497.1z M672.3,302.1c-3.8,1.9-6.7,1-10.3-2.5c2.3-2.2,5.1-1.8,7.9-1.7c0.2,0.1,0.4,0.2,0.6,0.5
		C671.1,299.6,671.7,300.9,672.3,302.1z M676.6,301.5l-3.2-3.5l11.3-2l0.1,0.4c-1.4,0.9-2.7,1.7-4.1,2.6
		C679.5,299.8,678.1,300.6,676.6,301.5L676.6,301.5z M140.3,394.4c-1.8-2-3.6-3.9-5.3-6c-0.8-1-1.5-2-2.1-3.1
		c-0.8-1.4-1.4-2.8-2.1-4.5c1-1.3,2.1-2.5,3.3-3.6c1-0.7,2-1.4,3.1-2c1.3-0.9,2.5-2,3.9-2.8c0.6-0.3,1.2-0.4,1.8-0.2
		c1.8,0.4,3.5,1,5.4,1.5c-0.6,2.1-1.7,3.8-3.9,4.5c-1.1,0.4-1.3,1.1-1.2,2.1c0.1,1.9,1,3.7,2.5,4.9c1.9,1.5,2.8,3.9,2.3,6.3
		c-0.1,1.4,0.1,2.8,0.6,4.1c0.4,1.3,1.2,2.5,1.8,3.8c0.3,0.7,0.4,1.4,0.5,2.1c0,1.2,0.2,2.8-0.5,3.3c-1.4,1.1-3.2,2.2-5.3,1.9
		c-0.8-0.1-1.7,0-2.4-0.2c-0.7-0.2-1.4-0.5-1.9-1c-1.1-0.7-2.1-1.6-3.3-2.3c-0.6-0.3-0.8-0.9-0.7-1.5c0.2-1.6,0.9-3.2,1.9-4.5
		C139.1,396.3,139.6,395.5,140.3,394.4L140.3,394.4z M91.6,374l4.8,3l-0.9,3c1.1,0.8,2.6,0.9,3.9,0.3c2.5-1.2,4.8-1,7.3,0.1
		c4,1.7,7.3,4.3,10.8,6.7c0.2,0.2,0.4,0.5,0.3,0.9c-0.4,3-0.3,3.2-3.5,3.5c-2.5,0.2-5,0.2-7.5,0.1c-0.4-0.1-0.8-0.2-1.1-0.4
		c-1.5-0.7-3-1.2-4.4-2c-3.5-2-6.6-0.9-9.5,1.3c-2.3,1.7-6.9,1.9-9,0.2c-0.9-1-1.7-2.1-2.4-3.3c2.5-1.2,2.3-3.8,3.4-5.8
		C85.7,378.3,88.4,375.8,91.6,374z"/><g class="st2"><path class="st3" d="M618.9,365.9c-0.7,0.3-1.5,0.5-2.3,0.5c-3.1,0-5.6-2.5-5.6-5.6c0-3.1,2.5-5.6,5.6-5.6c0.8,0,1.6,0.2,2.3,0.5
			v9.6C618.9,365.5,618.9,365.7,618.9,365.9z"/><rect x="648.1" y="649.2" class="st4" width="13.8" height="8.6"/><rect x="617.8" y="649.2" class="st4" width="13.7" height="8.6"/><polygon class="st5" points="633.8,567.1 633.9,592.2 633.7,649.2 612.8,649.2 613,585.4 612.9,571.7 		"/><polygon class="st6" points="633.8,572.8 633.8,591 612.9,584.2 612.9,572.8 		"/><polygon class="st5" points="663.7,571.7 663.6,649.2 643.7,649.2 643.8,571.7 		"/><path class="st3" d="M654.7,344.5v29.2c0,1.6-0.2,3.1-0.5,4.6c-0.9,3.8-2.8,7.2-5.5,9.9c-3.7,3.7-8.8,6-14.5,6
			c-1.2,0-2.4-0.1-3.5-0.3c-1.3-0.2-2.6-0.6-3.8-1.1c-4.7-1.8-8.5-5.3-10.8-9.7c-1.5-2.8-2.3-6-2.3-9.4v-29.2c0-2.3,0.4-4.4,1-6.5
			c4.5-7,12.5-11.3,22.2-11.3c1,0,2,0.1,3,0.2c2.5,0.3,4.8,0.9,7.1,1.7c0,0,0,0,0,0C651.8,332.4,654.7,338.1,654.7,344.5z"/><polygon class="st6" points="643.8,585.7 663.6,592.2 663.6,572.8 643.8,572.8 		"/><path class="st7" d="M600.7,575.8l72.6,0l-4.8-137.3l-0.2-5.4c0,0,3-12.9,5.1-12.4c-6.9-13.9-26-15.7-26-15.7
			c-0.8-0.1-1.6-0.3-2.4-0.4c-1.4-0.2-2.6-0.3-3.6-0.4c-1.7-0.2-2.7-0.2-2.7-0.2l0,1.1c-1.9-0.4-3.8-0.6-5.8-0.6
			c-3.2,0-6.2,0.5-9.1,1.5c-0.3,0.1-0.7,0.2-1,0.3c0,0-0.5,0.1-1.4,0.3c-1.2,0.3-3.2,0.7-5.3,1.4c-4.1,1.4-11.3,6.1-11.1,7.6
			c0.1,1.1,0.2,6.3,0.2,13.3c0.1,18.2-0.2,48.2-0.2,48.2L600.7,575.8z"/><path class="st8" d="M673.6,420.7c-2.1-0.4-5.1,12.4-5.1,12.4l0,0.5l0.2,4.9l1,30.4h0l0.1,1.7c-1.4,0.1-2.8,0.3-4.2,0.3
			c-7,0.3-14,0.1-20.9-0.2c-13.1-0.7-26.2-2.4-39.4-2.2c0.1-10.3,0.2-27.5,0.2-39.5c0-7-0.1-12.3-0.2-13.3c-0.2-1.5,7-6.2,11.1-7.6
			c2.2-0.7,4.1-1.2,5.3-1.4c0.8-0.2,1.3-0.3,1.4-0.3c0.3-0.1,0.7-0.2,1-0.3c2.8-1,5.9-1.5,9.1-1.5c1.6,0,3.2,0.1,4.8,0.4
			c0.3,0.1,0.7,0.1,1,0.2l0-1.1c0,0,1,0.1,2.7,0.2c1,0.1,2.2,0.2,3.6,0.4c0.3,0,0.6,0.1,0.9,0.1c0.5,0.1,1,0.1,1.5,0.2
			c0,0,5,0.5,10.8,2.8C663.9,410,670.2,413.9,673.6,420.7z"/><path class="st7" d="M628.7,414.1l9.2-9.2c0.3,0.1,0.7,0.1,1,0.2l0-1.1c0,0,1,0.1,2.7,0.2c1,0.1,2.2,0.2,3.6,0.4
			c0.3,0,0.6,0.1,0.9,0.1c0.5,0.1,1,0.1,1.5,0.2c0,0,5,0.5,10.8,2.8C659.6,418.7,628.7,414.1,628.7,414.1z"/><ellipse class="st9" cx="637.8" cy="363.8" rx="0" ry="0.3"/><path class="st10" d="M645.3,404.6C645.2,404.6,645.2,404.6,645.3,404.6C645.2,404.6,645.2,404.6,645.3,404.6
			c-1.5-0.2-2.7-0.3-3.7-0.4c-1.7-0.2-2.7-0.2-2.7-0.2l0,1.1c-1.9-0.4-3.8-0.6-5.8-0.6c-1.8,0-3.6,0.2-5.3,0.5
			c-0.3,0.1-0.7,0.1-1,0.2c0.7,3.7,5.1,7.2,8.6,8.1c0.7,0.2,1.4,0.3,2.1,0.3c0.7,0,1.4-0.1,2.1-0.3c3.7-0.9,8.4-4.3,8.7-8.2
			L645.3,404.6z"/><path class="st11" d="M639.7,410.3v2.7c0,0.1,0,0.2,0,0.3c-0.7,0.2-1.4,0.3-2.1,0.3c-0.7,0-1.4-0.1-2.1-0.3c0-0.1,0-0.2,0-0.3
			v-2.7c0-1.2,1-2.2,2.2-2.2c0.6,0,1.1,0.2,1.5,0.6C639.4,409.1,639.7,409.7,639.7,410.3z"/><g><path class="st12" d="M637.6,409.7c2.5-0.1,9.2,2.1,10.4,4.4c-0.8-12.3-4.5-12-4.5-12h-4.7l-7,0c0,0-3.8,0.6-3.2,12
				C629.7,411.9,635.1,409.8,637.6,409.7z"/></g><path class="st13" d="M630.5,655.8h-8.4h-4.7c-0.5,2.2-7.1,3.6-9.6,3.9l-15.1,2.8c-0.4,0.8-0.6,1.8-0.6,2.8c0,3.7,3.9,3.9,7.5,3.9
			h12.9h4.7l3.3-3.7v3.7h9.9c3.7,0,4.2-3,4.2-6.7C634.7,658.8,634.2,655.8,630.5,655.8z"/><rect x="620.6" y="665.5" width="14.6" height="3.7"/><path class="st3" d="M643.5,385.2v18c0,0.4,0,0.7-0.1,1.1c-0.1,0.6-0.3,1.2-0.6,1.7c-1.2,1.4-3.2,2.3-5.1,2.3
			c-2.6,0-5-1.9-5.8-4.3c0-0.2,0-0.5,0-0.7v-18c0-1.6,0.6-3.1,1.7-4.1c1.1-1.1,2.5-1.7,4.1-1.7C640.9,379.3,643.5,381.9,643.5,385.2
			z"/><path class="st14" d="M643.4,404.2c-0.1,0.6-0.3,1.2-0.6,1.7c-1.2,1.4-3.2,2.3-5.1,2.3c-2.6,0-5-1.9-5.8-4.3c0-0.2,0-0.5,0-0.7
			v-3.7C635.8,400.2,639.9,402.1,643.4,404.2z"/><rect x="592.5" y="666.8" width="24.9" height="2.3"/><polygon points="617.4,666.8 620.6,665.5 617.4,669.1 		"/><path class="st15" d="M660.9,655.8h-8.4h-4.7c-0.5,2.2-7.1,3.6-9.6,3.9l-15.1,2.8c-0.4,0.8-0.6,1.8-0.6,2.8c0,3.7,3.9,3.9,7.5,3.9
			H643h4.7l3.3-3.7v3.7l9.9,0c3.7,0,4.2,0.3,4.2-3.4C665.1,662,664.6,655.8,660.9,655.8z"/><rect x="651" y="665.5" width="14.6" height="3.7"/><rect x="622.9" y="666.8" width="24.9" height="2.3"/><polygon points="647.8,666.8 651,665.5 647.8,669.1 		"/><path class="st3" d="M657.7,360.8c0-2.1-1.2-4-2.9-4.9v-11.4c0-2.3-0.4-4.4-1.1-6.5c-1.2-3.7-3.5-7-6.5-9.4c0,0,0,0,0,0
			c-0.8-0.3-1.6-0.6-2.4-0.8H629c-6,1.7-10.9,5.3-14.1,10.2c0,0,0,0.1,0,0.1c-0.7,2-1,4.1-1,6.4v29.2c0,3.4,0.8,6.6,2.3,9.4
			c2.3,4.4,6.1,7.9,10.8,9.7c1.2,0.5,2.5,0.8,3.9,1.1c1.2,0.2,2.3,0.3,3.5,0.3c5.6,0,10.8-2.3,14.5-6c2.7-2.7,4.6-6.1,5.5-9.9
			c0.3-1.5,0.5-3,0.5-4.6v-8C656.5,364.8,657.7,362.9,657.7,360.8z"/><polygon class="st16" points="672.4,326.8 661.8,333.2 660.7,333.8 635.4,348.9 597,326.9 597.2,326.8 632.8,315.5 660.7,323.5 
			661.8,323.8 		"/><polygon class="st17" points="672.4,326.8 635.4,348.9 597,326.9 597.2,326.8 614.5,327.8 653.7,327.8 		"/><path class="st14" d="M649.3,344.3v29.2c0,0.2,0,0.4,0,0.5c0,1.4-0.2,2.7-0.5,4c-0.9,3.8-2.8,7.2-5.5,9.9
			c-3.3,3.3-7.7,5.5-12.6,5.9c-1.3-0.2-2.6-0.6-3.8-1.1c-4.7-1.8-8.5-5.3-10.8-9.7c-1.1-2.5-2.3-5.6-2.3-8.5v-29.2
			c0-2.3,0.9-4.2,1.6-6.3c4.5-7,12.5-11.3,22.2-11.3c1,0,2,0.1,3,0.2c0.4,0.1,0.8,0.3,1.2,0.4c0,0,0,0,0,0
			C646.4,332.2,649.3,337.9,649.3,344.3z"/><circle class="st9" cx="639.3" cy="363.2" r="1.8"/><circle class="st9" cx="624.2" cy="363" r="1.8"/><path class="st18" d="M645.1,358.8c0,0-3.8-3.4-7.6-1.6"/><path class="st18" d="M619.6,358.1c0,0,2.8-2.6,6.6-0.9"/><polygon class="st7" points="669.7,468.9 662.1,468.9 662.1,433.6 668.5,433.6 668.6,438.5 		"/><path class="st3" d="M627.8,369c0.6,0.6,1.8,1.1,3.2,1.1c1.4,0,2.6-0.4,3.2-1.1c0.2,0.3,0.4,0.6,0.4,0.9c0,1.1-1.6,1.9-3.6,1.9
			c-2,0-3.6-0.9-3.6-1.9C627.4,369.5,627.5,369.2,627.8,369z"/><path class="st7" d="M652.2,465.8c0,0-0.1,0-0.1-0.1C652.1,465.7,652.2,465.8,652.2,465.8L652.2,465.8z"/><path class="st7" d="M651.5,465.4c-0.1,0-0.2-0.1-0.2-0.1C651.3,465.3,651.4,465.4,651.5,465.4z"/><g><path class="st19" d="M649.6,487.4c-0.5-1-0.1-2.1,0.8-2.6c3.5-1.8,4.9-6.1,3.1-9.6L653,474c-1.8-3.5-6.1-4.9-9.6-3.1
				c-1,0.5-2.1,0.1-2.6-0.8c-0.5-1-0.1-2.1,0.8-2.6c5.4-2.8,12.1-0.6,14.9,4.8l0.6,1.2c2.8,5.4,0.6,12.1-4.8,14.9
				C651.3,488.8,650.1,488.4,649.6,487.4z"/></g><path class="st7" d="M611.6,472.4l-1.6,0.1l-4,0.4l-0.5-6.7v-18.6l-5.1,8.5l-1,1.7l0.2,0.3c-2.8-0.6-5.7,0-7.5,0.6l-1.6-1.7
			c1.5-0.5,4.5-1.4,7.7-1.2l8.4-14.1v-4.1h3.5l0.1,2L611.6,472.4z"/><g><g><path class="st19" d="M654.5,495.9l-2.3-5.1L639,461.7c-1.7,0.6-3.6,0.7-5.8,0.4c-1.2-0.2-2.4-0.4-3.6-0.7c-0.2,0-0.5,0-0.7,0
					c-0.3,0-0.5,0-0.6,0c-1.2,0.2-2.3,0.5-3.5,0.8c-1.2,0.3-2.4,0.6-3.7,0.9l17.5,38.7l2.8,6.2l10.3-4.7c1.4-0.6,2.4-1.8,2.9-3.1
					c0.2-0.4,0.3-0.9,0.3-1.3C655.1,497.9,655,496.9,654.5,495.9z"/><path class="st19" d="M641.6,507.9l-20.3,9.2c-2.8,1.3-6.1,0-7.4-2.8l-1.4-3.2l-11.2-24.7l-1.5-3.3l-1.4-3.2
					c-0.8-1.8-0.6-3.8,0.4-5.3c0.6-0.9,1.4-1.6,2.4-2.1l9.4-4.3h0l10.8-4.9l3.8,8.3l12.6,27.9l2.3,5L641.6,507.9z"/><path class="st20" d="M640.1,504.6l-18.1,8.2c-2.8,1.3-6.1,0-7.4-2.8l-1.4-3.2l-11.2-24.7l-1.5-3.3l-1.4-3.2
					c-0.2-0.3-0.3-0.7-0.4-1c0.6-0.9,1.4-1.6,2.4-2.1l9.4-4.3h0l10.8-4.9l3.8,8.3l12.6,27.9L640.1,504.6z"/></g><rect x="628.3" y="461.9" transform="matrix(0.9113 -0.4118 0.4118 0.9113 -143.6691 302.2563)" class="st21" width="2.6" height="45.3"/><path class="st21" d="M629.3,485.2c-1,0.5-2.3,0-2.7-1l0,0c-0.5-1,0-2.3,1-2.7l1.4-0.6l1.7,3.8L629.3,485.2z"/><path class="st22" d="M629.3,484.6c-1,0.5-2.3,0-2.7-1l0,0c-0.5-1,0-2.3,1-2.7l1.4-0.6l1.7,3.8L629.3,484.6z"/></g><path class="st14" d="M674.3,469l-7.1,3.7c0.4,0.9-1.5,2.7-2.4,3.2l-6.2,3.2l-6.3,3.3c-0.8,0.4-1.9,0.1-2.3-0.8
			c-0.3-0.6-0.2-1.3,0.1-1.8c-0.6,0-1.2-0.3-1.6-0.9c-0.1-0.3-0.2-0.5-0.2-0.8c0-0.6,0.3-1.2,0.9-1.5c-0.8,0.4-1.9,0.1-2.3-0.8
			c-0.3-0.6-0.2-1.3,0.1-1.8c-0.6,0-1.2-0.3-1.5-0.9c-0.4-0.9-0.1-1.9,0.7-2.3l3.6-1.8l2.2-1.1c0,0-1-0.6-1.6-0.8
			c2.5-1.7,6.2-3.6,7.9-4c2.2-0.5,4.2,1,4.3,1.2l7.2-3.7c2.4-1.2,5.2-0.3,6.5,2.1C677.6,464.9,676.7,467.8,674.3,469z"/><path class="st23" d="M654.5,495.9l-2.3-5.1l0,0c0,0,0,0,0-0.1l-14.3-31.5c-0.6-0.8-1.4-1.3-2.3-1.7c-1.3-0.5-2.9-0.5-4.3,0.1
			l-10.3,4.7l18.3,40.4l10.1-4.6c0.1-0.1,0.2-0.1,0.3-0.2l0,0c0,0,5-2.6,5.3,0.9C655.1,497.9,655,496.9,654.5,495.9z"/><rect x="666.6" y="461.3" transform="matrix(0.8893 -0.4573 0.4573 0.8893 -139.4517 357.6459)" class="st12" width="5" height="11.2"/><g><path class="st8" d="M699.2,449.7c-0.2,2.5-1.4,4.7-3.4,6.2l-21.5,16.5l-10.4-13.5l13.6-11c0,0,0,0,0,0l-1.6-1.7l-19.2-20.4
				l10.8-12.8l29.4,29.9C698.6,444.8,699.4,447.3,699.2,449.7z"/></g><path class="st19" d="M628.5,495.6l-9.4,6.2l-0.7,0.4l-17.1-15.8l-1.5-3.3l-1.4-3.2c-1.3-2.8,0-6.1,2.8-7.4l9.4-4.3h0l10.3,13.1
			l6.5,6.1l-4.7,0.2L628.5,495.6z"/><path class="st12" d="M634.7,379.3c0,0.9-0.8,1.7-1.7,1.7h-2.8c-0.9,0-1.7-0.8-1.7-1.7l0,0c0-0.9,0.8-1.7,1.7-1.7h2.8
			C633.9,377.6,634.7,378.4,634.7,379.3L634.7,379.3z"/><path class="st24" d="M663.6,361.1v-13.7c0-2.3-1-4.1-2.2-4.1c-1.2,0-2.2,1.8-2.2,4.1v13.7H663.6z"/><polygon class="st24" points="661.8,323.8 661.8,346 660.7,346 660.7,323.5 		"/><path class="st19" d="M621.4,492.3c0.1-0.1,0.2-0.1,0.3,0l4.5,4.7c0.7,0.8,1.8,1,2.3,0.5c0.5-0.5,0.4-1.6-0.4-2.3l-7.1-7.4
			l0.9-0.4c0.3-0.1,0.5-0.2,0.7-0.3l2.8,2.4c0.6,0.5,1.5,0.4,2-0.2c0.5-0.6,0.4-1.5-0.2-2l-3.8-3.3c-0.1-0.1-0.2-0.1-0.3-0.2
			c-0.1,0-0.1-0.1-0.2-0.1c0,0-0.1,0-0.1,0c-0.1,0-0.1-0.1-0.2-0.1l-7-2c-0.3-0.1-0.5-0.1-0.6,0c0,0-0.1,0-0.1,0l-4.3-4.5
			c-2.1-2.2-5.5-2.2-7.6-0.2c-2.2,2.1-2.2,5.5-0.2,7.6l4.2,4.4c-0.2,0.7,0.2,1.7,0.8,2.4l11,11.5c0.7,0.8,1.8,1,2.3,0.5
			c0.5-0.5,0.3-1.5-0.4-2.3l-4.4-4.6c0-0.1,0-0.2,0-0.3c0.1-0.1,0.3-0.1,0.3,0l0.3,0.3c0,0,0,0,0.1,0l5.2,5.4c0.7,0.8,1.8,1,2.3,0.5
			c0.5-0.5,0.4-1.6-0.4-2.3l-4.8-5.1c0-0.1,0-0.1,0.1-0.2c0.1-0.1,0.1-0.1,0.2,0l5.3,5.6c0.7,0.8,1.8,1,2.3,0.5
			c0.5-0.5,0.4-1.6-0.4-2.3l-5.7-6C621.4,492.4,621.4,492.3,621.4,492.3z"/><path class="st14" d="M621.4,490.4c0.1-0.1,0.2-0.1,0.3,0l4.5,4.7c0.7,0.8,1.8,1,2.3,0.5c0.5-0.5,0.4-1.6-0.4-2.3l-7.1-7.4
			l0.9-0.4c0.3-0.1,0.5-0.2,0.7-0.3l2.8,2.4c0.6,0.5,1.5,0.4,2-0.2c0.5-0.6,0.4-1.5-0.2-2l-3.8-3.3c-0.1-0.1-0.2-0.1-0.3-0.2
			c-0.1,0-0.1-0.1-0.2-0.1c0,0-0.1,0-0.1,0c-0.1,0-0.1-0.1-0.2-0.1l-7-2c-0.3-0.1-0.5-0.1-0.6,0c0,0-0.1,0-0.1,0l-4.3-4.5
			c-2.1-2.2-5.5-2.2-7.6-0.2c-2.2,2.1-2.2,5.5-0.2,7.6l4.2,4.4c-0.2,0.7,0.2,1.7,0.8,2.4l11,11.5c0.7,0.8,1.8,1,2.3,0.5
			c0.5-0.5,0.3-1.5-0.4-2.3l-4.4-4.6c0-0.1,0-0.2,0-0.3c0.1-0.1,0.3-0.1,0.3,0l0.3,0.3c0,0,0,0,0.1,0l5.2,5.4c0.7,0.8,1.8,1,2.3,0.5
			c0.5-0.5,0.4-1.6-0.4-2.3l-4.8-5.1c0-0.1,0-0.1,0.1-0.2c0.1-0.1,0.1-0.1,0.2,0l5.3,5.6c0.7,0.8,1.8,1,2.3,0.5
			c0.5-0.5,0.4-1.6-0.4-2.3l-5.7-6C621.4,490.5,621.4,490.5,621.4,490.4z"/><rect x="600.7" y="476.5" transform="matrix(0.6769 -0.7361 0.7361 0.6769 -156.6711 601.4155)" class="st22" width="12" height="5.4"/><g><path class="st8" d="M609.9,472.6l1.2,1.7l-14.2,10.1l-15-21.1c-2-2.8-2.2-6.6-0.4-9.5l23.7-38.1l14.1,8.8l-9,15.1l-4.8,8.1
				l-5.1,8.5l-1,1.7l0.2,0.3l5.9,8.2L609.9,472.6z"/></g><polygon class="st3" points="664,463.6 667.7,472.4 668.7,471.9 664.4,463.3 		"/><polygon class="st3" points="606.3,486.2 613.2,477.7 612.4,476.9 605.1,484.9 		"/><path class="st3" d="M658.6,479.1l-6.3,3.3c-0.8,0.4-1.9,0.1-2.3-0.8c-0.3-0.6-0.2-1.3,0.1-1.8c-0.6,0-1.2-0.3-1.6-0.9
			c-0.1-0.3-0.2-0.5-0.2-0.8c0-0.6,0.3-1.2,0.9-1.5c-0.8,0.4-1.9,0.1-2.3-0.8c-0.3-0.6-0.2-1.3,0.1-1.8c-0.6,0-1.2-0.3-1.5-0.9
			c-0.4-0.9-0.1-1.9,0.7-2.3l3.6-1.8C649.9,468.9,653,481.9,658.6,479.1z"/><g><polygon class="st8" points="620.3,524.7 619.3,575.8 605.9,575.8 607.1,514.7 613.4,527.5 			"/><polygon class="st8" points="641.4,516.4 641.4,575.8 628,575.8 628,521.7 			"/><polygon class="st8" points="653.5,575.8 652.3,512.1 665.6,506.9 666.9,575.8 			"/></g><path class="st25" d="M656.9,346c0,3.1-0.8,7.2-1.5,10.3c0,0-3.3-0.3-4.4,2.3c-3.8-3-7.4-9.2-8.7-14c-2.3,2.1-6.4,4.7-10.4,5
			c2.9-0.8,5.9-3.7,7.7-5.7c-10.2,5.1-20.9,4.6-25.6,5l-0.1,7.8c-3.6-4.9-4-9.5-3.3-13.1c0.9-4.6,3.6-7.6,3.6-7.6l-0.1,3.9l0.4-0.9
			l29.6-0.6h1.5l8.7,2.4v-3.1l0.3-0.2c0.7,1.4,1.8,3.5,2.2,6.2C656.8,344.5,656.9,345.2,656.9,346z"/><path class="st26" d="M656.7,343.8c-2.3-1.2-8.4-3.2-23.9-3.3c-15.2-0.1-21,2.4-22.3,3.1c0.9-4.6,3.6-7.6,3.6-7.6l-0.1,3.9
			l0.4-0.9l29.6-0.6h1.5l8.7,2.4v-3.1l0.3-0.2C655.2,338.9,656.3,341.1,656.7,343.8z"/><path class="st27" d="M648.2,340.1c-10.7-11-27.9-9.6-34.1-7.7l-0.2,8.4C614.3,340.7,625,337.7,648.2,340.1z"/><path class="st16" d="M648.2,340.1c1.9,0.2,3.9,0.4,6.1,0.7c0.2,0,0-13.1,0-13.1c-13.1-2-27.1-2-40.1,0v4.7
			C620.3,330.5,637.4,329.2,648.2,340.1z"/><line class="st28" x1="666.9" y1="575.8" x2="653.5" y2="575.8"/><path class="st7" d="M687,445.7l-0.7,1.9c-3.2-1.1-6.7-0.4-8.7,0.2l-1.6-1.7C677.9,445.5,682.7,444.1,687,445.7z"/><path class="st7" d="M605.5,447.6V461c1.9-0.1,3.8,0,5.7,0.1l-0.9-21.7l-0.1-2h-3.5v4.1l-8.4,14.1c-3.2-0.2-6.3,0.6-7.7,1.2
			l1.6,1.7c1.8-0.5,4.7-1.1,7.5-0.6l-0.2-0.3l1-1.7L605.5,447.6z"/><path class="st29" d="M663.6,360.8c0,0.4-0.3,0.7-0.7,0.7h-3c-0.4,0-0.7-0.3-0.7-0.7l0,0c0-0.4,0.3-0.7,0.7-0.7h3
			C663.3,360.1,663.6,360.4,663.6,360.8L663.6,360.8z"/><path class="st29" d="M662.5,342.3c0,0.5-0.3,0.9-0.7,0.9H661c-0.4,0-0.7-0.4-0.7-0.9l0,0c0-0.5,0.3-0.9,0.7-0.9h0.8
			C662.2,341.4,662.5,341.8,662.5,342.3L662.5,342.3z"/><polygon class="st30" points="617.8,651.2 631.5,653.5 631.5,649.2 617.8,649.2 		"/><polygon class="st30" points="648.1,651.2 661.9,653.5 661.9,649.2 648.1,649.2 		"/><g><path class="st21" d="M639.9,504.7c-0.2,0-0.4-0.1-0.5-0.3c-0.1-0.3,0-0.6,0.3-0.7l11.1-5c0.3-0.1,1.9-0.4,2.4,0
				c1.6,1.5-1.7,3.6-1.7,3.6l-1-2.3l-10.4,4.7C640,504.7,639.9,504.7,639.9,504.7z"/></g></g><g id="S3" class="st2"><path id="Body" class="st31" d="M292.8,196h164.4c31.9,0,57.8,25.9,57.8,57.8v430.4c0,31.9-25.9,57.8-57.8,57.8H292.8
			c-31.9,0-57.8-25.9-57.8-57.8V253.8C235,221.9,260.9,196,292.8,196z"/><g id="Lights"><circle id="Rounded_Rectangle_20" class="st12" cx="290.5" cy="224.5" r="4.5"/><circle id="Rounded_Rectangle_20_copy" class="st12" cx="419.5" cy="224.5" r="4.5"/><circle id="Rounded_Rectangle_20_copy_2" class="st12" cx="432.5" cy="224.5" r="4.5"/></g><path id="Button" class="st32" d="M351.9,710.1h46.2c5-0.1,10-0.5,9.7,4.8c-0.3,4.9-4.7,13-9.7,13h-46.2c-5,0-9.7-8.1-9.7-13
			S346.9,710.1,351.9,710.1z"/><path id="Screen" class="st33" d="M249,244h253v436H249V244z"/><g><path id="Rounded_Rectangle_21" class="st34" d="M283,277h25c5.5,0,10,4.5,10,10v25c0,5.5-4.5,10-10,10h-25c-5.5,0-10-4.5-10-10
				v-25C273,281.5,277.5,277,283,277z"/><path id="Rounded_Rectangle_21_copy" class="st35" d="M283,363h25c5.5,0,10,4.5,10,10v25c0,5.5-4.5,10-10,10h-25
				c-5.5,0-10-4.5-10-10v-25C273,367.5,277.5,363,283,363z"/><path id="Rounded_Rectangle_21_copy_2" class="st36" d="M283,449h25c5.5,0,10,4.5,10,10v25c0,5.5-4.5,10-10,10h-25
				c-5.5,0-10-4.5-10-10v-25C273,453.5,277.5,449,283,449z"/><path id="Rounded_Rectangle_21_copy_3" class="st37" d="M283,535h25c5.5,0,10,4.5,10,10v25c0,5.5-4.5,10-10,10h-25
				c-5.5,0-10-4.5-10-10v-25C273,539.5,277.5,535,283,535z"/><path id="Rounded_Rectangle_22_copy_4" class="st38" d="M345.7,282h120.7c2.6,0,4.7,2.1,4.7,4.7v0v2.7c0,2.6-2.1,4.7-4.7,4.7l0,0
				H345.7c-2.6,0-4.7-2.1-4.7-4.7v0v-2.7C341,284.1,343.1,282,345.7,282L345.7,282z M345.7,305h56.7c2.6,0,4.7,2.1,4.7,4.7l0,0v2.7
				c0,2.6-2.1,4.7-4.7,4.7l0,0h-56.7c-2.6,0-4.7-2.1-4.7-4.7v0v-2.7C341,307.1,343.1,305,345.7,305L345.7,305z M345.7,368h120.7
				c2.6,0,4.7,2.1,4.7,4.7v0v2.7c0,2.6-2.1,4.7-4.7,4.7l0,0H345.7c-2.6,0-4.7-2.1-4.7-4.7v0v-2.7C341,370.1,343.1,368,345.7,368
				L345.7,368z M345.7,391h56.7c2.6,0,4.7,2.1,4.7,4.7l0,0v2.7c0,2.6-2.1,4.7-4.7,4.7l0,0h-56.7c-2.6,0-4.7-2.1-4.7-4.7v0v-2.7
				C341,393.1,343.1,391,345.7,391L345.7,391z M345.7,454h120.7c2.6,0,4.7,2.1,4.7,4.7v0v2.7c0,2.6-2.1,4.7-4.7,4.7l0,0H345.7
				c-2.6,0-4.7-2.1-4.7-4.7v0v-2.7C341,456.1,343.1,454,345.7,454L345.7,454z M345.7,477h56.7c2.6,0,4.7,2.1,4.7,4.7l0,0v2.7
				c0,2.6-2.1,4.7-4.7,4.7l0,0h-56.7c-2.6,0-4.7-2.1-4.7-4.7v0v-2.7C341,479.1,343.1,477,345.7,477L345.7,477z M345.7,539h120.7
				c2.6,0,4.7,2.1,4.7,4.7c0,0,0,0,0,0v2.7c0,2.6-2.1,4.7-4.7,4.7h0H345.7c-2.6,0-4.7-2.1-4.7-4.7c0,0,0,0,0,0v-2.7
				C341,541.1,343.1,539,345.7,539L345.7,539z M345.7,561h56.7c2.6,0,4.7,2.1,4.7,4.7l0,0v2.7c0,2.6-2.1,4.7-4.7,4.7h0h-56.7
				c-2.6,0-4.7-2.1-4.7-4.7c0,0,0,0,0,0v-2.7C341,563.1,343.1,561,345.7,561L345.7,561z"/></g><path id="Rounded_Rectangle_19" class="st12" d="M348.2,213h53.6c1.7-0.1,3.1,1.1,3.2,2.8c0.1,1.7-1.1,3.1-2.8,3.2
			c-0.1,0-0.3,0-0.4,0h-53.6c-1.7,0.1-3.1-1.1-3.2-2.8c-0.1-1.7,1.1-3.1,2.8-3.2C347.9,213,348,213,348.2,213z"/><circle id="camera" class="st12" cx="460" cy="226" r="7"/><circle id="camera_copy" class="st39" cx="460" cy="226" r="2"/></g></g></svg>