<svg version="1.1" id="screen1" xmlns="http://www.w3.org/2000/svg" xmlns:xlink="http://www.w3.org/1999/xlink" x="0px" y="0px" viewBox="0 0 750 631" style="enable-background:new 0 0 750 631" xml:space="preserve"><style type="text/css">.st0{fill:#0196D6;} .st1{fill:#FFFFFF;} .st2{opacity:0.4;fill:none;stroke:#FFFFFF;stroke-width:3;stroke-linecap:round;stroke-linejoin:round;enable-background:new ;} .st3{clip-path:url(#bg_2_);fill:#FFFFFF;}</style><path id="bg" class="st0" d="M0,0h750v554c0,0-184.2,77-368,77C190.9,631,0,554,0,554V0z"/><g id="logo"><path class="st1" d="M265.1,366.1v-75.6h27.6v-17.8H214v17.8h27.6v75.6H265.1z M334.8,351.4c-1.9,0.8-3.9,1.3-5.9,1.3
		c-3.5,0-6.1-0.6-7.9-1.9c-1.8-1.2-2.7-3.5-2.7-6.8c-0.1-1.9,0.5-3.9,1.6-5.4c1.2-1.4,2.7-2.5,4.5-3c2.2-0.8,4.5-1.3,6.8-1.6
		c2.3-0.3,5.3-0.6,9-1v14.7C338.7,349.3,336.9,350.5,334.8,351.4L334.8,351.4z M340.3,366.1h21.8v-47.9c0-8.3-2.8-14.4-8.3-18.5
		c-5.5-4-14.4-6.1-26.5-6.1c-4.9,0-9.8,0.4-14.7,1.3c-4.9,0.9-8.4,1.6-10.5,2.2v17h1.9c3.3-1.5,6.7-2.7,10.2-3.6
		c3-0.9,6-1.3,9.1-1.4c5.7,0,10,0.7,12.9,2.2c2.9,1.5,4.3,4.2,4.3,8.1v0.4c-6.4,0.4-12.3,1-17.8,1.8c-4.9,0.6-9.7,1.9-14.2,4
		c-3.7,1.7-6.8,4.3-9,7.7c-2.1,3.2-3.2,7.4-3.2,12.7c-0.2,5.9,2,11.6,6.2,15.8c4.1,4.2,9.7,6.4,15.5,6.3c2.6,0.1,5.2-0.2,7.8-0.8
		c2-0.5,3.9-1.3,5.7-2.2c1.7-0.8,3.3-1.8,4.8-3c1.2-1,2.5-2.1,4-3.4L340.3,366.1L340.3,366.1z M452,366.7h-25.8l-19.6-31.5L404,339
		v80c0.2,1.8,0.6,3.6,1.2,5.4c0.6,1.4,1.7,2.6,3.1,3.3c1.9,0.8,3.9,1.2,5.9,1.1c1.9-0.1,3.8-0.4,5.5-1.1c2.3-0.8,4.4-1.8,6.4-3.1
		v-57.9H452l0,94.3l-25.8-16.1v-7.5c-3.4,2.8-7.1,5.2-11.1,7.2c-3.6,1.7-7.5,2.6-11.5,2.5c-7.1,0-12.6-2.2-16.5-6.6
		c-5.1-5.5-8-12.7-8.2-20.2V267c0,0,5.6,3.2,11.5,3.2c6.4,0,13.5-3.2,13.5-3.2v56l20.1-28.1h25.8l-24.4,30.9L452,366.7z
		 M504.9,367.5c2.5-0.3,4.9-0.8,7.4-1.5c2.1-0.5,4.1-1.1,6.1-1.9c1.5-0.6,3.1-1.3,4.9-2V344H521c-1,0.7-2.2,1.5-3.7,2.4
		c-1.6,1-3.3,1.8-5,2.6c-2.2,1-4.4,1.7-6.8,2.2c-2.5,0.6-5,0.8-7.5,0.8c-2.8,0-5.5-0.3-8.2-0.8c-2.4-0.5-4.6-1.4-6.6-2.8
		c-2-1.3-3.6-3.1-4.6-5.2c-1.3-2.6-2-5.3-2.1-8.2h48.1v-7.9c0-10.8-2.7-19.2-8.2-25c-5.4-5.8-13.6-8.7-24.3-8.7
		c-11.9,0-21.1,3.4-27.7,10.3s-9.9,16-9.9,27.6c0,11.8,3.5,20.8,10.6,27.2c7.1,6.4,17.3,9.5,30.6,9.5
		C498.8,368,501.9,367.8,504.9,367.5L504.9,367.5z M476.4,321.8c0.3-4.4,1.6-7.9,4-10.4c2.4-2.6,5.7-3.8,10-3.8
		c4.2,0,7.3,1.2,9.3,3.6c2,2.4,3.1,6,3.2,10.6H476.4z M528.3,382.8c-4.5-6.5-10.8-9.7-18.9-9.7c-4-0.1-8,0.8-11.6,2.6
		c-3.7,2.1-7.2,4.6-10.4,7.5v-8.6H466V471h21.4v-29c2.8,1.5,5.8,2.7,8.8,3.6c3,0.8,6.1,1.2,9.2,1.2c8.4,0,15.4-3.5,21.1-10.4
		c5.7-6.9,8.6-16,8.6-27.2C535,398.1,532.7,389.3,528.3,382.8L528.3,382.8z M508.6,425.5c-2.6,3.5-6.6,5.2-11.9,5.2
		c-1.7,0-3.3-0.1-5-0.3c-1.5-0.2-3-0.7-4.4-1.2v-35.4c2-1.2,4.1-2.1,6.3-2.7c1.9-0.6,3.9-0.9,5.9-0.9c4.5,0,7.8,1.5,9.9,4.6
		s3.2,8.1,3.2,14.9C512.5,416.7,511.2,422,508.6,425.5L508.6,425.5z M379.4,259.7c0,0,5.9,3.2,11.9,3.2c6.3,0,12.6-3.2,12.6-3.2
		c-0.7-7.1-2-14.1-4-20.9c-2.2-6.8-5-13.5-8.3-19.9c-3.3,6.3-6,12.9-8.2,19.6C381.5,245.5,380.1,252.6,379.4,259.7z M391.7,278
		c3.3,0,5.9,2.6,5.9,5.9c0,3.3-2.6,5.9-5.9,5.9c-3.3,0-5.9-2.6-5.9-5.9c0,0,0,0,0,0C385.8,280.6,388.5,278,391.7,278z"/><path id="Ellipse_1_copy" class="st1" d="M404,370h-25v251l25-16V370z"/></g><g><path class="st2" d="M260,176h-16.6c1.6-1.1,2.7-2.9,2.7-5c0-3.3-2.7-6-6-6h-77.9h0c-3.3,0-6,2.7-6,6c0,3.3,2.7,6,6,6h16.6
		c-1.6,1.1-2.7,2.9-2.7,5c0,2.1,1.1,3.9,2.7,5H144c-3.3,0-6,2.7-6,6c0,3.3,2.7,6,6,6h69.3c3.3,0,6-2.7,6-6c0-2.1-1.1-3.9-2.7-5H260
		c3.3,0,6-2.7,6-6C266,178.7,263.3,176,260,176z"/><path class="st2" d="M105.3,72.5H93.7c0.6-0.8,0.9-1.7,0.9-2.8c0-2.6-2.1-4.8-4.8-4.8H29.8c-2.6,0-4.8,2.1-4.8,4.8s2.1,4.8,4.8,4.8
		h11.5c-0.6,0.8-0.9,1.7-0.9,2.8c0,2.6,2.1,4.8,4.8,4.8h60.1c2.6,0,4.8-2.1,4.8-4.8S107.9,72.5,105.3,72.5z"/><path class="st2" d="M708.1,197.3h-16.7c2.1-0.9,3.5-3,3.5-5.4c0-3.2-2.6-5.9-5.9-5.9h-74.2c-3.2,0-5.9,2.6-5.9,5.9
		c0,3.2,2.6,5.9,5.9,5.9h16.7c-2.1,0.9-3.5,3-3.5,5.4c0,3.2,2.6,5.9,5.9,5.9h74.2c3.2,0,5.9-2.6,5.9-5.9
		C714,199.9,711.4,197.3,708.1,197.3z"/><path class="st2" d="M645.1,71.5L645.1,71.5C645.1,71.4,645.1,71.4,645.1,71.5c0-1.3-0.5-2.4-1.3-3.2h24.7c2.5,0,4.5-2,4.5-4.5v0
		c0-2.5-2-4.5-4.5-4.5h-10.9c0.5-0.7,0.8-1.6,0.8-2.6v0c0-2.5-2-4.5-4.5-4.5h-57c-2.5,0-4.5,2-4.5,4.5v0c0,0,0,0,0,0
		c0,2.5,2,4.5,4.5,4.5h10.9c-0.5,0.7-0.8,1.6-0.8,2.6v0c0,0,0,0,0,0c0,1.3,0.5,2.4,1.3,3.2h-24.7c-2.5,0-4.5,2-4.5,4.5v0
		c0,2.5,2,4.5,4.5,4.5h57C643,76,645.1,74,645.1,71.5z"/></g><g><defs><path id="bg_1_" d="M0,0h750v554c0,0-184.2,77-368,77C190.9,631,0,554,0,554V0z"/></defs><clipPath id="bg_2_"><use xlink:href="#bg_1_" style="overflow:visible"/></clipPath><path class="st3" d="M608.1,705.1l65.1-103.3c-22.3-6.5-46.2-4.4-67.1,5.9c-1.3,0.6-2.8,0.5-3.9-0.4c-15.2-13.2-35-18.2-53.8-15.2
		c-9.8-1.6-19.3-1.8-27.4,0.2c-1.4,0.4-2.8-0.1-3.7-1.3c-19.1-25.7-54-33.9-82.6-19.5c-1.4,0.7-3,0.4-4.1-0.7l0,0
		c-10.8-10.6-27.1-12.5-39.9-5.3c-21.3-0.7-42.3,6-59.3,19c-1.1,0.9-2.7,1-3.9,0.3c-24.6-14.1-55.1-10.7-75.9,7.5
		c-1.5-0.1-3-0.2-4.6-0.2v4.6c0,0,0,0-0.1,0.1V592c0,0,0,0,0.1,0v0c-16.3,0-29.5,5.1-38.3,18.4c-1,0.8-2,1.6-3,2.4
		c-0.1,0-0.2,0-0.3,0c-23.1-3.6-45.3,10-52.7,32.1c-0.4,1-1.4,1.7-2.5,1.7h0c-12.3,0-22.7,9.2-24.1,21.5c-0.2,1.4,0.9,2.7,2.3,2.9
		c0.1,0,0.2,0,0.3,0H247v0h-0.1v-16.1l0.1,0V671h84.7l61.1,11.6L394,702l91.2-42H536L608.1,705.1z"/></g></svg>