<svg version="1.1" id="settings" xmlns="http://www.w3.org/2000/svg" xmlns:xlink="http://www.w3.org/1999/xlink" x="0px" y="0px" viewBox="0 0 38 29" style="enable-background:new 0 0 38 29" xml:space="preserve"><style type="text/css">.st0{fill:#FFFFFF;}</style><g id="Forma_1"><path class="st0" d="M21.8,29c-0.8,0-1.5-0.6-1.6-1.3L19.6,25c-0.3-0.1-0.6-0.2-0.9-0.4l-2.2,1.5c-0.7,0.4-1.5,0.4-2.1-0.2
		l-2.3-2.3c-0.6-0.6-0.6-1.4-0.2-2.1l1.5-2.2c-0.1-0.3-0.3-0.6-0.4-0.9l-2.7-0.5C9.6,17.6,9,17,9,16.2l0-3.3c0-0.8,0.6-1.5,1.3-1.6
		l2.7-0.5c0.1-0.3,0.2-0.6,0.4-0.9l-1.5-2.3C11.4,6.9,11.5,6,12,5.5l2.3-2.3c0.6-0.6,1.4-0.6,2.1-0.2l2.3,1.5
		c0.3-0.1,0.6-0.3,0.9-0.4l0.5-2.7C20.3,0.6,21,0,21.8,0l3.3,0c0.8,0,1.5,0.6,1.6,1.3L27.2,4c0.3,0.1,0.7,0.3,1,0.4l2.3-1.6
		C31.2,2.4,32,2.5,32.6,3l2.3,2.3c0.6,0.6,0.6,1.4,0.2,2.1l-1.6,2.3c0.1,0.3,0.3,0.6,0.4,0.9l2.7,0.5c0.8,0.2,1.3,0.8,1.3,1.6l0,3.3
		c0,0.8-0.6,1.5-1.3,1.6L34,18.3c-0.1,0.3-0.3,0.7-0.4,1l1.5,2.2c0.4,0.7,0.4,1.5-0.2,2.1l-2.3,2.3c-0.6,0.6-1.4,0.6-2.1,0.2
		l-2.3-1.6c-0.3,0.1-0.6,0.3-1,0.4l-0.5,2.7c-0.2,0.8-0.8,1.3-1.6,1.4H21.8z M18.6,22.3l0.5,0.3c0.5,0.3,1.1,0.5,1.7,0.7l0.6,0.2
		l0.7,3.6h2.7l0.7-3.6l0.6-0.2c0.6-0.2,1.2-0.4,1.7-0.7l0.5-0.3l3,2.1l1.9-1.9l-2.1-3l0.3-0.5c0.3-0.6,0.5-1.1,0.7-1.7l0.2-0.6
		l3.6-0.7l0-2.7l-3.6-0.7l-0.2-0.6c-0.2-0.6-0.4-1.2-0.7-1.7l-0.3-0.5l2.1-3l-1.9-1.9l-3,2.1l-0.5-0.3c-0.6-0.3-1.1-0.5-1.7-0.7
		l-0.6-0.2L24.8,2l-2.8,0l-0.7,3.6l-0.6,0.2c-0.6,0.2-1.1,0.4-1.7,0.7l-0.5,0.3l-3-2.1l-1.9,1.9l2.1,3l-0.3,0.5
		c-0.3,0.5-0.5,1.1-0.7,1.7l-0.2,0.6L11,13.1l0,2.7l3.6,0.7l0.2,0.6c0.2,0.6,0.4,1.2,0.7,1.7l0.3,0.5l-2,3l1.9,1.9L18.6,22.3z
		 M23.5,19.5L23.5,19.5c-2.7,0-5-2.2-5-5s2.2-5,5-5c2.7,0,5,2.2,5,5C28.5,17.2,26.2,19.5,23.5,19.5z M23.5,11.5c-1.6,0-3,1.3-3,3
		c0,1.6,1.3,3,3,3c1.6,0,3-1.3,3-3C26.5,12.9,25.1,11.5,23.5,11.5z"/></g><g id="Rectangle_2496_copy"><path class="st0" d="M4,26h9v2H4V26z M0,21h9v2H0V21z"/></g></svg>