<svg version="1.1" id="Layer_1" xmlns="http://www.w3.org/2000/svg" xmlns:xlink="http://www.w3.org/1999/xlink" x="0px" y="0px" viewBox="0 0 34 17" style="enable-background:new 0 0 34 17" xml:space="preserve"><style type="text/css">.st0{fill:#FFFFFF;} .st1{fill:#97A0A6;} .st2{fill:#0682B7;} .st3{opacity:0.5;fill:#97A0A6;enable-background:new ;}</style><g><rect x="0.5" y="5.5" class="st0" width="29" height="11"/><path class="st1" d="M29,6v10H1V6H29 M30,5H0v12h30V5L30,5z"/></g><path class="st2" d="M5.9,8.3L5.9,8.3c1.6,0,2.9,1.3,2.9,2.9v0c0,1.6-1.3,2.9-2.9,2.9h0C4.3,14,3,12.7,3,11.1v0
	C3,9.6,4.3,8.3,5.9,8.3z"/><path id="Rectangle_1753_copy_2" class="st3" d="M15,8h10v1H15V8z M15,10h10v1H15V10z M15,12h10v1H15V12z"/><path id="Rectangle_1753_copy_3" class="st3" d="M13,8h1v1h-1V8z M13,10h1v1h-1V10z M13,12h1v1h-1V12z"/><g><rect x="4.5" y="0.5" class="st0" width="29" height="11"/><path class="st1" d="M33,1v10H5V1H33 M34,0H4v12h30V0L34,0z"/></g><path class="st2" d="M9.9,3.3L9.9,3.3c1.6,0,2.9,1.3,2.9,2.9v0c0,1.6-1.3,2.9-2.9,2.9h0C8.3,9,7,7.7,7,6.1v0C7,4.6,8.3,3.3,9.9,3.3z
	"/><path id="Rectangle_1753_copy_2-2" class="st3" d="M19,3h10v1H19V3z M19,5h10v1H19V5z M19,7h10v1H19V7z"/><path id="Rectangle_1753_copy_3-2" class="st3" d="M17,3h1v1h-1V3z M17,5h1v1h-1V5z M17,7h1v1h-1V7z"/><rect x="8" y="0" class="st0" width="4" height="1"/><rect id="Rectangle_1761_copy" x="33" y="9" class="st0" width="1" height="1"/><rect id="Rectangle_1761_copy_2" x="29" y="14" class="st0" width="1" height="1"/><rect id="Rectangle_1761_copy_3" y="7" class="st0" width="1" height="2"/></svg>