<svg xmlns="http://www.w3.org/2000/svg" width="31" height="29" viewBox="0 0 31 29"><defs><style>.cls-1 { fill: #cacaca; fill-rule: evenodd; }</style></defs><path id="upload" class="cls-1" d="M137.212,1025.57a9.09,9.09,0,0,0-2.8-5.19,8.9,8.9,0,0,0-10.926-.93,9.025,9.025,0,0,0-2.913,3.1,5.886,5.886,0,0,0-.944-0.09,4.957,4.957,0,0,0-4.914,4.98,5.45,5.45,0,0,0,.1,1.03,6.951,6.951,0,0,0-2.818,5.58,7.467,7.467,0,0,0,1.855,4.9,6.585,6.585,0,0,0,4.59,2.33h5.533a0.87,0.87,0,0,0,0-1.74h-5.457a5.469,5.469,0,0,1-4.8-5.5,5.2,5.2,0,0,1,2.531-4.45,0.872,0.872,0,0,0,.376-1.05,3.252,3.252,0,0,1,3-4.35,3.094,3.094,0,0,1,1.091.2,0.864,0.864,0,0,0,1.077-.45,7.239,7.239,0,0,1,13.788,2.42,0.883,0.883,0,0,0,.714.78,6.29,6.29,0,0,1-.586,12.4h-4.7a0.87,0.87,0,0,0,0,1.74h4.793a7.591,7.591,0,0,0,5.113-2.56A8.073,8.073,0,0,0,137.212,1025.57Zm-4.545,9.31a0.885,0.885,0,0,0,0-1.24l-4.558-4.61a0.876,0.876,0,0,0-.606-0.26,0.831,0.831,0,0,0-.605.26l-4.558,4.61a0.885,0.885,0,0,0,0,1.24,0.9,0.9,0,0,0,.6.26,0.855,0.855,0,0,0,.606-0.26l3.092-3.13v14.38a0.861,0.861,0,1,0,1.721,0v-14.38l3.091,3.13A0.848,0.848,0,0,0,132.667,1034.88Z" transform="translate(-112 -1018)"/></svg>