<svg id="volunteer" xmlns="http://www.w3.org/2000/svg" width="25" height="33" viewBox="0 0 25 33"><defs><style>.cls-1 { fill: #d9ebf4; } .cls-1, .cls-2, .cls-3 { fill-rule: evenodd; } .cls-2 { fill: #0682b7; } .cls-3 { fill: #97a0a6; }</style></defs><path id="Shape_1792_copy" data-name="Shape 1792 copy" class="cls-1" d="M77.362,3501.08H77.42c5.434-.06,4.648-7.18,4.648-7.18-0.226-4.75-4.276-4.72-4.677-4.7-0.4-.02-4.451-0.06-4.677,4.7,0.007,0.01-.779,7.13,4.648,7.18h0Zm0,0" transform="translate(-65 -3484)"/><path class="cls-2" d="M77.5,3484A12.405,12.405,0,0,0,65,3496.27a12.114,12.114,0,0,0,3.365,8.36,0.88,0.88,0,0,0,.153.15,12.585,12.585,0,0,0,8.982,3.76,12.272,12.272,0,1,0,0-24.54h0Zm-7.3,20.56c3.394-1.08,4.589-2.41,5-3.26a5.451,5.451,0,0,0,2.113.43h0.16a5.165,5.165,0,0,0,2.266-.51c0.386,0.85,1.552,2.23,5.048,3.34a11.269,11.269,0,0,1-14.59,0h0Zm7.219-4.12H77.376a3.485,3.485,0,0,1-2.7-1.1c-1.661-1.83-1.3-5.32-1.3-5.36v-0.04c0.175-3.79,3.03-4.08,3.9-4.08h0.226c0.867,0,3.722.29,3.9,4.08v0.04c0.007,0.04.364,3.52-1.3,5.36a3.511,3.511,0,0,1-2.7,1.1h0Zm8.443,3.09c-4.822-1.37-4.983-3.05-4.983-3.06v0.03H80.807a3.121,3.121,0,0,0,.3-0.3c1.989-2.2,1.661-5.98,1.624-6.33-0.189-3.92-2.928-5.32-5.223-5.32H77.274c-2.287,0-5.026,1.39-5.223,5.31-0.037.35-.372,4.13,1.624,6.33a5.273,5.273,0,0,0,.394.39c-0.11.36-.823,1.77-4.946,2.95a10.815,10.815,0,0,1-2.812-7.27,11.184,11.184,0,0,1,22.363,0,10.763,10.763,0,0,1-2.812,7.27h0Zm0,0" transform="translate(-65 -3484)"/><path id="Shape_1792_copy_2" data-name="Shape 1792 copy 2" class="cls-3" d="M87.99,3512.49a0.606,0.606,0,0,0-.673-0.49H68.683a0.606,0.606,0,0,0-.673.49,0.612,0.612,0,0,0,.673.5H87.317a0.612,0.612,0,0,0,.673-0.5h0Zm0,0-3.977,4.01a0.592,0.592,0,0,0-.654-0.49H71.641a0.514,0.514,0,1,0,0,.99H83.367a0.6,0.6,0,0,0,.646-0.5h0Zm0,0" transform="translate(-65 -3484)"/></svg>